<svg width="92.000000" height="45.000000" viewBox="0 0 92 45" fill="none" xmlns="http://www.w3.org/2000/svg" xmlns:xlink="http://www.w3.org/1999/xlink">
	<desc>
			Created with Pixso.
	</desc>
	<defs/>
	<path d="M3.79 27.61C3.45 27.61 3.15 27.64 2.89 27.69C-0.57 28.31 0.19 32.08 0.48 31.78C1.76 30.33 4.15 30.66 6.59 31C8.63 31.28 10.7 31.56 12.2 30.82C14.08 29.9 13.85 26.45 13.57 26.83C12.5 28.34 10.09 28.24 7.68 27.96C7.94 25.85 8.66 23.25 9.42 20.69C12.18 21.26 14.66 21.37 14.08 17.9C13.72 18.83 11.99 18.84 10.02 18.71C10.92 15.83 11.79 13.19 12.02 11.59C13.67 11.79 15.25 11.86 16.44 11.28C18.32 10.34 18.09 6.89 17.81 7.27C16.59 8.98 13.66 8.62 10.98 8.3C9.51 8.12 8.12 7.95 7.13 8.13C3.67 8.76 4.43 12.54 4.72 12.24C5.6 11.24 7 11.08 8.58 11.18C8.38 12.99 7.43 15.7 6.45 18.48C4.55 18.45 3.17 18.73 3.54 20.17C4.05 19.83 4.9 19.83 5.9 19.98C4.83 22.97 3.84 25.86 3.79 27.61ZM42.33 16.73C40.74 21.64 39.01 27 39.38 29.29C39.68 31.05 43.07 31.65 42.97 31.19C42.94 28.61 47.95 18.59 48.78 18.73C48.64 20.05 47.94 22.04 47.25 23.95C46.5 26.09 45.77 28.14 45.9 29.07C46.1 30.39 48.54 31.44 49.99 31.24C50.49 31.17 51.49 28.55 52.21 26.48C52.12 27.49 52.17 28.39 52.4 29.06C53.27 31.48 55.88 31.58 56.98 31.07C61 29.17 63.18 19.39 60.3 19.01C59.47 18.91 58.51 20.27 58.51 20.27C60.59 20.71 57.14 31.6 55.7 30.27C54.45 29.12 57.64 17.35 60.35 18.61C60.35 18.61 60.77 18.21 60.12 17.8C59.37 17.3 57.03 17.15 56.16 17.71C54.7 18.65 53.33 21.4 52.64 24.08C52.63 24.1 52.61 24.11 52.6 24.13C52.32 24.85 50.69 28.76 49.39 30C49.42 28.91 50.13 26.81 50.85 24.7C51.67 22.24 52.5 19.79 52.25 18.94C52.09 18.38 50.21 17.5 49.28 17.41C47.66 17.26 44.85 22.97 43.24 26.96C44.37 20.97 47.75 11.79 47.98 9.61C48.21 7.5 44.69 7.32 44.7 7.38C44.9 8.8 43.67 12.61 42.33 16.73ZM76.05 13.79C75.52 15.24 74.98 16.72 78.35 17.16C78.21 16.32 78.54 15.56 78.83 14.89C79.4 13.6 79.81 12.64 76.42 12.09C76.48 12.6 76.26 13.2 76.05 13.79ZM62.36 23.01C61.65 25.49 60.9 28.1 61.12 29.46C61.33 30.79 64 31.17 64.71 31.25C64.79 31.27 64.91 31.2 64.89 31.1C64.88 28.51 69.33 18.59 70.17 18.73C70.18 18.85 70.07 19.17 69.92 19.6C69.29 21.36 67.99 25.02 71.98 25.2C71.6 23.84 72.34 21.95 72.89 20.56C73.22 19.73 73.47 19.08 73.39 18.81C73.23 18.26 71.6 17.5 70.67 17.41C68.87 17.25 65.97 24.4 64.71 28.32C65.08 24.75 67.19 20.39 67.24 19.19C67.31 17.06 63.41 17.36 63.43 17.43C63.69 18.37 63.04 20.63 62.36 23.01ZM73.27 23C72.51 25.51 71.72 28.15 71.96 29.46C72.18 30.7 75.17 31.57 75.99 31.2C76.46 30.98 77.27 29.06 77.95 27.25C77.77 28.41 77.77 29.33 78 29.76C78.62 30.87 81.31 31.6 81.91 31.19C82.24 30.95 84.4 25.48 85.87 21.69C85.02 24.52 84.1 27.96 84.27 29.07C84.45 30.39 86.9 31.44 88.36 31.24C89.09 31.14 90.92 25.5 91.31 24.27C91.36 24.15 91.26 24.03 91.14 24.03C91.07 24.03 91.01 24.07 90.97 24.13C90.69 24.85 89.04 28.76 87.75 30C87.81 27.64 90.24 19.36 90.57 18.66C90.91 17.96 87.38 17.05 87.18 17.6L81.24 30.24C81.06 28.16 83.85 17.95 85.72 18.43L85.73 18.43C86.09 18.53 86.32 18.59 86.43 18.28C86.53 18 86.47 17.9 86.28 17.8C85.55 17.36 82.46 16.91 81.03 18.73C80.18 19.82 79.29 21.96 78.67 24.09C78.66 24.1 78.65 24.12 78.65 24.13C78.37 24.82 76.87 28.39 75.61 29.81C75.45 27.36 76.58 24.17 77.39 21.87C77.82 20.64 78.17 19.67 78.18 19.19C78.25 17.06 74.39 17.36 74.41 17.43C74.66 18.37 73.98 20.63 73.27 23ZM20.52 19.19C20.58 17.06 16.89 17.4 16.91 17.46C17.16 18.42 16.45 20.78 15.72 23.21C14.98 25.68 14.21 28.21 14.41 29.42C14.63 30.75 17.29 31.6 18.27 31.19C19.34 30.72 22.41 22.92 23.74 19.44C23.53 20.39 23.18 21.53 22.82 22.71C22.04 25.3 21.18 28.1 21.52 29.54C21.77 30.67 24.48 31.7 25.47 31.09C25.67 30.97 25.9 30.63 26.15 30.15C24.99 33.91 24.02 37.45 24.31 39.22C24.59 40.95 27.82 41.56 27.9 41.17C28.53 37.37 29.87 33.26 31.3 29.59C31.71 30.1 33.76 31.39 34.62 31.2C38.48 30.42 40.81 21.11 39.71 19.18C38.9 17.75 36.9 17.18 36.25 17.56C35.54 17.98 30.9 26.45 28.48 35.39C29.83 29.49 32.69 21.56 32.91 19.54C33.14 17.43 29.3 17.36 29.32 17.43C29.55 18.68 28.89 21.29 27.98 24.31C27.57 25.31 26.14 28.63 24.94 29.89C24.76 27.43 25.9 24.18 26.72 21.85C27.15 20.63 27.49 19.67 27.5 19.19C27.59 17.06 23.89 17.4 23.91 17.46C23.91 17.46 19.57 27.71 17.94 29.79C17.51 28.33 18.7 24.88 19.61 22.26C20.1 20.84 20.5 19.67 20.52 19.19ZM31.48 29.11C33.82 23.17 36.39 18.53 36.6 18.61C37.38 18.93 34.56 30.84 31.48 29.11Z" fill="#3C4242" fill-opacity="1.000000" fill-rule="evenodd"/>
	<path d="M0 33.62L22.4 " stroke="#333333" stroke-opacity="1.000000" stroke-width="0.420324" stroke-linejoin="round" stroke-linecap="round"/>
	<path d="M31.98 33.62L91.03 " stroke="#3C4242" stroke-opacity="1.000000" stroke-width="0.420324" stroke-linejoin="round" stroke-linecap="round"/>
	<path d="M39.95 41.26C39.78 41.26 39.59 41.19 39.38 41.06C39.16 40.93 38.93 40.76 38.69 40.55C38.45 40.34 38.21 40.11 37.98 39.86C37.75 39.61 37.53 39.36 37.33 39.11C37.14 38.86 36.97 38.64 36.84 38.45L35.76 40.78C35.71 40.89 35.62 40.98 35.51 41.02C35.4 41.07 35.28 41.1 35.15 41.11C35.02 41.12 34.89 41.12 34.77 41.12C34.86 40.98 34.96 40.83 35.06 40.65C35.16 40.47 35.28 40.25 35.42 40C35.56 39.75 35.72 39.44 35.9 39.08C36.09 38.72 36.31 38.29 36.57 37.78C36.82 37.28 37.12 36.69 37.47 36.01C37.5 35.97 37.53 35.92 37.56 35.85C37.6 35.78 37.62 35.71 37.62 35.65C37.62 35.6 37.6 35.55 37.56 35.52C37.53 35.49 37.46 35.47 37.35 35.47C37.17 35.47 37 35.52 36.83 35.62C36.67 35.71 36.52 35.84 36.39 35.98C36.26 36.13 36.16 36.29 36.08 36.44C36.01 36.6 35.97 36.74 35.97 36.87C35.97 36.96 35.99 37.05 36.03 37.12C35.78 37.12 35.61 37.08 35.51 37C35.41 36.92 35.36 36.82 35.36 36.7C35.36 36.53 35.43 36.36 35.58 36.19C35.73 36.02 35.92 35.87 36.15 35.73C36.39 35.59 36.63 35.47 36.89 35.39C37.14 35.31 37.38 35.26 37.59 35.26C37.79 35.26 37.92 35.3 37.99 35.38C38.06 35.45 38.1 35.53 38.1 35.62C38.1 35.68 38.09 35.73 38.07 35.78C38.05 35.84 38.03 35.89 38.01 35.94L37.07 37.96C37.18 37.86 37.31 37.77 37.48 37.68C37.65 37.6 37.83 37.5 38.03 37.4C38.36 37.22 38.72 37.01 39.11 36.77C39.49 36.53 39.85 36.28 40.2 36.02C40.55 35.76 40.84 35.51 41.07 35.26C41.11 35.29 41.13 35.35 41.15 35.42C41.16 35.49 41.17 35.55 41.17 35.59C41.17 35.74 41.08 35.91 40.89 36.1C40.7 36.28 40.45 36.47 40.15 36.66C39.84 36.86 39.51 37.05 39.14 37.24C38.78 37.43 38.42 37.61 38.07 37.78C37.72 37.95 37.4 38.09 37.12 38.22C37.34 38.47 37.56 38.71 37.77 38.94C37.98 39.17 38.21 39.39 38.46 39.61C38.71 39.83 39 40.05 39.33 40.28C39.67 40.5 40.07 40.75 40.55 41.01C40.49 41.08 40.41 41.13 40.3 41.18C40.19 41.23 40.07 41.26 39.95 41.26Z" fill="#3C4242" fill-opacity="1.000000" fill-rule="nonzero"/>
	<path d="M45.9 40.97C45.45 40.97 45.12 40.88 44.9 40.7C44.68 40.52 44.57 40.3 44.57 40.04C44.25 40.32 43.88 40.54 43.47 40.7C43.05 40.86 42.63 40.94 42.21 40.94C41.75 40.94 41.41 40.85 41.19 40.69C40.96 40.52 40.85 40.32 40.85 40.08C40.85 39.85 40.93 39.62 41.1 39.37C41.27 39.12 41.49 38.89 41.77 38.67C42.05 38.46 42.35 38.28 42.69 38.14C43.02 38.01 43.35 37.94 43.68 37.94C43.85 37.94 44.01 37.97 44.15 38.03C44.3 38.09 44.37 38.21 44.37 38.39C44.37 38.58 44.28 38.76 44.12 38.92C43.95 39.09 43.73 39.23 43.46 39.36C43.19 39.49 42.89 39.6 42.57 39.68C42.25 39.76 41.93 39.81 41.61 39.83C41.59 39.88 41.58 39.93 41.57 39.97C41.56 40.02 41.56 40.06 41.56 40.1C41.56 40.2 41.59 40.29 41.64 40.39C41.69 40.49 41.78 40.57 41.91 40.63C42.03 40.69 42.21 40.72 42.44 40.72C42.83 40.72 43.23 40.63 43.61 40.44C44 40.26 44.33 40.03 44.62 39.76C44.69 39.55 44.81 39.35 44.98 39.15C45.15 38.95 45.36 38.76 45.6 38.59C45.84 38.43 46.1 38.3 46.38 38.19C46.67 38.09 46.95 38.04 47.24 38.04C47.41 38.04 47.57 38.07 47.72 38.13C47.86 38.19 47.93 38.31 47.93 38.5C47.93 38.75 47.8 38.97 47.55 39.16C47.29 39.35 46.96 39.5 46.56 39.62C46.16 39.73 45.75 39.8 45.33 39.83C45.31 39.88 45.3 39.93 45.29 39.97C45.29 40.02 45.28 40.06 45.28 40.1C45.28 40.2 45.31 40.3 45.35 40.4C45.4 40.51 45.49 40.59 45.61 40.66C45.73 40.73 45.91 40.76 46.14 40.76C46.46 40.76 46.78 40.7 47.1 40.57C47.42 40.44 47.71 40.28 47.99 40.07C48.26 39.87 48.49 39.64 48.68 39.41L48.81 39.47C48.61 39.77 48.35 40.03 48.04 40.26C47.72 40.48 47.38 40.66 47.01 40.78C46.64 40.91 46.28 40.97 45.9 40.97ZM41.66 39.69C41.86 39.64 42.09 39.58 42.34 39.49C42.59 39.41 42.84 39.3 43.07 39.18C43.3 39.07 43.5 38.94 43.65 38.79C43.8 38.65 43.88 38.5 43.88 38.34C43.88 38.28 43.86 38.24 43.83 38.21C43.8 38.18 43.74 38.17 43.64 38.17C43.47 38.17 43.28 38.21 43.08 38.31C42.87 38.4 42.68 38.52 42.5 38.67C42.31 38.81 42.14 38.98 41.99 39.16C41.85 39.33 41.73 39.51 41.66 39.69ZM45.38 39.69C45.58 39.64 45.8 39.59 46.04 39.51C46.28 39.44 46.5 39.35 46.72 39.25C46.93 39.15 47.11 39.03 47.25 38.9C47.39 38.77 47.46 38.62 47.46 38.47C47.46 38.41 47.45 38.36 47.41 38.33C47.37 38.29 47.3 38.27 47.21 38.27C46.97 38.27 46.73 38.34 46.49 38.48C46.25 38.62 46.03 38.8 45.83 39.01C45.64 39.23 45.48 39.45 45.38 39.69Z" fill="#3C4242" fill-opacity="1.000000" fill-rule="nonzero"/>
	<path d="M47.74 42.69C47.68 42.69 47.63 42.67 47.57 42.63C47.51 42.58 47.47 42.54 47.44 42.49C47.41 42.45 47.4 42.42 47.4 42.41C47.5 42.17 47.6 41.95 47.7 41.76C47.8 41.57 47.9 41.37 48 41.17C48.1 40.97 48.2 40.74 48.3 40.47C48.4 40.2 48.5 39.86 48.6 39.46C48.7 39.06 48.81 38.56 48.91 37.97C48.92 37.92 48.93 37.89 48.96 37.87C48.98 37.85 49.03 37.84 49.12 37.84C49.32 37.84 49.45 37.88 49.54 37.95C49.62 38.02 49.66 38.1 49.66 38.18C49.66 38.25 49.64 38.37 49.59 38.55C49.55 38.73 49.48 38.94 49.4 39.18C49.53 39.02 49.69 38.85 49.88 38.69C50.06 38.52 50.28 38.38 50.53 38.26C50.77 38.15 51.04 38.09 51.33 38.09C51.66 38.09 51.93 38.17 52.14 38.33C52.35 38.48 52.45 38.69 52.45 38.94C52.45 39.13 52.39 39.34 52.26 39.55C52.13 39.77 51.95 39.97 51.71 40.16C51.48 40.35 51.2 40.51 50.88 40.62C50.56 40.74 50.21 40.8 49.83 40.8C49.63 40.8 49.48 40.79 49.36 40.76C49.24 40.73 49.18 40.7 49.18 40.67C49.18 40.65 49.21 40.64 49.26 40.64C49.32 40.63 49.38 40.63 49.46 40.63C49.76 40.63 50.04 40.58 50.31 40.49C50.58 40.39 50.82 40.26 51.04 40.1C51.26 39.95 51.42 39.77 51.55 39.58C51.67 39.38 51.73 39.19 51.73 39.01C51.73 38.85 51.68 38.71 51.58 38.6C51.48 38.49 51.32 38.43 51.1 38.43C50.9 38.43 50.71 38.47 50.52 38.56C50.33 38.64 50.15 38.74 49.99 38.87C49.82 38.99 49.67 39.12 49.54 39.26C49.41 39.4 49.31 39.52 49.25 39.63C49.11 40 48.98 40.36 48.85 40.7C48.71 41.05 48.58 41.36 48.46 41.64C48.34 41.92 48.23 42.15 48.13 42.32C48.03 42.5 47.94 42.61 47.88 42.65C47.84 42.68 47.79 42.69 47.74 42.69Z" fill="#3C4242" fill-opacity="1.000000" fill-rule="nonzero"/>
	<path d="M56.5 40.8C56.21 40.8 55.99 40.74 55.85 40.62C55.71 40.5 55.64 40.35 55.64 40.18C55.64 40.07 55.67 39.92 55.73 39.75C55.8 39.58 55.88 39.39 55.98 39.2C56.09 39.01 56.21 38.83 56.35 38.66C56.48 38.5 56.63 38.36 56.79 38.25C56.94 38.15 57.09 38.09 57.24 38.09C57.31 38.09 57.37 38.11 57.42 38.13C57.47 38.16 57.49 38.2 57.49 38.26C57.49 38.31 57.43 38.41 57.32 38.55C57.2 38.68 57.07 38.83 56.91 39.01C56.75 39.18 56.62 39.36 56.5 39.55C56.39 39.74 56.33 39.92 56.33 40.1C56.33 40.27 56.37 40.39 56.46 40.45C56.55 40.51 56.69 40.54 56.88 40.54C57.13 40.54 57.4 40.46 57.68 40.29C57.97 40.12 58.27 39.83 58.59 39.41L58.69 39.48C58.48 39.91 58.17 40.23 57.76 40.46C57.36 40.69 56.93 40.8 56.5 40.8ZM57.83 37.4C57.71 37.4 57.61 37.38 57.52 37.34C57.42 37.3 57.38 37.24 57.38 37.16C57.38 37.05 57.47 36.96 57.65 36.89C57.83 36.81 58.01 36.77 58.19 36.77C58.3 36.77 58.39 36.79 58.46 36.82C58.52 36.86 58.56 36.92 58.56 37C58.56 37.1 58.48 37.19 58.33 37.27C58.18 37.36 58.01 37.4 57.83 37.4Z" fill="#3C4242" fill-opacity="1.000000" fill-rule="nonzero"/>
	<path d="M59.33 40.95C59.01 40.95 58.76 40.89 58.59 40.77C58.42 40.64 58.33 40.46 58.33 40.22C58.33 40 58.4 39.73 58.52 39.41C58.64 39.09 58.79 38.76 58.98 38.43C58.91 38.42 58.84 38.41 58.77 38.4C58.7 38.39 58.64 38.38 58.58 38.37L58.58 38.23C58.64 38.24 58.71 38.24 58.79 38.25C58.87 38.25 58.97 38.26 59.07 38.26C59.23 38 59.39 37.74 59.57 37.49C59.75 37.24 59.92 37.02 60.1 36.82C60.27 36.62 60.44 36.47 60.6 36.35C60.76 36.24 60.9 36.18 61.01 36.18C61.07 36.18 61.12 36.19 61.17 36.22C61.22 36.25 61.24 36.29 61.24 36.34C61.24 36.42 61.16 36.56 61.01 36.75C60.85 36.94 60.66 37.17 60.43 37.43C60.2 37.69 59.97 37.98 59.76 38.29C59.83 38.29 59.89 38.29 59.97 38.29C60.04 38.29 60.1 38.29 60.17 38.29C60.42 38.29 60.67 38.28 60.95 38.28C61.22 38.27 61.49 38.26 61.76 38.24L61.76 38.38C61.36 38.41 60.99 38.43 60.67 38.44C60.35 38.46 60.06 38.46 59.8 38.46C59.77 38.46 59.75 38.46 59.72 38.46C59.69 38.46 59.67 38.46 59.64 38.46C59.47 38.73 59.32 39 59.2 39.27C59.08 39.55 59.02 39.82 59.02 40.08C59.02 40.3 59.07 40.45 59.17 40.54C59.27 40.63 59.42 40.68 59.65 40.68C60.03 40.68 60.41 40.56 60.78 40.34C61.16 40.11 61.48 39.8 61.76 39.41L61.91 39.48C61.73 39.76 61.51 40.01 61.24 40.23C60.96 40.45 60.67 40.63 60.34 40.76C60.01 40.89 59.67 40.95 59.33 40.95Z" fill="#3C4242" fill-opacity="1.000000" fill-rule="nonzero"/>
	<path d="M65.64 41.03C65.28 41.03 64.99 40.95 64.75 40.79C64.51 40.63 64.39 40.39 64.39 40.08C64.39 39.83 64.47 39.59 64.61 39.35C64.75 39.12 64.95 38.91 65.18 38.72C65.42 38.53 65.68 38.38 65.97 38.27C66.26 38.16 66.55 38.1 66.83 38.1C67.14 38.1 67.34 38.16 67.46 38.28C67.57 38.4 67.62 38.52 67.62 38.65C67.62 38.79 67.57 38.92 67.47 39.03C67.37 39.14 67.24 39.19 67.07 39.19C66.94 39.19 66.83 39.16 66.74 39.08C66.85 39.04 66.95 38.96 67.03 38.84C67.11 38.72 67.16 38.6 67.16 38.49C67.16 38.44 67.14 38.39 67.11 38.36C67.07 38.32 67.01 38.31 66.91 38.31C66.71 38.31 66.5 38.37 66.29 38.49C66.08 38.61 65.88 38.76 65.7 38.95C65.52 39.13 65.37 39.33 65.26 39.54C65.14 39.75 65.08 39.94 65.08 40.13C65.08 40.28 65.14 40.42 65.25 40.55C65.36 40.68 65.58 40.74 65.9 40.74C66.19 40.74 66.49 40.69 66.79 40.58C67.09 40.47 67.37 40.31 67.63 40.11C67.89 39.91 68.1 39.67 68.26 39.4L68.4 39.47C68.23 39.77 68 40.04 67.7 40.27C67.4 40.51 67.08 40.69 66.72 40.82C66.36 40.96 66 41.03 65.64 41.03Z" fill="#3C4242" fill-opacity="1.000000" fill-rule="nonzero"/>
	<path d="M68.97 40.83C68.65 40.83 68.42 40.76 68.29 40.61C68.15 40.47 68.08 40.29 68.08 40.07C68.08 39.83 68.15 39.55 68.28 39.22C68.41 38.9 68.59 38.55 68.81 38.19C69.03 37.83 69.27 37.48 69.53 37.13C69.79 36.79 70.05 36.47 70.31 36.19C70.57 35.91 70.81 35.68 71.03 35.52C71.24 35.35 71.42 35.26 71.54 35.26C71.62 35.26 71.69 35.29 71.74 35.36C71.8 35.42 71.84 35.49 71.87 35.58C71.9 35.67 71.91 35.74 71.91 35.81C71.91 35.95 71.86 36.12 71.76 36.34C71.66 36.55 71.52 36.79 71.34 37.06C71.16 37.32 70.94 37.59 70.69 37.86C70.44 38.13 70.17 38.39 69.88 38.63C69.59 38.88 69.28 39.09 68.95 39.27C68.9 39.41 68.87 39.54 68.84 39.66C68.82 39.79 68.8 39.91 68.8 40.02C68.8 40.22 68.84 40.36 68.93 40.45C69.01 40.55 69.13 40.6 69.29 40.6C69.49 40.6 69.69 40.54 69.89 40.42C70.09 40.3 70.27 40.15 70.45 39.97C70.62 39.79 70.77 39.6 70.9 39.41L71.06 39.47C70.77 39.89 70.44 40.22 70.09 40.47C69.75 40.71 69.37 40.83 68.97 40.83ZM69.05 39.02C69.31 38.85 69.56 38.65 69.81 38.42C70.05 38.2 70.28 37.96 70.49 37.72C70.7 37.48 70.89 37.24 71.05 37.02C71.22 36.79 71.34 36.59 71.43 36.4C71.52 36.22 71.57 36.08 71.57 35.99C71.57 35.94 71.56 35.9 71.54 35.89C71.52 35.87 71.5 35.87 71.49 35.87C71.43 35.87 71.33 35.93 71.18 36.06C71.04 36.18 70.87 36.35 70.68 36.56C70.48 36.78 70.29 37.02 70.09 37.29C69.88 37.56 69.69 37.85 69.51 38.15C69.33 38.44 69.18 38.73 69.05 39.02Z" fill="#3C4242" fill-opacity="1.000000" fill-rule="nonzero"/>
	<path d="M71.21 40.96C70.98 40.96 70.78 40.91 70.62 40.81C70.47 40.71 70.39 40.55 70.39 40.34C70.39 40.16 70.44 39.97 70.56 39.77C70.68 39.56 70.85 39.36 71.05 39.16C71.26 38.96 71.5 38.78 71.76 38.61C72.02 38.44 72.3 38.31 72.6 38.21C72.89 38.11 73.18 38.06 73.47 38.06C73.76 38.06 74 38.11 74.19 38.22C74.39 38.32 74.48 38.45 74.48 38.62C74.48 38.74 74.43 38.83 74.33 38.87C74.23 38.92 74.1 38.94 73.94 38.94C73.95 38.9 73.97 38.86 73.98 38.81C73.99 38.76 73.99 38.72 73.99 38.68C73.99 38.57 73.95 38.47 73.87 38.39C73.79 38.31 73.65 38.27 73.45 38.27C73.24 38.27 73.03 38.31 72.81 38.41C72.6 38.51 72.39 38.63 72.19 38.8C71.99 38.96 71.81 39.13 71.65 39.32C71.5 39.51 71.38 39.69 71.29 39.88C71.2 40.06 71.15 40.22 71.15 40.37C71.15 40.56 71.25 40.66 71.45 40.66C71.62 40.66 71.81 40.6 72.01 40.5C72.21 40.39 72.42 40.25 72.63 40.09C72.84 39.92 73.04 39.75 73.24 39.57C73.43 39.39 73.6 39.23 73.75 39.08C73.78 39.05 73.8 39.04 73.8 39.04C73.85 39.04 73.91 39.05 73.98 39.07C74.05 39.08 74.11 39.1 74.16 39.13C74.21 39.15 74.24 39.18 74.24 39.22C74.24 39.27 74.21 39.33 74.14 39.41C74.07 39.48 74 39.57 73.92 39.67C73.83 39.77 73.76 39.87 73.69 39.97C73.63 40.07 73.59 40.17 73.59 40.26C73.59 40.33 73.62 40.4 73.68 40.47C73.74 40.55 73.84 40.58 73.97 40.58C74.17 40.58 74.44 40.48 74.76 40.29C75.09 40.09 75.42 39.8 75.75 39.41L75.87 39.48C75.71 39.75 75.51 39.99 75.26 40.19C75.02 40.39 74.76 40.55 74.48 40.66C74.2 40.78 73.93 40.83 73.66 40.83C73.38 40.83 73.18 40.78 73.05 40.67C72.92 40.56 72.86 40.44 72.86 40.31C72.86 40.28 72.86 40.25 72.87 40.21C72.88 40.18 72.88 40.14 72.89 40.1C72.57 40.39 72.28 40.6 72.02 40.74C71.75 40.89 71.48 40.96 71.21 40.96Z" fill="#3C4242" fill-opacity="1.000000" fill-rule="nonzero"/>
	<path d="M76.7 40.99C76.35 40.99 76.07 40.94 75.87 40.84C75.67 40.74 75.52 40.61 75.44 40.46C75.35 40.31 75.31 40.16 75.31 40.02C75.31 39.87 75.34 39.75 75.4 39.67C75.46 39.6 75.53 39.54 75.61 39.5C75.7 39.46 75.78 39.43 75.86 39.41C75.94 39.39 75.99 39.37 76.02 39.35C76.24 39.18 76.45 39.01 76.63 38.84C76.82 38.66 76.98 38.47 77.12 38.27L77.12 38.18C77.12 38 77.17 37.87 77.26 37.79C77.36 37.72 77.45 37.68 77.56 37.68C77.62 37.68 77.66 37.69 77.69 37.71C77.72 37.73 77.74 37.75 77.74 37.77C77.74 37.8 77.72 37.84 77.7 37.89C77.68 37.95 77.67 38.02 77.67 38.1C77.67 38.26 77.72 38.44 77.81 38.63C77.91 38.82 78.01 39.02 78.1 39.23C78.2 39.44 78.25 39.66 78.25 39.89C78.25 39.95 78.24 40.02 78.23 40.08C78.22 40.14 78.2 40.2 78.18 40.25C78.44 40.22 78.68 40.15 78.92 40.02C79.15 39.89 79.37 39.69 79.58 39.41L79.68 39.49C79.54 39.76 79.33 39.97 79.05 40.11C78.77 40.25 78.46 40.34 78.12 40.37C78.01 40.59 77.82 40.74 77.56 40.84C77.31 40.94 77.02 40.99 76.7 40.99ZM76.72 40.73C76.81 40.73 76.93 40.71 77.08 40.67C77.23 40.63 77.34 40.53 77.42 40.37C77.11 40.33 76.84 40.24 76.59 40.12C76.35 40 76.17 39.87 76.05 39.75C75.89 39.76 75.81 39.84 75.81 40.01C75.81 40.19 75.89 40.35 76.05 40.5C76.21 40.65 76.43 40.73 76.72 40.73ZM77.48 40.25C77.49 40.2 77.51 40.15 77.51 40.09C77.52 40.04 77.52 39.97 77.52 39.9C77.52 39.66 77.48 39.43 77.4 39.2C77.31 38.97 77.24 38.76 77.18 38.55C77.01 38.74 76.83 38.92 76.64 39.09C76.45 39.26 76.27 39.41 76.1 39.52C76.21 39.68 76.38 39.83 76.62 39.96C76.85 40.1 77.14 40.2 77.48 40.25Z" fill="#3C4242" fill-opacity="1.000000" fill-rule="nonzero"/>
	<path d="M80.54 40.99C80.19 40.99 79.92 40.94 79.71 40.84C79.51 40.74 79.36 40.61 79.28 40.46C79.19 40.31 79.15 40.16 79.15 40.02C79.15 39.87 79.18 39.75 79.24 39.67C79.3 39.6 79.37 39.54 79.46 39.5C79.54 39.46 79.62 39.43 79.7 39.41C79.78 39.39 79.83 39.37 79.86 39.35C80.09 39.18 80.29 39.01 80.48 38.84C80.66 38.66 80.82 38.47 80.97 38.27L80.97 38.18C80.97 38 81.01 37.87 81.1 37.79C81.2 37.72 81.3 37.68 81.4 37.68C81.46 37.68 81.5 37.69 81.53 37.71C81.56 37.73 81.58 37.75 81.58 37.77C81.58 37.8 81.57 37.84 81.54 37.89C81.52 37.95 81.51 38.02 81.51 38.1C81.51 38.26 81.56 38.44 81.66 38.63C81.75 38.82 81.85 39.02 81.94 39.23C82.04 39.44 82.09 39.66 82.09 39.89C82.09 39.95 82.08 40.02 82.07 40.08C82.06 40.14 82.04 40.2 82.02 40.25C82.28 40.22 82.53 40.15 82.76 40.02C82.99 39.89 83.21 39.69 83.43 39.41L83.53 39.49C83.38 39.76 83.17 39.97 82.89 40.11C82.61 40.25 82.3 40.34 81.97 40.37C81.85 40.59 81.66 40.74 81.4 40.84C81.15 40.94 80.86 40.99 80.54 40.99ZM80.56 40.73C80.65 40.73 80.77 40.71 80.92 40.67C81.07 40.63 81.18 40.53 81.27 40.37C80.95 40.33 80.68 40.24 80.44 40.12C80.2 40 80.02 39.87 79.9 39.75C79.73 39.76 79.65 39.84 79.65 40.01C79.65 40.19 79.73 40.35 79.89 40.5C80.05 40.65 80.27 40.73 80.56 40.73ZM81.32 40.25C81.34 40.2 81.35 40.15 81.35 40.09C81.36 40.04 81.37 39.97 81.37 39.9C81.37 39.66 81.32 39.43 81.24 39.2C81.15 38.97 81.08 38.76 81.02 38.55C80.85 38.74 80.67 38.92 80.48 39.09C80.29 39.26 80.11 39.41 79.94 39.52C80.05 39.68 80.23 39.83 80.46 39.96C80.69 40.1 80.98 40.2 81.32 40.25Z" fill="#3C4242" fill-opacity="1.000000" fill-rule="nonzero"/>
	<path d="M83.7 42.69C83.51 42.69 83.35 42.66 83.2 42.59C83.06 42.52 82.99 42.43 82.99 42.3C82.99 42.14 83.05 42 83.17 41.87C83.29 41.75 83.45 41.64 83.65 41.53C83.85 41.43 84.08 41.33 84.34 41.23C84.6 41.14 84.87 41.05 85.15 40.95C85.26 40.77 85.36 40.57 85.47 40.34C85.58 40.12 85.68 39.87 85.78 39.59C85.54 39.85 85.29 40.07 85.01 40.26C84.74 40.44 84.46 40.54 84.15 40.54C84.01 40.54 83.87 40.52 83.73 40.47C83.6 40.43 83.48 40.37 83.39 40.28C83.3 40.19 83.26 40.07 83.26 39.94C83.26 39.8 83.3 39.64 83.37 39.45C83.44 39.27 83.52 39.09 83.63 38.92C83.73 38.75 83.84 38.6 83.95 38.49C84.06 38.37 84.16 38.32 84.24 38.32C84.27 38.32 84.32 38.32 84.4 38.34C84.48 38.35 84.55 38.38 84.63 38.4C84.7 38.43 84.73 38.46 84.73 38.49C84.66 38.55 84.59 38.64 84.51 38.76C84.43 38.88 84.35 39.01 84.27 39.16C84.19 39.31 84.13 39.45 84.07 39.59C84.02 39.72 84 39.84 84 39.94C84 40.03 84.03 40.1 84.09 40.16C84.14 40.21 84.25 40.24 84.4 40.24C84.54 40.24 84.7 40.19 84.87 40.1C85.04 40.01 85.22 39.89 85.39 39.75C85.57 39.61 85.73 39.45 85.88 39.29C85.9 39.23 85.92 39.18 85.94 39.12C85.96 39.07 85.98 39.01 85.99 38.95C86.01 38.88 86.07 38.8 86.15 38.71C86.24 38.62 86.37 38.57 86.56 38.57C86.59 38.57 86.63 38.57 86.67 38.57C86.71 38.58 86.75 38.58 86.79 38.59C86.79 38.67 86.76 38.82 86.69 39.03C86.61 39.25 86.51 39.5 86.38 39.79C86.25 40.07 86.1 40.37 85.92 40.67C86.27 40.58 86.61 40.43 86.95 40.23C87.28 40.02 87.55 39.75 87.76 39.41L87.9 39.48C87.79 39.72 87.62 39.93 87.4 40.1C87.17 40.28 86.92 40.43 86.63 40.56C86.35 40.68 86.07 40.79 85.8 40.87C85.61 41.19 85.4 41.49 85.17 41.76C84.94 42.04 84.71 42.26 84.46 42.43C84.21 42.6 83.95 42.69 83.7 42.69ZM83.64 42.45C83.75 42.45 83.94 42.35 84.2 42.16C84.46 41.96 84.75 41.62 85.04 41.13C84.74 41.24 84.46 41.35 84.2 41.45C83.94 41.56 83.73 41.67 83.57 41.8C83.42 41.92 83.34 42.07 83.34 42.23C83.34 42.27 83.36 42.32 83.41 42.37C83.45 42.42 83.53 42.45 83.64 42.45Z" fill="#3C4242" fill-opacity="1.000000" fill-rule="nonzero"/>
	<path d="M87.99 40.68C87.9 40.68 87.81 40.67 87.74 40.64C87.67 40.6 87.64 40.55 87.64 40.48C87.64 40.43 87.67 40.38 87.74 40.33C87.8 40.29 87.89 40.25 87.99 40.22C88.09 40.19 88.19 40.18 88.28 40.18C88.37 40.18 88.44 40.19 88.49 40.22C88.55 40.24 88.57 40.29 88.57 40.36C88.57 40.41 88.54 40.46 88.49 40.51C88.43 40.56 88.36 40.6 88.27 40.63C88.18 40.67 88.09 40.68 87.99 40.68Z" fill="#3C4242" fill-opacity="1.000000" fill-rule="nonzero"/>
</svg>
