<svg width="18" height="18" viewBox="0 0 18 18" fill="none" xmlns="http://www.w3.org/2000/svg">
<g id="Insta">
<path id="Vector" d="M12.1043 2.18412C13.0477 2.18683 13.9516 2.54891 14.6187 3.19127C15.2857 3.83362 15.6617 4.70407 15.6646 5.6125V12.4685C15.6617 13.377 15.2857 14.2474 14.6187 14.8898C13.9516 15.5321 13.0477 15.8942 12.1043 15.8969H4.9846C4.04123 15.8942 3.1373 15.5321 2.47024 14.8898C1.80317 14.2474 1.42717 13.377 1.42436 12.4685V5.6125C1.42717 4.70407 1.80317 3.83362 2.47024 3.19127C3.1373 2.54891 4.04123 2.18683 4.9846 2.18412H12.1043ZM12.1043 0.812988H4.9846C2.24328 0.812988 0.000488281 2.97271 0.000488281 5.6125V12.4685C0.000488281 15.1083 2.24328 17.268 4.9846 17.268H12.1043C14.8456 17.268 17.0884 15.1083 17.0884 12.4685V5.6125C17.0884 2.97271 14.8456 0.812988 12.1043 0.812988Z" fill="white"/>
<path id="Vector_2" d="M13.1723 5.61255C12.9611 5.61255 12.7546 5.55223 12.579 5.43922C12.4033 5.32622 12.2664 5.16559 12.1856 4.97767C12.1048 4.78975 12.0836 4.58296 12.1248 4.38347C12.166 4.18397 12.2677 4.00072 12.4171 3.85689C12.5665 3.71306 12.7568 3.61511 12.9639 3.57543C13.1711 3.53574 13.3859 3.55611 13.581 3.63395C13.7762 3.71179 13.943 3.84361 14.0603 4.01273C14.1777 4.18186 14.2403 4.3807 14.2403 4.5841C14.2406 4.71924 14.2132 4.85311 14.1596 4.97802C14.106 5.10292 14.0274 5.21641 13.9282 5.31197C13.8289 5.40753 13.7111 5.48327 13.5814 5.53485C13.4516 5.58643 13.3126 5.61284 13.1723 5.61255ZM8.54444 6.29793C9.10775 6.29793 9.6584 6.45878 10.1268 6.76014C10.5951 7.06151 10.9602 7.48985 11.1758 7.991C11.3913 8.49215 11.4477 9.0436 11.3378 9.57562C11.2279 10.1076 10.9567 10.5963 10.5584 10.9799C10.16 11.3635 9.65256 11.6247 9.10008 11.7305C8.5476 11.8363 7.97494 11.782 7.45452 11.5744C6.93409 11.3668 6.48928 11.0153 6.17632 10.5643C5.86337 10.1133 5.69633 9.583 5.69633 9.04056C5.69714 8.31341 5.99747 7.61626 6.53142 7.10208C7.06537 6.58791 7.78933 6.29871 8.54444 6.29793ZM8.54444 4.9268C7.69953 4.9268 6.87358 5.16806 6.17106 5.62009C5.46854 6.07212 4.92098 6.7146 4.59765 7.46629C4.27431 8.21798 4.18971 9.04512 4.35455 9.84311C4.51938 10.6411 4.92625 11.3741 5.5237 11.9494C6.12114 12.5247 6.88234 12.9165 7.71102 13.0753C8.53971 13.234 9.39866 13.1525 10.1793 12.8412C10.9599 12.5298 11.6271 12.0025 12.0965 11.326C12.5659 10.6495 12.8164 9.85418 12.8164 9.04056C12.8164 7.94952 12.3663 6.90317 11.5652 6.13169C10.764 5.36021 9.67744 4.9268 8.54444 4.9268Z" fill="white"/>
</g>
</svg>
