<svg width="19" height="16" viewBox="0 0 19 16" fill="none" xmlns="http://www.w3.org/2000/svg">
<g id="Twiter">
<path id="Vector" d="M18.4848 2.4523C17.798 2.75071 17.0713 2.94731 16.3278 3.03588C17.1092 2.57831 17.6969 1.85138 17.9805 0.991431C17.2417 1.42343 16.4348 1.72654 15.5943 1.88778C15.2404 1.51686 14.8147 1.22178 14.3432 1.02047C13.8717 0.819173 13.3642 0.715856 12.8515 0.716803C10.7757 0.716803 9.09594 2.3722 9.09594 4.41283C9.09447 4.69667 9.12699 4.97967 9.19282 5.25578C7.70438 5.18601 6.24688 4.8063 4.91359 4.14097C3.58029 3.47564 2.40056 2.53932 1.44985 1.39193C1.11632 1.9542 0.939937 2.59573 0.939124 3.24948C0.939124 4.53107 1.60777 5.66391 2.6174 6.32759C2.01922 6.3134 1.4333 6.15508 0.909372 5.86607V5.91184C0.909372 7.70455 2.20622 9.19592 3.92265 9.53539C3.59988 9.62144 3.26727 9.66503 2.93322 9.66508C2.6962 9.66549 2.45971 9.6425 2.2272 9.59642C2.70437 11.0649 4.09314 12.1329 5.73824 12.1634C4.40148 13.1936 2.76029 13.7504 1.07262 13.7463C0.773057 13.7459 0.473769 13.7281 0.17627 13.6929C1.89314 14.7893 3.88887 15.3691 5.9259 15.3636C12.8435 15.3636 16.6226 9.72992 16.6226 4.84384C16.6226 4.68364 16.6184 4.52344 16.6108 4.36706C17.3443 3.84529 17.9789 3.19688 18.4848 2.4523Z" fill="white"/>
</g>
</svg>
