<svg id="Слой_1" data-name="Слой 1" xmlns="http://www.w3.org/2000/svg" viewBox="0 0 1000 303.79"><defs><style>.cls-1,.cls-2,.cls-3{fill-rule:evenodd;}.cls-2{fill:#ffda44;}.cls-3{fill:#338af3;}</style></defs><path d="M121.52,164.28l27.49-.75q2,8.7,17.23,8.7,6.4,0,9.94-2c2.42-1.36,3.64-3.22,3.64-5.59q0-4.83-8.06-6.44l-19.1-3.65q-14.25-2.81-20.76-7.74t-6.51-14.5A19.42,19.42,0,0,1,129.58,120q8.94-12.14,35.11-12.14,15.9,0,24.52,3Q198.59,114,203,121.6a22.71,22.71,0,0,1,2.65,8.38l-27.28,1.5a7.38,7.38,0,0,0-3.42-4.73,11.2,11.2,0,0,0-5-1.93,39.09,39.09,0,0,0-5.41-.32q-12.26,0-12.25,6,0,3.12,3.31,4.62t12.81,3.33l9.82,1.94c2.51.5,4.2.85,5.08,1.07a49.72,49.72,0,0,1,5.08,1.29,31.61,31.61,0,0,1,5.63,1.82,41.11,41.11,0,0,1,4.75,2.69A13.56,13.56,0,0,1,203.2,151a19.92,19.92,0,0,1,2.54,4.94A16.4,16.4,0,0,1,207,162.3a22.55,22.55,0,0,1-5,14.28q-10,12.57-39.75,12.57Q124.28,189.2,121.52,164.28Z" transform="translate(0 0)"/><path d="M301.05,186.94H272.79v-29.1H238.67v29.1h-28V111.11h28.15v27.61h34V111.11h28.26Z" transform="translate(0 0)"/><path d="M338.75,186.94H310.82V111.11h27.93Z" transform="translate(0 0)"/><path d="M435.28,186.94H412.1l-37-40.6v40.6H347.5V111.11h23.08l37.21,40v-40h27.49Z" transform="translate(0 0)"/><path d="M531.23,111.11,495.9,164.39v22.55H468.18V164.39l-35.77-53.28H465l17,30.18,17-30.18Z" transform="translate(0 0)"/><path d="M672.88,111.11h44.28a88.2,88.2,0,0,1,15.89,1.29,38.85,38.85,0,0,1,11.49,3.76,33.61,33.61,0,0,1,7.28,4.94,34.33,34.33,0,0,1,5.3,5.8q6.86,9.56,6.85,23,0,22.66-17,31.68a46.44,46.44,0,0,1-11.05,4.19A65.09,65.09,0,0,1,722.34,187H672.88Zm27.27,58.65h14.69a27.44,27.44,0,0,0,10.49-1.83,18.58,18.58,0,0,0,6.62-4.29,15.92,15.92,0,0,0,3.2-5.7,22,22,0,0,0,1.33-5.05,29.68,29.68,0,0,0,.22-3.65q0-10.74-7.18-16-5.41-4.08-15.57-4.08h-13.8Z" transform="translate(0 0)"/><path d="M796,186.94H768.11V111.11H796Z" transform="translate(0 0)"/><path d="M796.68,164.28l27.49-.75q2,8.7,17.22,8.7c4.27,0,7.59-.68,9.94-2S855,167,855,164.6q0-4.83-8.06-6.44l-19.1-3.65q-14.24-2.81-20.75-7.74t-6.52-14.5a19.35,19.35,0,0,1,4.2-12.24q8.94-12.14,35.11-12.14,15.9,0,24.51,3,9.39,3.1,13.8,10.74a22.34,22.34,0,0,1,2.65,8.38l-27.27,1.5a7.44,7.44,0,0,0-3.42-4.73,11.2,11.2,0,0,0-5-1.93,39.09,39.09,0,0,0-5.41-.32q-12.25,0-12.26,6c0,2.08,1.11,3.62,3.31,4.62s6.56,2.11,12.81,3.33l9.83,1.94c2.5.5,4.2.85,5.08,1.07s2.57.57,5.08,1.29a31.88,31.88,0,0,1,5.63,1.82,42.64,42.64,0,0,1,4.75,2.69,13.65,13.65,0,0,1,4.41,3.76,19.59,19.59,0,0,1,2.54,4.94,16.23,16.23,0,0,1,1.22,6.34,22.55,22.55,0,0,1-5,14.28q-10,12.57-39.75,12.57Q799.44,189.2,796.68,164.28Z" transform="translate(0 0)"/><path d="M975.43,186.94H941.87l-20.43-28.67-9.71,9v19.65H885.89V111.11h26v28.36L938,111.11h33.9l-30.58,28.68Z" transform="translate(0 0)"/><path d="M1000,186.94H972.07V111.11H1000Z" transform="translate(0 0)"/><path class="cls-1" d="M623.53,171.88A56.84,56.84,0,0,0,634.2,152l.8-2.76H613.18l-.47,1.54a30.08,30.08,0,0,1-3.57,8L591,142.31h0c-4-3.63-5.54-6.82-5.54-9.38,0-3.17,2.26-5.3,5.55-5.3a6.19,6.19,0,0,1,6.47,5.91c0,.11,0,.21,0,.32V136h21.24v-2.16c0-14.17-12.17-24.85-28.25-24.85-15,0-26.87,9.45-26.89,23.17a24.59,24.59,0,0,0,3.9,13.25,28,28,0,0,0-9.37,7.39,20.57,20.57,0,0,0-4.33,13.06c0,14.82,13.49,24.44,30.54,24.44A57,57,0,0,0,609,184.24l5.21,4.52h28ZM579.26,170c1.83,1.23,4.68,2,8.42,2a16.22,16.22,0,0,0,6.12-1.11l-13.47-12a6.9,6.9,0,0,0-3.72,6.33A5.44,5.44,0,0,0,579.26,170Z" transform="translate(0 0)"/><path class="cls-2" d="M152.32,279.67c-69.45,0-125.95-55-128.13-123.66H.06c2.18,82,69.55,147.78,152.26,147.78a152.38,152.38,0,0,0,142.74-98.73H268.93A128.23,128.23,0,0,1,152.32,279.67Z" transform="translate(0 0)"/><path class="cls-3" d="M24.19,156c0-1.37-.07-2.73-.07-4.11,0-70.54,57.37-127.77,128.2-127.77A128.23,128.23,0,0,1,267.66,96.05H294A152.37,152.37,0,0,0,152.32,0C68.23,0,0,68,0,151.9Q0,154,.06,156Z" transform="translate(0 0)"/></svg>