<svg width="91.534180" height="45.000000" viewBox="0 0 91.5342 45" fill="none" xmlns="http://www.w3.org/2000/svg" xmlns:xlink="http://www.w3.org/1999/xlink">
	<desc>
			Created with Pixso.
	</desc>
	<defs/>
	<path id="Euphoria" d="M3.10226 27.6977C3.36838 27.6478 3.66777 27.6145 4.00042 27.6145C4.05032 25.8681 5.04827 22.974 6.11276 19.9802C5.1148 19.8305 4.26654 19.8305 3.75093 20.1798C3.38501 18.7327 4.76552 18.45 6.66164 18.4832C7.64296 15.7056 8.59102 12.9945 8.79061 11.1815C7.21051 11.0817 5.81337 11.248 4.93185 12.246C4.64909 12.5454 3.88399 8.76978 7.34357 8.13774C10.1545 7.62213 16.1422 9.91743 18.0217 7.27285C18.3045 6.8903 18.5373 10.3499 16.6578 11.2813C15.4603 11.8634 13.8802 11.7969 12.2336 11.5973C12.0007 13.1941 11.1358 15.8386 10.2376 18.7161C12.2003 18.8491 13.9301 18.8325 14.296 17.9011C14.8781 21.3773 12.3999 21.2609 9.63887 20.6954C8.87377 23.2568 8.15857 25.8515 7.89245 27.9638C10.3042 28.2466 12.7159 28.3464 13.7804 26.8328C14.0631 26.4502 14.296 29.9098 12.4165 30.8246C9.12326 32.4546 3.05236 29.1281 0.690531 31.7893C0.407777 32.0887 -0.357323 28.3131 3.10226 27.6977ZM17.1235 17.4686C17.1069 17.4021 20.7994 17.0695 20.7328 19.1984C20.6829 20.5623 17.4895 27.548 18.1548 29.7934C19.7848 27.7143 24.1259 17.4686 24.1259 17.4686C24.1092 17.4021 27.8017 17.0695 27.7185 19.1984C27.6686 20.5789 24.8743 26.1509 25.1571 29.8932C26.4378 28.546 27.9846 24.8369 28.2674 24.1383C28.3007 24.0718 28.3672 24.0385 28.4337 24.0385C28.5668 24.0385 28.6499 24.1549 28.6167 24.2714C28.2175 25.5022 26.5542 30.5751 25.6893 31.0907C24.6914 31.7061 21.9803 30.6749 21.7308 29.5439C21.2484 27.4482 23.2776 22.4584 23.9595 19.4479C22.6289 22.9241 19.5519 30.7248 18.4874 31.1905C17.5061 31.6064 14.8449 30.7581 14.6287 29.4275C14.2295 27.0158 17.6392 19.398 17.1235 17.4686ZM24.5251 39.2241C23.8431 35.0327 30.1968 20.9282 29.5315 17.4354C29.5148 17.3688 33.357 17.4354 33.1241 19.5477C32.9079 21.5603 30.0471 29.494 28.6998 35.3986C31.1116 26.4502 35.7521 17.9842 36.4673 17.5684C37.1159 17.1859 39.1119 17.7514 39.9268 19.1818C41.0246 21.1112 38.696 30.4254 34.8373 31.2072C33.9724 31.3901 31.9266 30.1094 31.5108 29.5938C30.0803 33.2696 28.7497 37.3779 28.1177 41.1701C28.1177 41.1701 28.1177 41.1701 28.1177 41.1701C28.0345 41.5693 24.8078 40.9539 24.5251 39.2241ZM36.8166 18.6163C36.6003 18.5331 34.0389 23.1736 31.6937 29.1115C34.7707 30.8413 37.5983 18.9323 36.8166 18.6163ZM39.5942 29.2944C38.9123 25.0864 45.3491 10.4996 44.9166 7.38928C44.9 7.32274 48.4261 7.5057 48.1933 9.61805C47.9604 11.7969 44.584 20.9781 43.453 26.9659C45.0663 22.974 47.8772 17.269 49.4906 17.4187C50.422 17.5019 52.3015 18.3834 52.4678 18.9489C52.9335 20.5124 49.6736 27.6478 49.607 30.0096C50.9044 28.7622 52.5344 24.8535 52.8171 24.1383C52.8504 24.0718 52.9169 24.0385 52.9834 24.0385C53.1165 24.0385 53.1997 24.1549 53.1664 24.2714C52.7672 25.5022 50.9376 31.1406 50.2058 31.2404C48.7588 31.44 46.3138 30.3922 46.1142 29.0782C45.8647 27.2985 48.7089 21.527 48.9916 18.7327C48.16 18.5997 43.1536 28.6125 43.1868 31.1905C43.2866 31.6562 39.8936 31.0575 39.5942 29.2944ZM52.6175 29.0616C51.6362 26.2839 53.865 19.3315 56.3765 17.7181C57.2414 17.1526 59.5866 17.3023 60.3351 17.8013C60.9837 18.2171 60.5679 18.6163 60.5679 18.6163C57.8568 17.3522 54.6633 29.1281 55.9108 30.2757C57.3578 31.6064 60.8008 20.712 58.7217 20.2795C58.7217 20.2795 59.6864 18.9157 60.518 19.0155C63.3955 19.398 61.2166 29.178 57.1915 31.0741C56.0937 31.5897 53.4824 31.4899 52.6175 29.0616ZM61.333 29.4607C60.9006 26.8162 64.1772 19.3648 63.645 17.4354C63.6283 17.3688 67.5203 17.0695 67.4538 19.1984C67.4039 20.396 65.2916 24.7537 64.9257 28.3297C66.1897 24.4044 69.0838 17.2524 70.8801 17.4187C71.8116 17.5019 73.4416 18.267 73.6079 18.8159C73.8241 19.5477 71.5953 23.0406 72.1941 25.2028C67.2376 24.9866 70.4477 19.3814 70.3812 18.7327C69.5495 18.5997 65.092 28.5127 65.1086 31.1074C65.1253 31.2072 65.0088 31.2737 64.9257 31.2571C64.2105 31.1739 61.5492 30.7914 61.333 29.4607ZM78.5644 17.1692C73.8075 16.5372 76.8346 13.8594 76.635 12.0963C81.7911 12.9279 78.1486 14.7076 78.5644 17.1692ZM72.1775 29.4607C71.7118 26.916 75.1381 19.3648 74.6225 17.4354C74.6058 17.3688 78.4646 17.0695 78.3981 19.1984C78.3482 20.5789 75.5872 26.0677 75.82 29.81C77.0841 28.3963 78.581 24.8202 78.8638 24.1383C78.8804 24.0718 78.9469 24.0385 79.0301 24.0385C79.1465 24.0385 79.2297 24.1549 79.1964 24.2714C78.8139 25.5022 77.0009 30.8246 76.2026 31.2072C75.3876 31.5731 72.3937 30.7082 72.1775 29.4607ZM82.1238 31.1905C81.525 31.6064 78.8305 30.8745 78.2151 29.7601C77.4167 28.3297 79.4127 21.0779 81.2422 18.7327C82.6727 16.9198 85.7663 17.3688 86.4982 17.8013C86.6811 17.9011 86.7476 18.0009 86.6479 18.2836C86.5314 18.5997 86.2986 18.5331 85.9326 18.4333C84.0698 17.951 81.2755 28.1634 81.4585 30.2425L87.3963 17.6017C87.5959 17.0528 91.122 17.9676 90.7894 18.6662C90.4567 19.3648 88.0284 27.6478 87.9618 30.0096C89.2592 28.7622 90.9058 24.8535 91.1885 24.1383C91.2218 24.0718 91.2883 24.0385 91.3549 24.0385C91.4713 24.0385 91.5711 24.1549 91.5212 24.2714C91.1386 25.5022 89.3091 31.1406 88.5772 31.2404C87.1136 31.44 84.6686 30.3922 84.4856 29.0782C84.3193 27.9638 85.2341 24.5209 86.0823 21.6933C84.6187 25.4856 82.4564 30.9577 82.1238 31.1905Z" fill="#3C4242" fill-opacity="1.000000" fill-rule="evenodd"/>
	<path id="Vector" d="M0.209961 33.6259L22.6133 33.6259" stroke="#333333" stroke-opacity="1.000000" stroke-width="0.420324" stroke-linejoin="round" stroke-linecap="round"/>
	<path id="Vector" d="M32.1958 33.6259L91.2461 33.6259" stroke="#3C4242" stroke-opacity="1.000000" stroke-width="0.420324" stroke-linejoin="round" stroke-linecap="round"/>
	<path id="Vector" d="M40.1602 41.2617C39.9966 41.2617 39.8076 41.1972 39.5918 41.0689C39.377 40.9398 39.1479 40.7693 38.9067 40.5565C38.6655 40.3438 38.4282 40.1125 38.1938 39.8622C37.9604 39.6125 37.7446 39.3636 37.5479 39.1155C37.3511 38.8682 37.186 38.6477 37.0522 38.4549L35.9722 40.7862C35.9199 40.8999 35.8389 40.9806 35.7275 41.0274C35.6157 41.0742 35.4951 41.1027 35.3657 41.1127C35.2358 41.1227 35.1074 41.1273 34.9814 41.1273C35.0776 40.989 35.1768 40.83 35.2764 40.6518C35.377 40.4736 35.4951 40.2585 35.6328 40.0058C35.7705 39.7531 35.9316 39.4466 36.1177 39.0848C36.3032 38.7238 36.5239 38.2913 36.7803 37.7889C37.0361 37.2866 37.3389 36.6967 37.6885 36.0184C37.7104 35.9785 37.7407 35.9232 37.7773 35.8517C37.8145 35.7803 37.8335 35.7142 37.8335 35.6551C37.8335 35.6005 37.8149 35.5575 37.7773 35.5253C37.7407 35.493 37.6699 35.4769 37.5664 35.4769C37.3882 35.4769 37.2153 35.5253 37.0483 35.6213C36.8818 35.7173 36.7329 35.8402 36.603 35.9892C36.4731 36.1375 36.3711 36.2911 36.2964 36.4493C36.2222 36.6076 36.1851 36.7489 36.1851 36.8726C36.1851 36.967 36.2036 37.0508 36.2402 37.1253C35.9956 37.1253 35.8228 37.0846 35.7227 37.0031C35.6221 36.9217 35.5723 36.8211 35.5723 36.702C35.5723 36.5338 35.646 36.3656 35.7949 36.1974C35.9434 36.0291 36.1343 35.874 36.3687 35.7334C36.603 35.5921 36.8481 35.4799 37.104 35.3954C37.3594 35.3117 37.5918 35.2695 37.7998 35.2695C38 35.2695 38.1353 35.3063 38.2061 35.3809C38.2769 35.4554 38.312 35.5368 38.312 35.6259C38.312 35.6804 38.3027 35.735 38.2847 35.7895C38.2661 35.844 38.2451 35.8963 38.2231 35.9454L37.2876 37.9648C37.3911 37.8658 37.5269 37.7744 37.6938 37.6898C37.8604 37.6061 38.0449 37.5093 38.2451 37.4003C38.5796 37.2221 38.9375 37.0139 39.3198 36.7766C39.7026 36.5392 40.0679 36.2888 40.417 36.0269C40.7656 35.7642 41.0552 35.5122 41.2856 35.2695C41.3223 35.2994 41.3486 35.3509 41.3638 35.4254C41.3784 35.4999 41.3862 35.5568 41.3862 35.5959C41.3862 35.7495 41.2915 35.9178 41.1021 36.1006C40.9121 36.2834 40.6655 36.4731 40.3613 36.6682C40.0571 36.8641 39.7231 37.0569 39.3589 37.2474C38.9951 37.4379 38.6372 37.6176 38.2847 37.7859C37.9316 37.9541 37.6138 38.1 37.332 38.2237C37.5547 38.4764 37.772 38.7161 37.9834 38.9442C38.1943 39.1716 38.4248 39.3943 38.6738 39.6125C38.9229 39.8307 39.2139 40.0534 39.5479 40.2808C39.8823 40.5081 40.2871 40.7532 40.7617 41.0159C40.7095 41.0804 40.6279 41.1372 40.5166 41.1864C40.4053 41.2371 40.2861 41.2617 40.1602 41.2617Z" fill="#3C4242" fill-opacity="1.000000" fill-rule="nonzero"/>
	<path id="Vector" d="M46.1191 40.9796C45.666 40.9796 45.3306 40.8882 45.1113 40.7046C44.8926 40.5218 44.7827 40.3013 44.7827 40.044C44.4634 40.3259 44.0962 40.5464 43.6807 40.7046C43.2651 40.8628 42.8447 40.942 42.4224 40.942C41.9692 40.942 41.6294 40.859 41.4028 40.6931C41.1763 40.5272 41.0635 40.3228 41.0635 40.0809C41.0635 39.8581 41.147 39.623 41.314 39.3757C41.4814 39.1284 41.7041 38.8956 41.9819 38.6775C42.2603 38.4601 42.5669 38.2827 42.9009 38.1467C43.2349 38.0107 43.5654 37.9424 43.8926 37.9424C44.063 37.9424 44.2212 37.9724 44.3657 38.0315C44.5107 38.0906 44.583 38.212 44.583 38.3956C44.583 38.5838 44.4995 38.7604 44.3325 38.9264C44.166 39.0923 43.9463 39.2398 43.6758 39.368C43.4048 39.4971 43.1074 39.6016 42.7847 39.6837C42.4624 39.7659 42.1406 39.8159 41.8218 39.8358C41.8071 39.8858 41.7954 39.9326 41.7876 39.9772C41.7803 40.0217 41.7764 40.064 41.7764 40.1031C41.7764 40.2022 41.8022 40.2998 41.8545 40.3966C41.9062 40.4933 41.9951 40.5725 42.1221 40.6339C42.248 40.6961 42.4263 40.7269 42.6567 40.7269C43.0498 40.7269 43.4399 40.6339 43.8267 40.4488C44.2119 40.2629 44.5498 40.034 44.8398 39.7621C44.9062 39.5593 45.0254 39.3565 45.1958 39.153C45.3667 38.9502 45.5732 38.7658 45.8145 38.5999C46.0557 38.434 46.3174 38.3003 46.5996 38.1989C46.8813 38.0975 47.168 38.0468 47.4575 38.0468C47.6279 38.0468 47.7861 38.0768 47.9307 38.136C48.0752 38.1951 48.1479 38.3165 48.1479 38.5001C48.1479 38.7528 48.0195 38.974 47.7637 39.1645C47.5083 39.355 47.1792 39.5071 46.7783 39.6215C46.3774 39.7352 45.9658 39.8074 45.5425 39.8366C45.5278 39.8865 45.5161 39.9334 45.5088 39.9779C45.501 40.0225 45.4971 40.0647 45.4971 40.1039C45.4971 40.203 45.521 40.3044 45.5693 40.4081C45.6177 40.5118 45.7031 40.597 45.8252 40.6639C45.9482 40.7307 46.124 40.7637 46.3545 40.7637C46.6738 40.7637 46.9927 40.7007 47.312 40.5748C47.6318 40.4488 47.9282 40.2829 48.2031 40.077C48.4785 39.8719 48.708 39.6499 48.894 39.4126L49.0273 39.4794C48.8271 39.7767 48.5688 40.0378 48.2534 40.2629C47.9375 40.488 47.5967 40.6639 47.2285 40.7899C46.8599 40.9166 46.4902 40.9796 46.1191 40.9796ZM41.876 39.6945C42.0767 39.6499 42.3032 39.5847 42.5552 39.4979C42.8081 39.411 43.0508 39.3089 43.2852 39.1898C43.519 39.0708 43.7119 38.9402 43.8643 38.7965C44.0161 38.6529 44.0923 38.5023 44.0923 38.3434C44.0923 38.2888 44.0776 38.2466 44.0479 38.2174C44.0176 38.1874 43.9546 38.1728 43.8589 38.1728C43.6807 38.1728 43.4907 38.2189 43.2905 38.3103C43.0898 38.4017 42.897 38.5215 42.7109 38.6706C42.5254 38.8188 42.3584 38.9824 42.2095 39.1606C42.0615 39.3381 41.9497 39.5163 41.876 39.6945ZM45.5962 39.6945C45.7969 39.6499 46.0156 39.5908 46.2539 39.5163C46.4912 39.4418 46.7178 39.3542 46.9336 39.2528C47.1484 39.1514 47.3267 39.0354 47.4683 38.9041C47.6089 38.7727 47.6792 38.6283 47.6792 38.4701C47.6792 38.4156 47.6611 38.3695 47.6235 38.3326C47.5864 38.2957 47.5195 38.2773 47.4229 38.2773C47.1855 38.2773 46.9458 38.3464 46.7046 38.4854C46.4634 38.6237 46.2446 38.8011 46.0474 39.0162C45.8506 39.2305 45.6997 39.4572 45.5962 39.6945Z" fill="#3C4242" fill-opacity="1.000000" fill-rule="nonzero"/>
	<path id="Vector" d="M47.9575 42.6948C47.8984 42.6948 47.8408 42.6741 47.7847 42.6318C47.7285 42.5896 47.6865 42.545 47.6562 42.4982C47.6265 42.4513 47.6118 42.4229 47.6118 42.4129C47.7153 42.1702 47.8179 41.9536 47.9185 41.7631C48.019 41.5726 48.1187 41.3767 48.2192 41.1762C48.3193 40.9757 48.4185 40.7407 48.5142 40.4711C48.6113 40.2014 48.7109 39.8658 48.8154 39.4648C48.9189 39.0638 49.0234 38.5661 49.1274 37.9723C49.1353 37.9278 49.1494 37.8955 49.1719 37.8755C49.1943 37.8556 49.2495 37.8456 49.3384 37.8456C49.5312 37.8456 49.6689 37.8817 49.751 37.9531C49.8325 38.0246 49.873 38.1029 49.873 38.1866C49.873 38.2558 49.8511 38.3794 49.8062 38.5576C49.7617 38.7358 49.6987 38.9463 49.6172 39.1891C49.7432 39.0254 49.9019 38.8595 50.0908 38.6913C50.2798 38.5231 50.4971 38.3817 50.7422 38.2681C50.9868 38.1544 51.2544 38.0975 51.5439 38.0975C51.8701 38.0975 52.1401 38.1759 52.3511 38.3311C52.5625 38.487 52.6685 38.6913 52.6685 38.944C52.6685 39.1368 52.603 39.3412 52.4731 39.5562C52.3438 39.7713 52.1616 39.9749 51.9277 40.1653C51.6943 40.3558 51.417 40.511 51.0981 40.6293C50.7788 40.7484 50.4263 40.8075 50.0405 40.8075C49.8472 40.8075 49.6919 40.7929 49.5728 40.763C49.4536 40.733 49.3945 40.7038 49.3945 40.6739C49.3945 40.6539 49.4224 40.6431 49.4785 40.64C49.5347 40.6378 49.5991 40.6362 49.6733 40.6362C49.9707 40.6362 50.2544 40.5878 50.5254 40.491C50.7964 40.3943 51.0391 40.2668 51.2549 40.1085C51.4702 39.9503 51.6392 39.7744 51.7622 39.5816C51.8843 39.3888 51.9458 39.1983 51.9458 39.0101C51.9458 38.8518 51.8955 38.7166 51.7949 38.6053C51.6953 38.4939 51.5332 38.4386 51.3105 38.4386C51.1177 38.4386 50.9263 38.4793 50.7368 38.5607C50.5469 38.6422 50.3687 38.7466 50.2021 38.8726C50.0347 38.9986 49.8862 39.1299 49.7563 39.2659C49.6265 39.4018 49.5283 39.5247 49.4614 39.633C49.3276 40.004 49.1943 40.362 49.0605 40.7061C48.9268 41.0502 48.7983 41.3621 48.6763 41.6417C48.5537 41.9213 48.4429 42.1502 48.3423 42.3284C48.2427 42.5066 48.1587 42.6157 48.0918 42.6549C48.0537 42.6825 48.0088 42.6948 47.9575 42.6948Z" fill="#3C4242" fill-opacity="1.000000" fill-rule="nonzero"/>
	<path id="Vector" d="M56.7119 40.8083C56.4224 40.8083 56.2061 40.7476 56.0659 40.6263C55.9243 40.5049 55.8545 40.3574 55.8545 40.1846C55.8545 40.0709 55.8857 39.9272 55.9487 39.7537C56.0117 39.5808 56.0957 39.3988 56.1992 39.2083C56.3032 39.0178 56.4238 38.838 56.561 38.6698C56.6987 38.5016 56.8452 38.3641 57.0015 38.2573C57.1572 38.1513 57.3096 38.0976 57.4585 38.0976C57.5254 38.0976 57.583 38.1114 57.6313 38.1383C57.6797 38.1652 57.7036 38.2066 57.7036 38.2604C57.7036 38.3195 57.646 38.4163 57.5308 38.55C57.4155 38.6837 57.2803 38.8373 57.124 39.0101C56.9683 39.1837 56.833 39.365 56.7178 39.5555C56.6025 39.746 56.5449 39.928 56.5449 40.1016C56.5449 40.2798 56.5894 40.3989 56.6787 40.458C56.7676 40.5172 56.9053 40.5471 57.0913 40.5471C57.3438 40.5471 57.6128 40.4634 57.8984 40.2944C58.1841 40.1262 58.4868 39.832 58.8066 39.4111L58.9062 39.4856C58.6914 39.9111 58.3809 40.2383 57.9761 40.4657C57.5703 40.6946 57.1494 40.8083 56.7119 40.8083ZM58.0474 37.4078C57.9282 37.4078 57.8232 37.3878 57.7305 37.3486C57.6372 37.3087 57.5913 37.2472 57.5913 37.1628C57.5913 37.0591 57.6816 36.9684 57.8638 36.8916C58.0459 36.8148 58.2256 36.7764 58.4038 36.7764C58.5151 36.7764 58.6045 36.794 58.6714 36.8286C58.7383 36.8632 58.771 36.9231 58.771 37.0068C58.771 37.1005 58.6948 37.1912 58.543 37.278C58.3916 37.3647 58.2266 37.4078 58.0474 37.4078Z" fill="#3C4242" fill-opacity="1.000000" fill-rule="nonzero"/>
	<path id="Vector" d="M59.5396 40.9573C59.2202 40.9573 58.9751 40.8951 58.8047 40.7714C58.6343 40.6478 58.5488 40.4649 58.5488 40.2222C58.5488 40.0048 58.6104 39.736 58.7324 39.4164C58.8545 39.0969 59.0088 38.7697 59.1948 38.4325C59.1201 38.4225 59.0503 38.414 58.9834 38.4063C58.917 38.3987 58.854 38.3879 58.7944 38.3733L58.7944 38.2397C58.854 38.2443 58.9243 38.2496 59.0059 38.2542C59.0874 38.2589 59.1802 38.2642 59.2837 38.2688C59.4399 38.0015 59.6074 37.7427 59.7847 37.493C59.9629 37.2434 60.1396 37.0206 60.314 36.8247C60.4883 36.6296 60.6558 36.4729 60.8154 36.357C60.9756 36.241 61.1104 36.1826 61.2222 36.1826C61.2812 36.1826 61.335 36.1964 61.3833 36.2233C61.4316 36.2502 61.4556 36.2917 61.4556 36.3454C61.4556 36.4299 61.3779 36.5667 61.2222 36.7579C61.0659 36.9484 60.873 37.175 60.6426 37.437C60.4121 37.6996 60.1895 37.9839 59.9746 38.2911C60.0415 38.2911 60.1099 38.2911 60.1802 38.2911C60.251 38.2911 60.3193 38.2911 60.3862 38.2911C60.6313 38.2911 60.8892 38.2888 61.1606 38.2834C61.4316 38.2788 61.7041 38.2658 61.9795 38.2466L61.9795 38.3802C61.5708 38.4102 61.2051 38.4325 60.8823 38.4471C60.5596 38.4616 60.272 38.4693 60.019 38.4693C59.9893 38.4693 59.9614 38.4693 59.9355 38.4693C59.9092 38.4693 59.8813 38.4693 59.8516 38.4693C59.6812 38.732 59.5356 39.0016 59.4175 39.2789C59.2983 39.5562 59.2393 39.8258 59.2393 40.0886C59.2393 40.3013 59.2876 40.4534 59.3838 40.5448C59.48 40.6362 59.6396 40.6823 59.8633 40.6823C60.2495 40.6823 60.6279 40.5686 60.999 40.3405C61.3701 40.1131 61.6968 39.8036 61.9795 39.4126L62.1235 39.4871C61.9453 39.7644 61.7202 40.014 61.4502 40.2368C61.1787 40.4596 60.8799 40.6355 60.5537 40.7637C60.2266 40.8928 59.8892 40.9573 59.5396 40.9573Z" fill="#3C4242" fill-opacity="1.000000" fill-rule="nonzero"/>
	<path id="Vector" d="M65.8555 41.031C65.499 41.031 65.2017 40.9519 64.9644 40.7937C64.7271 40.6355 64.6079 40.3981 64.6079 40.0809C64.6079 39.8335 64.6802 39.5923 64.8252 39.3565C64.9697 39.1215 65.1611 38.9102 65.3989 38.722C65.6362 38.5338 65.8999 38.3841 66.1895 38.2727C66.479 38.1613 66.7646 38.106 67.0474 38.106C67.3516 38.106 67.5601 38.1651 67.6714 38.2842C67.7827 38.4033 67.8379 38.5269 67.8379 38.6552C67.8379 38.7989 67.7881 38.9248 67.6875 39.0339C67.5874 39.143 67.4517 39.1975 67.2812 39.1975C67.1553 39.1975 67.0474 39.1606 66.9575 39.0861C67.0688 39.047 67.166 38.9663 67.2471 38.8449C67.3286 38.7236 67.3701 38.6083 67.3701 38.4993C67.3701 38.4401 67.353 38.394 67.3203 38.3618C67.2866 38.3295 67.2217 38.3134 67.125 38.3134C66.9248 38.3134 66.7188 38.3725 66.5068 38.4916C66.2954 38.6107 66.0981 38.7635 65.917 38.9517C65.7349 39.1399 65.5864 39.3381 65.4712 39.5455C65.356 39.7536 65.2983 39.9487 65.2983 40.1323C65.2983 40.2859 65.3545 40.4265 65.4658 40.5556C65.5771 40.6838 65.7925 40.7484 66.1118 40.7484C66.4092 40.7484 66.708 40.6938 67.0083 40.5847C67.3086 40.4757 67.5889 40.3198 67.8496 40.117C68.1089 39.9142 68.3174 39.6761 68.4731 39.4041L68.6177 39.4786C68.4473 39.7759 68.2129 40.0417 67.9165 40.2767C67.6191 40.5118 67.2925 40.6961 66.936 40.8298C66.5791 40.9642 66.2188 41.031 65.8555 41.031Z" fill="#3C4242" fill-opacity="1.000000" fill-rule="nonzero"/>
	<path id="Vector" d="M69.1855 40.8382C68.8657 40.8382 68.6377 40.7653 68.5005 40.6193C68.3628 40.4734 68.2944 40.2913 68.2944 40.0739C68.2944 39.8366 68.3613 39.5539 68.4951 39.2274C68.6284 38.901 68.8052 38.5569 69.0239 38.1951C69.2432 37.8341 69.4829 37.4815 69.7422 37.1366C70.002 36.7925 70.2617 36.4799 70.522 36.1972C70.7817 35.9153 71.0215 35.6894 71.2402 35.5212C71.459 35.353 71.6318 35.2685 71.7578 35.2685C71.8394 35.2685 71.9062 35.2992 71.9585 35.3615C72.0107 35.4236 72.0513 35.4974 72.0815 35.5842C72.1104 35.671 72.126 35.7486 72.126 35.8177C72.126 35.9514 72.0762 36.1257 71.9751 36.3416C71.8755 36.5566 71.7344 36.7971 71.5522 37.0621C71.3701 37.3271 71.1548 37.5944 70.9062 37.864C70.6572 38.1336 70.3862 38.3925 70.0933 38.6398C69.7998 38.8872 69.4902 39.0999 69.1631 39.2782C69.1187 39.4118 69.0835 39.5416 69.0571 39.6684C69.0312 39.7943 69.0181 39.9149 69.0181 40.0286C69.0181 40.2214 69.0586 40.3651 69.1401 40.4595C69.2217 40.5533 69.3442 40.6009 69.5083 40.6009C69.7085 40.6009 69.9077 40.5417 70.104 40.4227C70.3008 40.3036 70.4868 40.1538 70.6611 39.9733C70.8354 39.7928 70.9858 39.6061 71.1118 39.4126L71.2788 39.4717C70.9814 39.8927 70.6587 40.2253 70.3091 40.4703C69.9614 40.7161 69.5864 40.8382 69.1855 40.8382ZM69.2637 39.0262C69.5234 38.8526 69.7764 38.6537 70.021 38.4286C70.2661 38.2036 70.4941 37.9693 70.7065 37.7273C70.9185 37.4846 71.106 37.2495 71.2686 37.0222C71.4316 36.7948 71.5581 36.5905 71.6475 36.4099C71.7363 36.2294 71.7808 36.0896 71.7808 35.9905C71.7808 35.9414 71.772 35.9091 71.7534 35.8938C71.7349 35.8792 71.7178 35.8715 71.7036 35.8715C71.644 35.8715 71.542 35.9345 71.397 36.0605C71.2524 36.1864 71.0835 36.3562 70.8901 36.5689C70.6973 36.7817 70.5005 37.0244 70.2998 37.2964C70.0996 37.5683 69.9082 37.8533 69.7261 38.1505C69.5435 38.447 69.3896 38.7397 69.2637 39.0262Z" fill="#3C4242" fill-opacity="1.000000" fill-rule="nonzero"/>
	<path id="Vector" d="M71.4243 40.9642C71.1938 40.9642 70.9985 40.9135 70.8398 40.8121C70.6802 40.7107 70.6001 40.5563 70.6001 40.3482C70.6001 40.17 70.6592 39.9779 70.7783 39.7729C70.8965 39.5677 71.0601 39.3642 71.2686 39.1637C71.4766 38.9632 71.7124 38.7804 71.9756 38.6145C72.2393 38.4486 72.5176 38.3165 72.8115 38.2174C73.105 38.1183 73.396 38.0691 73.6855 38.0691C73.9751 38.0691 74.2163 38.1198 74.4092 38.2212C74.6021 38.3226 74.6987 38.4578 74.6987 38.626C74.6987 38.7497 74.6489 38.8342 74.5483 38.8787C74.4478 38.9233 74.3164 38.9456 74.1528 38.9456C74.1675 38.9056 74.1802 38.8626 74.1919 38.8157C74.2036 38.7689 74.209 38.7259 74.209 38.6859C74.209 38.5722 74.168 38.4747 74.0864 38.3925C74.0044 38.3111 73.8638 38.2704 73.6636 38.2704C73.4551 38.2704 73.2441 38.3188 73.0283 38.4148C72.813 38.5116 72.605 38.6398 72.4043 38.8011C72.2041 38.9625 72.0259 39.1368 71.8696 39.325C71.7139 39.5132 71.5918 39.6991 71.502 39.8819C71.4126 40.0647 71.3682 40.2283 71.3682 40.372C71.3682 40.5648 71.4683 40.6616 71.6694 40.6616C71.8398 40.6616 72.0259 40.6086 72.2261 40.5018C72.4268 40.3958 72.6328 40.2591 72.8447 40.0932C73.0557 39.9272 73.2588 39.7552 73.4512 39.577C73.644 39.3988 73.8154 39.2351 73.9639 39.0869C73.9932 39.0569 74.0122 39.0424 74.019 39.0424C74.0635 39.047 74.1211 39.0569 74.1919 39.0723C74.2627 39.0869 74.3242 39.1069 74.3755 39.1314C74.4277 39.156 74.4536 39.1883 74.4536 39.2282C74.4536 39.2728 74.4199 39.3335 74.353 39.4103C74.2861 39.4871 74.2119 39.5747 74.1304 39.6738C74.0483 39.7728 73.9746 39.8735 73.9077 39.9749C73.8408 40.0763 73.8076 40.1715 73.8076 40.2606C73.8076 40.3351 73.8369 40.4081 73.897 40.4795C73.9561 40.5517 74.0527 40.5871 74.1865 40.5871C74.3872 40.5871 74.6504 40.4895 74.9771 40.2936C75.3032 40.0985 75.6343 39.8051 75.9688 39.4134L76.0801 39.4879C75.9238 39.7552 75.7236 39.9902 75.4785 40.193C75.2334 40.3958 74.9717 40.5548 74.6934 40.6685C74.4155 40.7822 74.1421 40.839 73.8745 40.839C73.5996 40.839 73.3975 40.7845 73.2681 40.6754C73.1382 40.5663 73.0728 40.448 73.0728 40.319C73.0728 40.289 73.0767 40.256 73.0845 40.2191C73.0913 40.1823 73.0986 40.1439 73.1064 40.1039C72.7871 40.3912 72.4961 40.6063 72.2324 40.7499C71.9683 40.8928 71.6987 40.9642 71.4243 40.9642Z" fill="#3C4242" fill-opacity="1.000000" fill-rule="nonzero"/>
	<path id="Vector" d="M76.915 40.9942C76.5664 40.9942 76.29 40.9435 76.0854 40.8421C75.8813 40.7407 75.7368 40.6155 75.6509 40.4672C75.5654 40.319 75.5225 40.17 75.5225 40.0217C75.5225 39.8735 75.5522 39.759 75.6113 39.6799C75.6714 39.6008 75.7437 39.5416 75.8291 39.5017C75.9141 39.4617 75.9956 39.4326 76.0742 39.4126C76.1523 39.3926 76.2056 39.3727 76.2354 39.3534C76.458 39.1898 76.6626 39.0193 76.8481 38.8411C77.0342 38.6629 77.1968 38.4747 77.3384 38.2765L77.3384 38.1874C77.3384 38.0046 77.3843 37.874 77.4775 37.7972C77.5703 37.7204 77.6685 37.682 77.7725 37.682C77.8315 37.682 77.876 37.692 77.9058 37.7119C77.936 37.7319 77.9507 37.7542 77.9507 37.7787C77.9507 37.8033 77.9399 37.8433 77.9175 37.8978C77.895 37.9524 77.8838 38.0215 77.8838 38.106C77.8838 38.2696 77.9321 38.4463 78.0283 38.6368C78.125 38.8273 78.2207 39.0277 78.3179 39.2382C78.4136 39.4487 78.4619 39.6676 78.4619 39.895C78.4619 39.9595 78.4565 40.0225 78.4453 40.0839C78.4346 40.1461 78.4175 40.2038 78.3955 40.2583C78.6548 40.2283 78.8999 40.1508 79.1304 40.0248C79.3608 39.8988 79.5835 39.6968 79.7988 39.4195L79.8984 39.494C79.7573 39.7659 79.5459 39.9726 79.2642 40.1139C78.9819 40.2552 78.6733 40.3428 78.3394 40.3773C78.2202 40.5901 78.0327 40.7461 77.7769 40.8452C77.522 40.945 77.2339 40.9942 76.915 40.9942ZM76.9375 40.7346C77.0264 40.7346 77.1455 40.7146 77.2939 40.6754C77.4419 40.6355 77.5571 40.5341 77.6396 40.3712C77.3276 40.332 77.0513 40.2498 76.8101 40.1262C76.5688 40.0025 76.3882 39.8788 76.27 39.7552C76.1064 39.7606 76.0249 39.8466 76.0249 40.0148C76.0249 40.193 76.1045 40.3574 76.2646 40.5087C76.4229 40.6585 76.6479 40.7346 76.9375 40.7346ZM77.6948 40.2514C77.7095 40.2022 77.7207 40.15 77.7275 40.0955C77.7354 40.0409 77.7393 39.9764 77.7393 39.9026C77.7393 39.6699 77.6963 39.4387 77.6108 39.2083C77.5259 38.9778 77.4536 38.7612 77.3936 38.5584C77.2231 38.7466 77.0425 38.9264 76.8535 39.0969C76.6646 39.2674 76.4844 39.4103 76.3135 39.524C76.4248 39.6822 76.5977 39.8312 76.8315 39.9695C77.0654 40.1085 77.353 40.2022 77.6948 40.2514Z" fill="#3C4242" fill-opacity="1.000000" fill-rule="nonzero"/>
	<path id="Vector" d="M80.7573 40.9942C80.4087 40.9942 80.1323 40.9435 79.9277 40.8421C79.7236 40.7407 79.5791 40.6155 79.4932 40.4672C79.4077 40.319 79.3647 40.17 79.3647 40.0217C79.3647 39.8735 79.3945 39.759 79.4536 39.6799C79.5137 39.6008 79.5859 39.5416 79.6714 39.5017C79.7563 39.4617 79.8379 39.4326 79.9165 39.4126C79.9946 39.3926 80.0479 39.3727 80.0776 39.3534C80.3003 39.1898 80.5049 39.0193 80.6904 38.8411C80.8765 38.6629 81.0391 38.4747 81.1807 38.2765L81.1807 38.1874C81.1807 38.0046 81.2266 37.874 81.3198 37.7972C81.4126 37.7204 81.5107 37.682 81.6147 37.682C81.6738 37.682 81.7183 37.692 81.748 37.7119C81.7783 37.7319 81.793 37.7542 81.793 37.7787C81.793 37.8033 81.7822 37.8433 81.7598 37.8978C81.7373 37.9524 81.7261 38.0215 81.7261 38.106C81.7261 38.2696 81.7744 38.4463 81.8706 38.6368C81.9673 38.8273 82.063 39.0277 82.1602 39.2382C82.2559 39.4487 82.3042 39.6676 82.3042 39.895C82.3042 39.9595 82.2988 40.0225 82.2876 40.0839C82.2769 40.1461 82.2598 40.2038 82.2378 40.2583C82.4971 40.2283 82.7422 40.1508 82.9727 40.0248C83.2031 39.8988 83.4258 39.6968 83.6411 39.4195L83.7407 39.494C83.5996 39.7659 83.3882 39.9726 83.1064 40.1139C82.8242 40.2552 82.5156 40.3428 82.1816 40.3773C82.0625 40.5901 81.875 40.7461 81.6191 40.8452C81.3647 40.945 81.0771 40.9942 80.7573 40.9942ZM80.7798 40.7346C80.8687 40.7346 80.9878 40.7146 81.1362 40.6754C81.2842 40.6355 81.3994 40.5341 81.4819 40.3712C81.1699 40.332 80.8936 40.2498 80.6523 40.1262C80.4111 40.0025 80.2305 39.8788 80.1123 39.7552C79.9487 39.7606 79.8672 39.8466 79.8672 40.0148C79.8672 40.193 79.9468 40.3574 80.1069 40.5087C80.2656 40.6585 80.4902 40.7346 80.7798 40.7346ZM81.5371 40.2514C81.5518 40.2022 81.563 40.15 81.5698 40.0955C81.5776 40.0409 81.5815 39.9764 81.5815 39.9026C81.5815 39.6699 81.5386 39.4387 81.4531 39.2083C81.3682 38.9778 81.2959 38.7612 81.2358 38.5584C81.0654 38.7466 80.8848 38.9264 80.6958 39.0969C80.5068 39.2674 80.3267 39.4103 80.1558 39.524C80.2671 39.6822 80.4399 39.8312 80.6738 39.9695C80.9077 40.1085 81.1958 40.2022 81.5371 40.2514Z" fill="#3C4242" fill-opacity="1.000000" fill-rule="nonzero"/>
	<path id="Vector" d="M83.9102 42.6948C83.7241 42.6948 83.5615 42.6618 83.4199 42.595C83.2788 42.5281 83.208 42.4306 83.208 42.3015C83.208 42.1433 83.2681 42.002 83.3862 41.8783C83.5044 41.7546 83.6641 41.641 83.8657 41.5365C84.0659 41.4328 84.2959 41.3337 84.5562 41.2392C84.8159 41.1455 85.0869 41.051 85.3687 40.9573C85.4727 40.7745 85.5786 40.5702 85.686 40.3451C85.7935 40.1201 85.8955 39.8712 85.9927 39.5992C85.7554 39.8566 85.501 40.0778 85.2295 40.2637C84.9585 40.4496 84.6704 40.5417 84.3662 40.5417C84.2251 40.5417 84.0859 40.521 83.9482 40.4788C83.811 40.4365 83.6982 40.3712 83.6089 40.2821C83.52 40.193 83.4751 40.0793 83.4751 39.9403C83.4751 39.802 83.5107 39.6407 83.5815 39.4579C83.6519 39.2751 83.7388 39.0969 83.8433 38.9233C83.9468 38.7505 84.0547 38.6068 84.1665 38.4924C84.2788 38.3779 84.375 38.3218 84.4561 38.3218C84.4863 38.3218 84.54 38.3295 84.6177 38.3441C84.6958 38.3587 84.7695 38.3802 84.8403 38.4071C84.9111 38.4348 84.9463 38.4632 84.9463 38.4924C84.8794 38.5569 84.8052 38.6483 84.7236 38.7674C84.6411 38.8864 84.562 39.0185 84.4839 39.1645C84.4062 39.3104 84.3408 39.4525 84.2886 39.5916C84.2363 39.7298 84.2114 39.8489 84.2114 39.948C84.2114 40.0371 84.2402 40.1085 84.3003 40.1631C84.3594 40.2176 84.4639 40.2445 84.6123 40.2445C84.7529 40.2445 84.9111 40.1992 85.0854 40.107C85.2598 40.0156 85.4341 39.898 85.6094 39.7544C85.7837 39.6108 85.9448 39.4572 86.0938 39.2943C86.1162 39.2397 86.1362 39.1844 86.1553 39.1276C86.1738 39.0708 86.1904 39.0124 86.2051 38.9532C86.2275 38.8841 86.2812 38.8035 86.3667 38.7121C86.4517 38.6206 86.5879 38.5746 86.7729 38.5746C86.8096 38.5746 86.8467 38.5761 86.8843 38.5784C86.9214 38.5807 86.9619 38.5869 87.0063 38.5968C87.0063 38.676 86.9712 38.8234 86.9004 39.0385C86.8296 39.2536 86.729 39.5055 86.5991 39.7921C86.4697 40.0793 86.3149 40.3735 86.1367 40.6754C86.4858 40.5863 86.8276 40.4388 87.1616 40.2337C87.4956 40.0286 87.7671 39.7544 87.9741 39.4134L88.1187 39.4879C88.0073 39.7252 87.8384 39.9319 87.6118 40.1078C87.3853 40.2837 87.1309 40.4342 86.8491 40.5609C86.5669 40.6869 86.2881 40.7922 86.0132 40.8766C85.8203 41.1931 85.6108 41.4904 85.3843 41.7677C85.1577 42.045 84.9204 42.2693 84.6714 42.4398C84.4238 42.6096 84.1699 42.6948 83.9102 42.6948ZM83.854 42.4567C83.9653 42.4567 84.1528 42.3592 84.4165 42.1633C84.6797 41.9674 84.96 41.6248 85.2573 41.1347C84.9531 41.2438 84.6704 41.3513 84.4111 41.4581C84.1514 41.5641 83.9429 41.6794 83.7871 41.8038C83.6313 41.9275 83.5537 42.0711 83.5537 42.2347C83.5537 42.2747 83.5762 42.3215 83.6206 42.3761C83.665 42.4298 83.7427 42.4567 83.854 42.4567Z" fill="#3C4242" fill-opacity="1.000000" fill-rule="nonzero"/>
	<path id="Vector" d="M88.2085 40.69C88.1118 40.69 88.0288 40.6739 87.958 40.6416C87.8872 40.6093 87.8521 40.5587 87.8521 40.4895C87.8521 40.435 87.8853 40.3843 87.9517 40.3374C88.0186 40.2906 88.1025 40.2529 88.2021 40.226C88.3022 40.1992 88.4004 40.1853 88.4971 40.1853C88.5864 40.1853 88.6572 40.1976 88.7085 40.2222C88.7598 40.2468 88.7861 40.2944 88.7861 40.3636C88.7861 40.4135 88.7583 40.4626 88.7021 40.5118C88.6465 40.5609 88.5742 40.6032 88.4849 40.6378C88.396 40.6723 88.3052 40.69 88.2085 40.69Z" fill="#3C4242" fill-opacity="1.000000" fill-rule="nonzero"/>
</svg>
