<svg width="20.000000" height="20.000000" viewBox="0 0 20 20" fill="none" xmlns="http://www.w3.org/2000/svg" xmlns:xlink="http://www.w3.org/1999/xlink">
	<desc>
			Created with Pixso.
	</desc>
	<defs>
		<clipPath id="clip174_1054">
			<rect id="search" width="20.000000" height="20.000000" fill="white" fill-opacity="0"/>
		</clipPath>
	</defs>
	<g clip-path="url(#clip174_1054)">
		<path id="Icon" d="M8.8335 15.4167Q7.49463 15.4167 6.27051 14.899Q5.08887 14.3993 4.17822 13.4885Q3.26758 12.5777 2.76758 11.3961Q2.25 10.1722 2.25 8.83334Q2.25 7.49445 2.76758 6.27057Q3.26758 5.08902 4.17822 4.17822Q5.08887 3.26743 6.27051 2.76767Q7.49463 2.25 8.8335 2.25Q10.1724 2.25 11.396 2.76767Q12.5776 3.26743 13.4883 4.17822Q14.3994 5.08902 14.8989 6.27057Q15.4165 7.49445 15.4165 8.83334Q15.4165 10.1722 14.8989 11.3961Q14.3994 12.5777 13.4883 13.4885Q12.5776 14.3993 11.396 14.899Q10.1724 15.4167 8.8335 15.4167ZM8.8335 13.9167Q9.86816 13.9167 10.812 13.5175Q11.7236 13.1317 12.4277 12.4278Q13.1318 11.7239 13.5176 10.8118Q13.9165 9.86804 13.9165 8.83334Q13.9165 7.79865 13.5176 6.85489Q13.1318 5.94281 12.4277 5.23886Q11.7241 4.53494 10.812 4.14917Q9.86816 3.75 8.8335 3.75Q7.79883 3.75 6.85498 4.14917Q5.94287 4.53494 5.23877 5.23886Q4.53516 5.94278 4.14893 6.85489Q3.75 7.79865 3.75 8.83334Q3.75 9.86804 4.14893 10.8118Q4.53516 11.7239 5.23877 12.4278Q5.94287 13.1317 6.85498 13.5175Q7.79883 13.9167 8.8335 13.9167ZM13.5303 12.4697L17.6968 16.6364L16.6362 17.697L12.4697 13.5303L13.5303 12.4697ZM17.6689 16.6364L17.6968 16.6364C17.9941 16.9333 17.9941 17.4 17.6968 17.697C17.3999 17.994 16.9331 17.994 16.6362 17.697L16.6362 17.6687L17.6689 16.6364Z" fill="#807D7E" fill-opacity="1.000000" fill-rule="evenodd"/>
	</g>
</svg>
