<svg width="18" height="18" viewBox="0 0 18 18" fill="none" xmlns="http://www.w3.org/2000/svg">
<g id="Pintrest">
<path id="Vector" d="M9.16638 0.36084C4.37217 0.36084 0.484863 4.24641 0.484863 9.03849C0.484863 12.5909 2.62424 15.6436 5.68215 16.9878C5.6589 16.3835 5.67827 15.6552 5.8333 14.9966C5.99996 14.2916 6.9495 10.2665 6.9495 10.2665C6.9495 10.2665 6.67045 9.71255 6.67045 8.89515C6.67045 7.609 7.41458 6.64826 8.34474 6.64826C9.13538 6.64826 9.5152 7.24097 9.5152 7.94991C9.5152 8.74407 9.00748 9.9295 8.74781 11.0297C8.53077 11.9517 9.20902 12.6994 10.1198 12.6994C11.7631 12.6994 12.8715 10.5881 12.8715 8.0855C12.8715 6.18339 11.5887 4.76165 9.2594 4.76165C6.62782 4.76165 4.98453 6.72574 4.98453 8.9184C4.98453 9.67381 5.20932 10.2084 5.55813 10.6191C5.71703 10.8089 5.74028 10.8864 5.68215 11.1033C5.63952 11.2621 5.5465 11.6457 5.50387 11.8006C5.44573 12.0214 5.26745 12.0989 5.06979 12.0176C3.8567 11.5217 3.29085 10.1968 3.29085 8.70145C3.29085 6.23762 5.37209 3.2818 9.49582 3.2818C12.8095 3.2818 14.9915 5.67977 14.9915 8.25208C14.9915 11.6573 13.0963 14.1986 10.3058 14.1986C9.36792 14.1986 8.48814 13.6911 8.18584 13.1178C8.18584 13.1178 7.682 15.1167 7.57348 15.5041C7.39132 16.1743 7.03089 16.8406 6.70145 17.3636C7.50057 17.5992 8.32934 17.7193 9.16251 17.72C13.9567 17.72 17.844 13.8344 17.844 9.04236C17.844 4.25029 13.9606 0.36084 9.16638 0.36084Z" fill="white"/>
</g>
</svg>
