<svg width="19" height="16" viewBox="0 0 19 16" fill="none" xmlns="http://www.w3.org/2000/svg">
<path d="M16.3463 4.18884C16.3576 4.34695 16.3576 4.5051 16.3576 4.66321C16.3576 9.4859 12.6869 15.0428 5.978 15.0428C3.91112 15.0428 1.99108 14.4441 0.375977 13.4051C0.669642 13.439 0.951973 13.4503 1.25694 13.4503C2.96237 13.4503 4.53231 12.8743 5.78599 11.8916C4.18219 11.8578 2.83815 10.8074 2.37507 9.36168C2.60098 9.39555 2.82685 9.41814 3.06405 9.41814C3.39158 9.41814 3.71914 9.37295 4.02407 9.29393C2.35251 8.95507 1.09879 7.48681 1.09879 5.71359V5.66843C1.58443 5.9395 2.1492 6.10891 2.74776 6.13147C1.76514 5.47638 1.12139 4.35825 1.12139 3.09327C1.12139 2.41562 1.30206 1.79443 1.61833 1.25229C3.41414 3.46599 6.11352 4.91165 9.14039 5.0698C9.08393 4.79873 9.05003 4.5164 9.05003 4.23403C9.05003 2.22361 10.6764 0.585938 12.6981 0.585938C13.7485 0.585938 14.6972 1.02642 15.3636 1.73797C16.1881 1.57985 16.9787 1.27489 17.679 0.857005C17.4079 1.7041 16.8319 2.41565 16.0752 2.8674C16.8093 2.78837 17.5209 2.58503 18.1759 2.3027C17.679 3.02551 17.0578 3.66927 16.3463 4.18884Z" fill="#2A2F2F"/>
</svg>
