<svg width="17.000000" height="17.000000" viewBox="0 0 17 17" fill="none" xmlns="http://www.w3.org/2000/svg" xmlns:xlink="http://www.w3.org/1999/xlink">
	<desc>
			Created with Pixso.
	</desc>
	<defs/>
	<path d="M16.17 8.08C16.17 3.54 12.35 -0.14 7.63 -0.14C2.91 -0.14 -0.92 3.54 -0.92 8.08C-0.92 12.19 2.21 15.6 6.29 16.21L6.29 10.46L4.12 10.46L4.12 8.08L6.29 8.08L6.29 6.27C6.29 4.21 7.57 3.07 9.52 3.07C10.46 3.07 11.43 3.23 11.43 3.23L11.43 5.26L10.36 5.26C9.29 5.26 8.96 5.89 8.96 6.54L8.96 8.08L11.33 8.08L10.95 10.46L8.96 10.46L8.96 16.21C13.05 15.6 16.17 12.19 16.17 8.08Z" fill="#FFFFFF" fill-opacity="1.000000" fill-rule="evenodd"/>
</svg>
