<svg width="17.000000" height="17.000000" viewBox="0 0 17 17" fill="none" xmlns="http://www.w3.org/2000/svg" xmlns:xlink="http://www.w3.org/1999/xlink">
	<desc>
			Created with Pixso.
	</desc>
	<defs/>
	<path d="M11.1 1.18C12.04 1.18 12.95 1.54 13.61 2.19C14.28 2.83 14.66 3.7 14.66 4.61L14.66 11.46C14.66 12.37 14.28 13.24 13.61 13.88C12.95 14.53 12.04 14.89 11.1 14.89L3.98 14.89C3.04 14.89 2.13 14.53 1.47 13.88C0.8 13.24 0.42 12.37 0.42 11.46L0.42 4.61C0.42 3.7 0.8 2.83 1.47 2.19C2.13 1.54 3.04 1.18 3.98 1.18L11.1 1.18ZM11.1 -0.19L3.98 -0.19C1.24 -0.19 -1 1.97 -1 4.61L-1 11.46C-1 14.1 1.24 16.26 3.98 16.26L11.1 16.26C13.84 16.26 16.08 14.1 16.08 11.46L16.08 4.61C16.08 1.97 13.84 -0.19 11.1 -0.19Z" fill="#FFFFFF" fill-opacity="1.000000" fill-rule="nonzero"/>
	<path d="M12.17 4.61C11.96 4.61 11.75 4.55 11.57 4.43C11.4 4.32 11.26 4.16 11.18 3.97C11.1 3.78 11.08 3.58 11.12 3.38C11.16 3.18 11.26 3 11.41 2.85C11.56 2.71 11.75 2.61 11.96 2.57C12.17 2.53 12.38 2.55 12.58 2.63C12.77 2.71 12.94 2.84 13.06 3.01C13.17 3.18 13.24 3.38 13.24 3.58C13.24 3.71 13.21 3.85 13.15 3.97C13.1 4.1 13.02 4.21 12.92 4.31C12.82 4.4 12.71 4.48 12.58 4.53C12.45 4.58 12.31 4.61 12.17 4.61ZM7.54 5.29C8.1 5.29 8.65 5.45 9.12 5.76C9.59 6.06 9.95 6.48 10.17 6.99C10.39 7.49 10.44 8.04 10.33 8.57C10.22 9.1 9.95 9.59 9.55 9.97C9.16 10.36 8.65 10.62 8.09 10.73C7.54 10.83 6.97 10.78 6.45 10.57C5.93 10.36 5.48 10.01 5.17 9.56C4.86 9.11 4.69 8.58 4.69 8.04C4.69 7.31 4.99 6.61 5.53 6.1C6.06 5.58 6.78 5.29 7.54 5.29ZM7.54 3.92C6.69 3.92 5.87 4.16 5.17 4.62C4.46 5.07 3.92 5.71 3.59 6.46C3.27 7.21 3.18 8.04 3.35 8.84C3.51 9.64 3.92 10.37 4.52 10.94C5.12 11.52 5.88 11.91 6.71 12.07C7.54 12.23 8.39 12.15 9.17 11.84C9.95 11.52 10.62 11 11.09 10.32C11.56 9.64 11.81 8.85 11.81 8.04C11.81 6.94 11.36 5.9 10.56 5.13C9.76 4.36 8.67 3.92 7.54 3.92Z" fill="#FFFFFF" fill-opacity="1.000000" fill-rule="nonzero"/>
</svg>
