<svg width="17.000000" height="23.000000" viewBox="0 0 17 23" fill="none" xmlns="http://www.w3.org/2000/svg" xmlns:xlink="http://www.w3.org/1999/xlink">
	<desc>
			Created with Pixso.
	</desc>
	<defs/>
	<path d="M0 7.27C0 11.89 5.17 19.2 7.07 21.73C7.15 21.84 7.25 21.92 7.37 21.98C7.49 22.04 7.63 22.08 7.76 22.08C7.89 22.08 8.03 22.04 8.15 21.98C8.27 21.92 8.37 21.84 8.45 21.73C10.35 19.2 15.53 11.89 15.53 7.27C15.53 3.25 12.05 0 7.76 0C3.47 0 0 3.25 0 7.27Z" stroke="#40DDB6" stroke-opacity="1.000000" stroke-width="1.500000" stroke-linejoin="round"/>
	<path d="M7.76 11.64C6.04 11.64 4.65 10.25 4.65 8.54C4.65 6.82 6.04 5.43 7.76 5.43C9.48 5.43 10.87 6.82 10.87 8.54C10.87 10.25 9.48 11.64 7.76 11.64Z" stroke="#40DDB6" stroke-opacity="1.000000" stroke-width="1.500000" stroke-linejoin="round"/>
</svg>
