<svg width="24.000000" height="24.000000" viewBox="0 0 24 24" fill="none" xmlns="http://www.w3.org/2000/svg" xmlns:xlink="http://www.w3.org/1999/xlink">
	<desc>
			Created with Pixso.
	</desc>
	<defs/>
	<path id="Oval" d="M12 24C18.6274 24 24 18.6274 24 12C24 5.37256 18.6274 0 12 0C5.37256 0 0 5.37256 0 12C0 18.6274 5.37256 24 12 24Z" fill="#F55529" fill-opacity="1.000000" fill-rule="evenodd"/>
	<path id="Union" d="M12.8669 7.2356C13.1899 6.92139 13.7134 6.92139 14.0364 7.2356L17.7034 10.8032C18.0989 11.188 18.0989 11.812 17.7034 12.197L14.0364 15.7644C13.7134 16.0786 13.1899 16.0786 12.8669 15.7644C12.5437 15.4497 12.5437 14.9397 12.8669 14.625L15.0581 12.4934L7.01196 12.4934C6.45312 12.4934 6 12.0522 6 11.5083C6 10.9641 6.45312 10.5229 7.01196 10.5229L15.075 10.5229L12.8669 8.375C12.5437 8.0603 12.5437 7.55029 12.8669 7.2356Z" fill="#F0F0F0" fill-opacity="1.000000" fill-rule="evenodd"/>
</svg>
