<svg width="14.294922" height="13.693970" viewBox="0 0 14.2949 13.694" fill="none" xmlns="http://www.w3.org/2000/svg" xmlns:xlink="http://www.w3.org/1999/xlink">
	<desc>
			Created with Pixso.
	</desc>
	<defs/>
	<path d="M6.27637 0.508911L4.67383 3.35132C4.53125 3.60449 4.28613 3.78308 4.00098 3.84045L0.802734 4.48584C0.0390625 4.63989 -0.262695 5.56934 0.264648 6.14282L2.47266 8.5448C2.66895 8.75879 2.7627 9.04773 2.72949 9.33643L2.35449 12.5776C2.26562 13.3514 3.05664 13.9259 3.76465 13.6017L6.73145 12.2439C6.99512 12.1229 7.2998 12.1229 7.56348 12.2439L10.5303 13.6017C11.2383 13.9259 12.0293 13.3514 11.9404 12.5776L11.5654 9.33643C11.5322 9.04773 11.626 8.75879 11.8223 8.5448L14.0303 6.14282C14.5576 5.56934 14.2559 4.63989 13.4922 4.48584L10.2939 3.84045C10.0088 3.78308 9.76367 3.60449 9.62109 3.35132L8.01855 0.508911C7.63574 -0.169678 6.65918 -0.169678 6.27637 0.508911Z" fill="#FFB342" fill-opacity="1.000000" fill-rule="evenodd"/>
</svg>
