<svg width="42" height="17" viewBox="0 0 42 17" fill="none" xmlns="http://www.w3.org/2000/svg">
<path d="M19.8537 8.08786V12.9405H18.3035V0.956616H22.4148C22.9056 0.946435 23.3935 1.03287 23.8505 1.21094C24.3074 1.389 24.7243 1.65517 25.0771 1.99408C25.4335 2.31241 25.7171 2.70281 25.9089 3.13905C26.1008 3.57528 26.1963 4.04723 26.1892 4.52319C26.1994 5.0017 26.1053 5.47673 25.9134 5.91574C25.7214 6.35476 25.4361 6.74736 25.0771 7.06665C24.3582 7.74745 23.4708 8.08754 22.4148 8.0869H19.8537V8.08786ZM19.8537 2.43201V6.61533H22.4534C22.7384 6.62372 23.022 6.57294 23.2861 6.46625C23.5502 6.35956 23.789 6.1993 23.9872 5.99572C24.1843 5.80538 24.341 5.57771 24.448 5.32619C24.555 5.07466 24.6102 4.80437 24.6102 4.53132C24.6102 4.25826 24.555 3.98798 24.448 3.73645C24.341 3.48493 24.1843 3.25726 23.9872 3.06692C23.7915 2.85905 23.5535 2.69486 23.2891 2.58524C23.0247 2.47562 22.7398 2.42306 22.4534 2.43106H19.8537V2.43201Z" fill="#5F6368"/>
<path d="M29.7613 4.47351C30.9071 4.47351 31.8116 4.77758 32.4746 5.38571C33.1377 5.99385 33.4689 6.82764 33.4683 7.8871V12.9405H31.9855V11.8027H31.9181C31.2762 12.7397 30.4225 13.2083 29.3569 13.2083C28.4474 13.2083 27.6864 12.9405 27.074 12.4051C26.7801 12.1593 26.5452 11.8515 26.3863 11.5042C26.2274 11.1568 26.1485 10.7786 26.1555 10.3971C26.1555 9.54863 26.4783 8.87388 27.1241 8.37284C27.7698 7.8718 28.6319 7.62064 29.7103 7.61936C30.6308 7.61936 31.3889 7.7867 31.9845 8.12136V7.76949C31.9863 7.50942 31.9298 7.25222 31.819 7.01655C31.7083 6.78088 31.5461 6.57263 31.3443 6.40692C30.9343 6.03963 30.4001 5.83922 29.848 5.84564C28.9821 5.84564 28.2968 6.20835 27.7923 6.93378L26.427 6.0799C27.178 5.00898 28.2894 4.47351 29.7613 4.47351ZM27.7557 10.4306C27.7547 10.6265 27.8008 10.8198 27.8902 10.9945C27.9797 11.1691 28.1098 11.32 28.2699 11.4345C28.6127 11.7024 29.0383 11.8443 29.4744 11.8361C30.1286 11.8351 30.7556 11.5765 31.2181 11.1171C31.7316 10.6371 31.9884 10.0739 31.9884 9.42751C31.505 9.04504 30.8311 8.8538 29.9664 8.8538C29.3367 8.8538 28.8116 9.00456 28.3912 9.30608C27.9666 9.61206 27.7557 9.98401 27.7557 10.4306Z" fill="#5F6368"/>
<path d="M41.98 4.74121L36.8037 16.5549H35.2035L37.1244 12.4213L33.7207 4.74121H35.4057L37.8658 10.6313H37.8995L40.2922 4.74121H41.98Z" fill="#5F6368"/>
<path d="M13.5893 7.04182C13.5899 6.57267 13.5499 6.10434 13.4699 5.64197H6.93213V8.29347H10.6766C10.6 8.71696 10.4378 9.12065 10.1999 9.48021C9.96193 9.83977 9.65312 10.1478 9.29207 10.3856V12.1067H11.5268C12.8354 10.9086 13.5893 9.13683 13.5893 7.04182Z" fill="#4285F4"/>
<path d="M6.9323 13.7696C8.80311 13.7696 10.3783 13.1595 11.527 12.1077L9.29224 10.3866C8.67024 10.8054 7.86915 11.0444 6.9323 11.0444C5.12406 11.0444 3.58928 9.83389 3.04046 8.20264H0.738281V9.97636C1.31529 11.1166 2.20006 12.0751 3.29382 12.7449C4.38758 13.4148 5.64729 13.7695 6.9323 13.7696Z" fill="#34A853"/>
<path d="M3.04036 8.20268C2.75022 7.34789 2.75022 6.42222 3.04036 5.56743V3.7937H0.73819C0.252794 4.7529 0 5.81154 0 6.88505C0 7.95857 0.252794 9.0172 0.73819 9.9764L3.04036 8.20268Z" fill="#FBBC04"/>
<path d="M6.9323 2.72558C7.92094 2.70954 8.87623 3.0805 9.59169 3.75827L11.5703 1.7933C10.3157 0.623002 8.65351 -0.0195126 6.9323 0.00045169C5.64729 0.000509851 4.38758 0.355249 3.29382 1.02507C2.20006 1.69488 1.31529 2.65341 0.738281 3.79364L3.04046 5.56737C3.58928 3.93612 5.12406 2.72558 6.9323 2.72558Z" fill="#EA4335"/>
</svg>
