<svg width="55" height="14" viewBox="0 0 55 14" fill="none" xmlns="http://www.w3.org/2000/svg">
<path d="M20.7008 5.70314C20.56 6.7593 19.7151 6.7593 18.9406 6.7593H18.5181L18.8701 4.71739C18.8701 4.57657 19.011 4.50616 19.1518 4.50616H19.363C19.9263 4.50616 20.4192 4.50616 20.7008 4.78781C20.7008 5.06945 20.7008 5.35109 20.7008 5.70314ZM20.3488 2.88672H17.3211C17.1099 2.88672 16.9691 3.02754 16.8986 3.23877L15.7017 10.9839C15.7017 11.1248 15.7721 11.2656 15.9833 11.2656H17.3915C17.6028 11.2656 17.7436 11.1248 17.814 10.9135L18.166 8.80121C18.166 8.58998 18.3773 8.44916 18.5885 8.44916H19.5742C21.5457 8.44916 22.6723 7.46341 23.0244 5.56232C23.1652 4.71739 23.0244 4.0837 22.6723 3.59083C22.109 3.16836 21.3345 2.88672 20.3488 2.88672Z" fill="#263577"/>
<path d="M27.319 8.51963C27.1782 9.36455 26.5445 9.92784 25.6996 9.92784C25.2771 9.92784 24.9251 9.78702 24.7138 9.50538C24.5026 9.22373 24.4322 8.87168 24.5026 8.51963C24.6434 7.6747 25.2771 7.11141 26.1221 7.11141C26.5445 7.11141 26.8966 7.25223 27.1078 7.53388C27.2486 7.74511 27.3894 8.09716 27.319 8.51963ZM29.2905 5.7032H27.8823C27.7415 5.7032 27.6711 5.77361 27.6007 5.91443L27.5303 6.3369L27.4599 6.19607C27.1782 5.77361 26.4741 5.56238 25.77 5.56238C24.1506 5.56238 22.8128 6.75936 22.5311 8.44922C22.3903 9.29414 22.6015 10.0687 23.0944 10.6319C23.5168 11.1248 24.1506 11.3361 24.9251 11.3361C26.1925 11.3361 26.8966 10.4911 26.8966 10.4911L26.8262 10.9136C26.8262 11.0544 26.8966 11.1952 27.1078 11.1952H28.3752C28.5864 11.1952 28.7272 11.0544 28.7977 10.8432L29.5722 5.91443C29.5722 5.84402 29.5018 5.7032 29.2905 5.7032Z" fill="#263577"/>
<path d="M36.9656 5.70325H35.4869C35.3461 5.70325 35.2053 5.77366 35.1349 5.91448L33.1634 8.87173L32.3184 6.0553C32.248 5.84407 32.1072 5.77366 31.896 5.77366H30.4878C30.3469 5.77366 30.2061 5.91448 30.2765 6.12571L31.896 10.7728L30.4173 12.8851C30.2765 13.026 30.4174 13.3076 30.6286 13.3076H32.1072C32.248 13.3076 32.3889 13.2372 32.4593 13.0964L37.2472 6.12571C37.3176 5.91448 37.1768 5.70325 36.9656 5.70325Z" fill="#263577"/>
<path d="M42.1054 5.70314C41.9645 6.7593 41.1196 6.7593 40.3451 6.7593H39.9226L40.2747 4.71739C40.2747 4.57657 40.4155 4.50616 40.5563 4.50616H40.7676C41.3308 4.50616 41.8237 4.50616 42.1054 4.78781C42.1758 5.06945 42.1758 5.35109 42.1054 5.70314ZM41.7533 2.88672H38.7257C38.5144 2.88672 38.3736 3.02754 38.3032 3.23877L37.1062 10.9839C37.1062 11.1248 37.1766 11.2656 37.3879 11.2656H38.9369C39.0777 11.2656 39.2185 11.1952 39.2185 10.9839L39.5706 8.80121C39.5706 8.58998 39.7818 8.44916 39.993 8.44916H40.9788C42.9503 8.44916 44.0769 7.46341 44.4289 5.56232C44.5697 4.71739 44.4289 4.0837 44.0769 3.59083C43.584 3.16836 42.8095 2.88672 41.7533 2.88672Z" fill="#2199D6"/>
<path d="M48.7946 8.51963C48.6538 9.36455 48.0201 9.92784 47.1752 9.92784C46.7527 9.92784 46.4007 9.78702 46.1894 9.50538C45.9782 9.22373 45.9078 8.87168 45.9782 8.51963C46.119 7.6747 46.7527 7.11141 47.5976 7.11141C48.0201 7.11141 48.3722 7.25223 48.5834 7.53388C48.7242 7.74511 48.865 8.09716 48.7946 8.51963ZM50.7661 5.7032H49.3579C49.2171 5.7032 49.1467 5.77361 49.0762 5.91443L49.0059 6.3369L48.9354 6.19607C48.6538 5.77361 47.9497 5.56238 47.2456 5.56238C45.6261 5.56238 44.2883 6.75936 44.0067 8.44922C43.8659 9.29414 44.0771 10.0687 44.57 10.6319C44.9924 11.1248 45.6261 11.3361 46.4007 11.3361C47.668 11.3361 48.3721 10.4911 48.3721 10.4911L48.3017 10.9136C48.3017 11.0544 48.3722 11.1952 48.5834 11.1952H49.8508C50.062 11.1952 50.2028 11.0544 50.2732 10.8432L51.0478 5.91443C51.0478 5.84402 50.9069 5.7032 50.7661 5.7032Z" fill="#2199D6"/>
<path d="M52.4559 3.09795L51.1885 10.9839C51.1885 11.1248 51.2589 11.2656 51.4701 11.2656H52.7375C52.9488 11.2656 53.0896 11.1248 53.16 10.9135L54.357 3.16836C54.357 3.02754 54.2865 2.88672 54.0753 2.88672H52.6671C52.5967 2.88672 52.5263 3.02754 52.4559 3.09795Z" fill="#2199D6"/>
<path d="M3.16814 12.7443L3.37936 11.2657H2.88649H0.422119L2.11198 0.492895C2.11198 0.492895 2.11197 0.422485 2.18239 0.422485H2.2528H6.40702C7.74483 0.422485 8.73058 0.704128 9.22345 1.26741C9.43468 1.54906 9.57551 1.8307 9.64592 2.11234C9.71633 2.4644 9.71633 2.81645 9.64592 3.30932V3.59096L9.85715 3.73179C10.0684 3.8022 10.2092 3.94302 10.35 4.08384C10.5613 4.29507 10.7021 4.57671 10.7021 4.92877C10.7725 5.28082 10.7725 5.70328 10.6317 6.19616C10.4908 6.75944 10.35 7.18191 10.1388 7.60437C9.92756 7.95642 9.64591 8.23807 9.36427 8.51971C9.08263 8.73094 8.66016 8.87176 8.30811 9.01258C7.88565 9.08299 7.46319 9.15341 6.97031 9.15341H6.61826C6.40703 9.15341 6.1958 9.22381 5.98457 9.36464C5.84375 9.50546 5.70292 9.71669 5.63251 9.92792V10.0687L5.21005 12.6739V12.7443V12.8148C5.21005 12.8148 5.21004 12.8148 5.13963 12.8148H3.16814V12.7443Z" fill="#263577"/>
<path d="M10.139 3.3092C10.139 3.37961 10.139 3.45003 10.0686 3.52044C9.50527 6.33686 7.6746 7.2522 5.28064 7.2522H4.08365C3.80201 7.2522 3.52037 7.46343 3.52037 7.74508L2.88667 11.6881L2.74585 12.8146C2.74585 13.0259 2.88667 13.1667 3.02749 13.1667H5.21022C5.49186 13.1667 5.70309 12.9555 5.70309 12.7442V12.6034L6.12556 10.0686V9.92781C6.19597 9.64616 6.4072 9.50534 6.61844 9.50534H6.97049C9.08281 9.50534 10.7022 8.66042 11.1247 6.19604C11.3359 5.13988 11.1951 4.29495 10.7023 3.73167C10.5614 3.59085 10.3502 3.45003 10.139 3.3092Z" fill="#2199D6"/>
<path d="M9.57557 3.09795C9.50516 3.09795 9.43476 3.02754 9.29393 3.02754C9.22352 3.02754 9.0827 2.95713 9.01229 2.95713C8.66023 2.88672 8.30818 2.88672 7.95613 2.88672H4.71724C4.64683 2.88672 4.57642 2.88672 4.50601 2.95713C4.36519 3.02754 4.22437 3.16836 4.22437 3.30918L3.52026 7.67464V7.81546C3.59067 7.53382 3.8019 7.32259 4.08354 7.32259H5.28053C7.67449 7.32259 9.50516 6.33684 10.0684 3.59083C10.0684 3.52041 10.0684 3.45 10.1389 3.37959C9.99804 3.30918 9.85721 3.23877 9.71639 3.16836C9.64598 3.09795 9.57557 3.09795 9.57557 3.09795Z" fill="#252C5E"/>
<path d="M4.22464 3.3093C4.22464 3.16848 4.36546 3.02766 4.50628 2.95725C4.57669 2.95725 4.6471 2.88684 4.71751 2.88684H7.9564C8.30845 2.88684 8.73091 2.88683 9.01256 2.95725C9.08297 2.95725 9.22379 2.95725 9.2942 3.02766C9.36461 3.02766 9.43502 3.09807 9.57584 3.09807C9.64625 3.09807 9.64625 3.09807 9.71666 3.16848C9.85748 3.23889 9.99831 3.3093 10.1391 3.37971C10.28 2.32355 10.1391 1.61944 9.57584 0.985748C8.94215 0.281641 7.81558 0 6.40736 0H2.25314C1.9715 0 1.68985 0.21123 1.68985 0.492872L0 11.3361C0 11.5473 0.140821 11.7586 0.352053 11.7586H2.88683L3.52053 7.67476L4.22464 3.3093Z" fill="#263577"/>
</svg>
