<svg width="53" height="15" viewBox="0 0 53 15" fill="none" xmlns="http://www.w3.org/2000/svg">
<path fill-rule="evenodd" clip-rule="evenodd" d="M2.00038 5.65994C1.89027 5.93523 1.83521 6.22886 1.7618 6.52249C1.57828 7.4034 1.43147 8.33935 1.22959 9.22026C0.825845 9.22026 0.403747 9.22026 0 9.22026C0.458803 6.24721 1.303 3.34757 1.67004 0.154302C2.07379 0.154302 2.47754 0.154302 2.86293 0.154302C2.80787 0.447936 2.73447 0.723219 2.69776 1.01685C2.69776 1.0352 2.66106 1.05356 2.66106 1.09026C3.21162 0.374527 4.05582 -0.12098 5.39553 0.0258372C6.71688 0.154302 7.43261 1.20037 7.48767 2.42997C7.61614 4.77904 6.36819 6.90789 3.79889 6.72436C2.95469 6.66931 2.31237 6.35732 2.00038 5.65994ZM3.72548 1.20037C2.64271 1.75094 1.59663 4.28353 2.82623 5.36631C3.63372 6.08204 4.90002 5.69665 5.43223 5.03597C6.03785 4.28353 6.58841 2.11798 5.67081 1.34719C5.35882 1.09026 4.86332 0.9985 4.40451 1.05356C4.07417 1.07191 3.909 1.10861 3.72548 1.20037Z" fill="#030000"/>
<path fill-rule="evenodd" clip-rule="evenodd" d="M13.1586 6.59581C12.7732 6.59581 12.3878 6.59581 11.984 6.59581C12.0391 6.22877 12.1125 5.88008 12.1859 5.53139C11.8372 6.04525 11.2316 6.63252 10.3507 6.72428C9.08441 6.85274 7.92822 6.21042 7.81811 5.16435C7.7814 4.81565 7.79976 4.24674 8.09339 3.80629C8.82748 2.6501 10.7361 2.5767 12.6264 2.63175C13.1953 0.539609 10.1488 0.851594 9.10276 1.53062C9.15781 1.12688 9.24958 0.741482 9.30463 0.337735C11.1949 -0.249534 13.7458 -0.102716 13.8927 1.93437C13.9477 2.74187 13.7091 3.53101 13.5623 4.3018C13.4155 5.05423 13.2687 5.78832 13.1586 6.59581ZM9.15781 4.92577C9.19452 5.45798 9.78179 5.75162 10.2589 5.75162C11.5619 5.76997 12.1859 4.63213 12.3878 3.51265C10.9196 3.43924 9.06605 3.62277 9.15781 4.92577Z" fill="#030000"/>
<path fill-rule="evenodd" clip-rule="evenodd" d="M15.9848 0.172607C16.2601 1.87936 16.5904 3.53105 16.8474 5.2745C17.82 3.60446 18.7193 1.861 19.6736 0.172607C20.1141 0.172607 20.5545 0.172607 21.0133 0.172607C19.8388 2.30146 18.4624 4.63218 17.141 6.87114C16.7373 7.56852 16.3335 8.50448 15.7463 8.96328C15.2324 9.36703 14.2414 9.45879 13.4155 9.29362C13.4339 8.92657 13.5623 8.65129 13.5807 8.3026C13.7459 8.28425 13.9477 8.39436 14.1496 8.39436C15.0489 8.39436 15.5444 7.56852 15.8747 6.92619C15.4893 4.70559 15.0672 2.50333 14.6818 0.264368C14.6451 0.227664 14.6635 0.209312 14.6818 0.172607C15.1223 0.172607 15.5627 0.172607 15.9848 0.172607Z" fill="#030000"/>
<path fill-rule="evenodd" clip-rule="evenodd" d="M21.5455 10.358C21.2703 11.918 20.9216 13.3861 20.6463 14.9461C19.7837 14.9461 18.9212 14.9461 18.0403 14.9461C18.444 13.0374 18.7927 11.1472 19.1781 9.2569C19.5635 7.38498 20.0223 5.51306 20.2425 3.53103C20.9399 3.47597 21.8759 3.47597 22.5733 3.53103C22.5549 3.97148 22.4448 4.33852 22.4081 4.76062C23.0871 4.08159 23.8212 3.18234 25.3811 3.32915C26.8677 3.47597 27.6935 4.72392 27.8036 6.3022C28.0055 9.01832 26.6841 11.6794 24.2984 11.8629C22.8118 11.973 22.1145 11.294 21.5455 10.358ZM22.5916 6.3022C21.986 7.16475 21.7841 8.81644 22.5549 9.45877C23.0321 9.86252 23.913 9.66064 24.3167 9.33031C24.8306 8.90821 25.1976 8.10071 25.1793 7.09134C25.1609 6.17374 24.7572 5.40295 23.7845 5.53141C23.2156 5.60482 22.8669 5.89846 22.5916 6.3022Z" fill="#009651"/>
<path fill-rule="evenodd" clip-rule="evenodd" d="M34.9425 11.6978C34.2635 11.6794 33.4927 11.7345 32.8687 11.6611C32.9421 11.294 32.9421 10.8352 32.9972 10.4682C32.7953 10.6701 32.6485 10.9637 32.3915 11.2023C31.5473 11.9731 29.6571 12.1382 28.7211 11.3674C27.7118 10.5232 27.8769 8.5045 28.7211 7.64195C29.6938 6.63258 31.529 6.37565 33.4193 6.57753C33.6028 5.80674 33.0889 5.32958 32.4466 5.23782C31.5106 5.10936 30.2627 5.5131 29.7121 5.84344C29.8223 5.18277 29.859 4.46703 29.9874 3.80636C30.6481 3.56778 31.2721 3.38426 32.0612 3.34755C34.2451 3.20073 35.75 3.93482 35.8968 5.80674C35.9702 6.79775 35.6766 7.82547 35.4564 8.79813C35.2545 9.75245 35.1077 10.7251 34.9425 11.6978ZM32.3181 8.02735C31.529 8.0457 30.6664 8.30263 30.4829 8.8899C30.3361 9.40376 30.7032 9.88091 31.0885 9.95432C32.2998 10.2112 33.1256 9.01836 33.2174 8.06405C32.9421 8.00899 32.5384 8.02735 32.3181 8.02735Z" fill="#009651"/>
<path fill-rule="evenodd" clip-rule="evenodd" d="M42.9441 3.80628C42.8156 4.46696 42.577 5.01752 42.4486 5.6782C41.8062 5.45797 41.0354 5.12763 40.0261 5.23775C39.6223 5.2928 39.2186 5.49467 39.2186 5.89842C39.2369 6.39393 39.9894 6.57745 40.4482 6.76097C41.0905 7.03626 41.8613 7.4033 42.1733 7.95386C42.7055 8.90817 42.1733 10.3029 41.6044 10.8902C41.1272 11.3857 40.228 11.7895 39.3103 11.8629C38.1175 11.9546 36.8695 11.7344 35.8418 11.4591C35.9886 10.7801 36.1538 10.1561 36.3373 9.53214C37.0163 9.80743 37.7871 10.0644 38.8332 9.9726C39.3287 9.91754 39.8793 9.75237 39.8059 9.1651C39.7508 8.68795 39.0351 8.52278 38.5029 8.30255C37.5118 7.8988 36.7778 7.38494 36.7778 6.04524C36.7778 3.29242 40.595 2.83362 42.9441 3.80628Z" fill="#009651"/>
<path fill-rule="evenodd" clip-rule="evenodd" d="M49.4407 3.80631C49.2939 4.44864 49.092 5.05426 48.9085 5.67823C48.3029 5.43965 47.5137 5.12767 46.5044 5.23778C46.1006 5.27448 45.6969 5.47635 45.6969 5.89845C45.7152 6.41231 46.6328 6.6876 47.0549 6.87112C47.9175 7.23816 48.7433 7.64191 48.8534 8.63292C48.9635 9.60559 48.5598 10.3947 47.9909 10.9269C47.4587 11.4408 46.6695 11.7895 45.7886 11.8629C44.5774 11.9547 43.4028 11.7344 42.3201 11.4592C42.4302 10.7618 42.6504 10.1929 42.7789 9.53218C43.2744 9.67899 43.7515 9.91757 44.3388 9.97263C45.1646 10.046 46.2841 9.99098 46.2658 9.27525C46.2474 8.50446 44.6508 8.33929 44.0268 7.84378C43.3478 7.31157 42.9257 6.00857 43.4579 4.94414C44.3388 3.29245 47.3669 2.92541 49.4407 3.80631Z" fill="#009651"/>
<path d="M50.4133 4.65056H50.083L50.1014 4.52209H50.9089L50.8905 4.65056H50.5602L50.3766 5.65993H50.2298L50.4133 4.65056Z" fill="#009651"/>
<path d="M51.7713 5.65993L51.8447 5.05431C51.863 4.9442 51.8814 4.77903 51.8998 4.66891C51.8447 4.77903 51.7896 4.92584 51.7162 5.03596L51.3859 5.65993H51.2758L51.184 5.05431C51.1657 4.92584 51.1473 4.79738 51.1473 4.66891C51.129 4.77903 51.0923 4.9442 51.0556 5.05431L50.9087 5.65993H50.7803L51.0739 4.52209H51.2574L51.3492 5.16442C51.3675 5.25618 51.3675 5.36629 51.3675 5.45805C51.4042 5.36629 51.4593 5.27453 51.496 5.18277L51.8447 4.52209H52.0282L51.8814 5.65993H51.7713Z" fill="#009651"/>
</svg>
