<svg width="41" height="13" viewBox="0 0 41 13" fill="none" xmlns="http://www.w3.org/2000/svg">
<path d="M37.7204 0.177368H35.1781C34.4095 0.177368 33.8183 0.41386 33.4636 1.18246L28.6155 12.2385H32.0446C32.0446 12.2385 32.6358 10.7604 32.7541 10.4057C33.1088 10.4057 36.4788 10.4057 36.9518 10.4057C37.0701 10.8195 37.3657 12.1794 37.3657 12.1794H40.4401L37.7204 0.177368ZM33.7001 7.92249C33.9957 7.21301 35.0008 4.55247 35.0008 4.55247C35.0008 4.6116 35.2964 3.843 35.4146 3.42914L35.6511 4.49335C35.6511 4.49335 36.3015 7.39038 36.4197 7.98161H33.7001V7.92249Z" fill="#3362AB"/>
<path d="M28.852 8.27723C28.852 10.7604 26.6053 12.4158 23.117 12.4158C21.639 12.4158 20.22 12.1202 19.4514 11.7655L19.9244 9.04583L20.3383 9.2232C21.4025 9.69618 22.112 9.87355 23.4127 9.87355C24.3586 9.87355 25.3637 9.51881 25.3637 8.69109C25.3637 8.15898 24.9499 7.80424 23.6492 7.21301C22.4076 6.62178 20.7521 5.67581 20.7521 3.96125C20.7521 1.59632 23.0579 0 26.3097 0C27.5513 0 28.6155 0.236492 29.2658 0.532108L28.7929 3.13352L28.5564 2.89703C27.9651 2.66054 27.1965 2.42405 26.0732 2.42405C24.8316 2.48317 24.2404 3.01528 24.2404 3.48826C24.2404 4.02037 24.9499 4.43423 26.0732 4.96634C27.9651 5.85318 28.852 6.85828 28.852 8.27723Z" fill="#3362AB"/>
<path d="M0 0.295574L0.0591231 0.059082H5.14371C5.85318 0.059082 6.38529 0.295574 6.56266 1.06417L7.686 6.38525C6.56266 3.54734 3.96125 1.24154 0 0.295574Z" fill="#F9B50B"/>
<path d="M14.8401 0.177409L9.69637 12.1794H6.20811L3.25195 2.12847C5.38038 3.4883 7.15408 5.61673 7.80443 7.09481L8.15917 8.33639L11.3518 0.118286H14.8401V0.177409Z" fill="#3362AB"/>
<path d="M16.1997 0.118286H19.4514L17.3821 12.1794H14.1304L16.1997 0.118286Z" fill="#3362AB"/>
</svg>
