<svg width="23.000000" height="44.000000" viewBox="0 0 23 44" fill="none" xmlns="http://www.w3.org/2000/svg" xmlns:xlink="http://www.w3.org/1999/xlink">
	<desc>
			Created with Pixso.
	</desc>
	<defs/>
	<path id="Vector" d="M22.49 42.77C22.34 42.93 22.15 43.05 21.94 43.14C21.73 43.22 21.51 43.27 21.29 43.27C21.06 43.27 20.84 43.22 20.63 43.14C20.43 43.05 20.24 42.93 20.08 42.77L-0.37 22.43C-0.53 22.27 -0.66 22.09 -0.74 21.88C-0.83 21.67 -0.87 21.45 -0.87 21.23C-0.87 21.01 -0.83 20.79 -0.74 20.58C-0.66 20.37 -0.53 20.19 -0.37 20.03L20.08 -0.31C20.4 -0.63 20.83 -0.8 21.29 -0.8C21.74 -0.8 22.17 -0.63 22.49 -0.31C22.81 0.01 22.99 0.44 22.99 0.89C22.99 1.34 22.81 1.77 22.49 2.09L3.24 21.23L22.49 40.37C22.65 40.53 22.78 40.71 22.86 40.92C22.95 41.12 23 41.34 23 41.57C23 41.79 22.95 42.01 22.86 42.22C22.78 42.42 22.65 42.61 22.49 42.77Z" fill="#FFFFFF" fill-opacity="1.000000" fill-rule="evenodd"/>
</svg>
