<svg width="104.000000" height="99.000000" viewBox="0 0 104 99" fill="none" xmlns="http://www.w3.org/2000/svg" xmlns:xlink="http://www.w3.org/1999/xlink">
	<desc>
			Created with Pixso.
	</desc>
	<defs/>
	<path d="M88.33 83.02C88.5 83.01 88.66 82.9 88.72 82.74C90.85 77.55 94.04 62.04 94.06 57.94C94.14 40.28 92.42 35.76 86.74 20.8L85.77 18.24C85.68 18.01 85.42 17.88 85.19 17.97C84.96 18.06 84.84 18.32 84.93 18.55L85.9 21.11C91.53 35.95 93.23 40.44 93.15 57.93C93.13 61.96 89.98 77.26 87.88 82.39C87.78 82.63 87.89 82.89 88.12 82.98C88.2 83.01 88.26 83.02 88.33 83.02Z" fill="#40DDB6" fill-opacity="1.000000" fill-rule="nonzero"/>
	<path d="M93.14 62.89C93.19 62.89 93.23 62.88 93.28 62.86C93.51 62.77 93.63 62.52 93.54 62.28C92.58 59.66 90.25 57.28 88.7 55.7L88.37 55.36C87.51 54.49 85.51 52.14 84.93 51.08C84.67 50.59 84.41 50.14 84.16 49.7C82.45 46.68 81.42 44.85 81 39.86C80.99 39.61 80.77 39.41 80.51 39.45C80.26 39.47 80.08 39.69 80.1 39.94C80.54 45.13 81.66 47.12 83.37 50.14C83.62 50.57 83.87 51.03 84.14 51.52C84.77 52.66 86.82 55.06 87.72 55.99L88.05 56.33C89.64 57.94 91.81 60.15 92.7 62.59C92.77 62.78 92.96 62.9 93.14 62.89Z" fill="#40DDB6" fill-opacity="1.000000" fill-rule="nonzero"/>
	<path d="M93.49 45.46C93.64 45.46 93.79 45.37 93.87 45.21C95.2 42.59 96.53 39.9 97.8 37.25C99.17 34.36 100.45 31.29 99.7 28.25C99.64 28.01 99.4 27.86 99.16 27.92C98.92 27.98 98.77 28.23 98.83 28.47C99.51 31.22 98.29 34.12 96.99 36.85C95.72 39.5 94.4 42.18 93.06 44.8C92.95 45.02 93.04 45.29 93.26 45.4C93.34 45.46 93.41 45.46 93.49 45.46Z" fill="#40DDB6" fill-opacity="1.000000" fill-rule="nonzero"/>
	<path d="M86.68 9.38C89.09 11.52 89.31 15.21 87.17 17.62C85.03 20.04 81.34 20.26 78.93 18.11C76.52 15.97 76.3 12.28 78.44 9.87C80.58 7.46 84.27 7.24 86.68 9.38Z" fill="#40DDB6" fill-opacity="1.000000" fill-rule="evenodd"/>
	<path d="M93.81 24.91C93.96 27.36 96.06 29.24 98.51 29.1C100.96 28.96 102.84 26.85 102.7 24.4C102.56 21.95 100.45 20.07 98 20.21C95.54 20.35 93.67 22.46 93.81 24.91Z" fill="#40DDB6" fill-opacity="1.000000" fill-rule="nonzero"/>
	<path d="M75.89 36.46C76.03 38.91 78.13 40.79 80.59 40.65C83.04 40.51 84.93 38.41 84.78 35.95C84.64 33.5 82.54 31.62 80.09 31.76C77.63 31.9 75.75 34 75.89 36.46Z" fill="#40DDB6" fill-opacity="1.000000" fill-rule="nonzero"/>
	<path d="M81.33 33C81.54 32.99 81.72 32.83 81.74 32.62C81.87 31.79 82.3 30.12 82.65 29.32C82.75 29.09 82.65 28.82 82.42 28.72C82.19 28.63 81.92 28.72 81.82 28.96C81.43 29.85 80.98 31.59 80.85 32.49C80.82 32.74 80.99 32.98 81.24 33.01C81.26 33 81.3 33.01 81.33 33Z" fill="#40DDB6" fill-opacity="1.000000" fill-rule="nonzero"/>
	<path d="M79 33.37C79.14 33.36 79.28 33.28 79.36 33.15C79.49 32.94 79.43 32.66 79.21 32.53C79.19 32.5 78.99 32.28 78.84 31.03C78.8 30.69 78.84 30.38 78.88 30.05C78.92 29.76 78.96 29.46 78.95 29.13C78.94 28.88 78.74 28.68 78.49 28.68C78.27 28.68 78.04 28.89 78.04 29.14C78.05 29.43 78.02 29.69 77.98 29.94C77.94 30.31 77.88 30.69 77.94 31.14C78.09 32.41 78.33 33.06 78.74 33.31C78.82 33.35 78.91 33.37 79 33.37Z" fill="#40DDB6" fill-opacity="1.000000" fill-rule="nonzero"/>
	<path d="M78.13 34.15C78.2 34.15 78.29 34.13 78.35 34.08C78.56 33.95 78.62 33.67 78.49 33.46C77.43 31.76 76.55 30.71 75.8 30.23C75.58 30.1 75.31 30.16 75.17 30.37C75.04 30.59 75.1 30.86 75.32 31C75.94 31.4 76.75 32.39 77.72 33.94C77.81 34.08 77.97 34.16 78.13 34.15Z" fill="#40DDB6" fill-opacity="1.000000" fill-rule="nonzero"/>
	<path d="M99.57 21.83C99.77 21.83 99.93 21.67 99.96 21.48C100.07 20.71 100.47 19.18 100.8 18.43C100.89 18.21 100.8 17.97 100.59 17.88C100.37 17.79 100.13 17.88 100.04 18.09C99.68 18.91 99.26 20.51 99.13 21.35C99.1 21.58 99.26 21.79 99.49 21.83C99.51 21.83 99.54 21.83 99.57 21.83Z" fill="#40DDB6" fill-opacity="1.000000" fill-rule="nonzero"/>
	<path d="M98.33 22.11C98.47 22.1 98.59 22.03 98.66 21.91C98.78 21.71 98.72 21.45 98.52 21.33C98.49 21.31 98.31 21.1 98.17 19.95C98.13 19.56 98.16 19.21 98.21 18.73C98.23 18.5 98.25 18.24 98.28 17.93C98.3 17.7 98.12 17.5 97.89 17.48C97.66 17.48 97.46 17.64 97.44 17.88C97.42 18.17 97.4 18.43 97.37 18.65C97.32 19.16 97.28 19.57 97.33 20.05C97.47 21.22 97.69 21.82 98.07 22.05C98.16 22.1 98.25 22.12 98.33 22.11Z" fill="#40DDB6" fill-opacity="1.000000" fill-rule="nonzero"/>
	<path d="M97.53 22.83C97.6 22.83 97.66 22.81 97.73 22.77C97.92 22.65 97.98 22.39 97.86 22.19C96.89 20.63 96.08 19.66 95.38 19.22C95.19 19.1 94.93 19.16 94.8 19.35C94.68 19.54 94.74 19.8 94.93 19.93C95.51 20.29 96.25 21.21 97.15 22.64C97.24 22.77 97.38 22.84 97.53 22.83Z" fill="#40DDB6" fill-opacity="1.000000" fill-rule="nonzero"/>
	<path d="M80.09 9.53C80.17 9.52 80.25 9.51 80.32 9.46C80.52 9.32 80.58 9.04 80.44 8.84C79.97 8.13 79.19 6.62 78.91 5.78C78.83 5.54 78.57 5.41 78.34 5.49C78.1 5.58 77.97 5.83 78.05 6.07C78.36 6.98 79.19 8.58 79.69 9.35C79.78 9.47 79.93 9.54 80.09 9.53Z" fill="#40DDB6" fill-opacity="1.000000" fill-rule="nonzero"/>
	<path d="M79.41 10.41C79.44 10.41 79.48 10.4 79.52 10.39C79.76 10.34 79.93 10.1 79.87 9.86C79.83 9.61 79.58 9.45 79.35 9.51C79.3 9.51 79.01 9.47 78.06 8.64C77.8 8.42 77.63 8.16 77.44 7.88C77.27 7.64 77.1 7.39 76.87 7.14C76.7 6.96 76.41 6.95 76.23 7.13C76.04 7.3 76.03 7.58 76.21 7.77C76.4 7.97 76.55 8.19 76.7 8.4C76.91 8.71 77.14 9.03 77.47 9.33C78.36 10.09 78.95 10.43 79.41 10.41Z" fill="#40DDB6" fill-opacity="1.000000" fill-rule="nonzero"/>
	<path d="M79.34 11.56C79.52 11.56 79.69 11.43 79.75 11.24C79.82 10.99 79.67 10.74 79.43 10.67C77.52 10.13 76.15 9.93 75.28 10.08C75.03 10.12 74.87 10.35 74.91 10.6C74.95 10.85 75.18 11.02 75.43 10.98C76.16 10.85 77.43 11.05 79.19 11.55C79.24 11.56 79.28 11.56 79.34 11.56Z" fill="#40DDB6" fill-opacity="1.000000" fill-rule="nonzero"/>
	<path d="M91.11 70.79C90.06 70.75 88.17 70.09 87.48 69.11C87.34 68.91 86.62 67.84 86.47 67.04C86.3 66.11 86.3 65.33 86.47 64.25C86.71 62.76 86.76 62.69 87.02 62.6C87.18 62.53 87.38 62.46 88.78 63.43C90.44 64.58 92.01 67.39 91.76 70.09C91.75 70.23 91.68 70.34 91.58 70.41C91.55 70.63 91.38 70.79 91.16 70.8C91.14 70.79 91.13 70.79 91.11 70.79ZM87.36 64.4C87.2 65.38 87.2 66.05 87.35 66.87C87.43 67.32 87.85 68.06 88.22 68.6C88.63 69.17 89.94 69.74 90.86 69.86C91.01 67.57 89.65 65.15 88.26 64.18C88.16 64.11 87.79 63.88 87.48 63.69C87.44 63.94 87.39 64.24 87.36 64.4Z" fill="#40DDB6" fill-opacity="1.000000" fill-rule="nonzero"/>
	<path d="M81.89 54.22C81.67 54.2 80.53 54.07 79.89 53.7C79.17 53.28 78.63 52.83 78.01 52.09C77.16 51.08 77.12 51.01 77.21 50.75C77.26 50.61 77.32 50.44 78.79 50.05C80.55 49.58 83.36 50.15 85.03 51.89C85.11 51.98 85.15 52.09 85.15 52.19C85.28 52.35 85.28 52.58 85.14 52.73C84.56 53.36 83.23 54.16 82.19 54.22C82.09 54.23 81.99 54.23 81.89 54.22ZM79.01 50.83C78.9 50.86 78.53 50.97 78.22 51.07C78.34 51.21 78.48 51.38 78.63 51.56C79.2 52.24 79.66 52.62 80.31 53C80.66 53.2 81.4 53.35 81.98 53.41C82.62 53.48 83.75 52.91 84.37 52.35C82.9 50.93 80.47 50.45 79.01 50.83Z" fill="#40DDB6" fill-opacity="1.000000" fill-rule="nonzero"/>
	<path d="M84.61 51.96C84.52 51.92 84.44 51.83 84.41 51.71C83.75 49.39 84.68 46.68 85.97 45.39C87.04 44.31 87.23 44.35 87.38 44.38C87.63 44.42 87.68 44.47 88.13 45.74C88.45 46.66 88.57 47.35 88.57 48.18C88.57 48.91 88.1 49.97 88.01 50.17C87.56 51.14 86.01 52.02 85.09 52.22C85.08 52.23 85.05 52.23 85.03 52.23C84.84 52.25 84.67 52.13 84.61 51.96ZM86.53 45.96C85.46 47.03 84.65 49.38 85.15 51.37C85.94 51.11 87 50.4 87.26 49.83C87.5 49.31 87.75 48.59 87.75 48.18C87.75 47.43 87.64 46.85 87.35 46.02C87.29 45.84 87.21 45.62 87.13 45.41C86.9 45.62 86.6 45.89 86.53 45.96Z" fill="#40DDB6" fill-opacity="1.000000" fill-rule="nonzero"/>
	<path d="M93.71 54.31C93.51 54.27 93.38 54.08 93.38 53.88C93.31 53.8 93.28 53.68 93.3 53.57C93.62 51.18 95.55 49.06 97.24 48.39C98.65 47.83 98.8 47.93 98.93 48.01C99.14 48.16 99.17 48.23 99.08 49.57C99.01 50.54 98.86 51.21 98.52 51.98C98.23 52.63 97.45 53.37 97.21 53.59C96.66 54.07 95.68 54.32 94.81 54.36C94.4 54.39 94.01 54.37 93.71 54.31ZM97.54 49.14C96.13 49.69 94.45 51.53 94.12 53.55C94.95 53.62 96.2 53.41 96.67 52.98C97.1 52.59 97.62 52.03 97.78 51.65C98.08 50.96 98.22 50.39 98.28 49.5C98.29 49.32 98.3 49.07 98.31 48.86C98 48.97 97.64 49.1 97.54 49.14Z" fill="#40DDB6" fill-opacity="1.000000" fill-rule="nonzero"/>
	<path d="M96.71 38.84C96.54 38.74 96.48 38.54 96.56 38.37C96.52 38.27 96.52 38.16 96.58 38.07C97.57 36.1 99.87 34.83 101.53 34.74C101.55 34.74 101.57 34.74 101.59 34.74C102.99 34.68 103.1 34.82 103.18 34.93C103.33 35.12 103.31 35.2 102.84 36.33C102.49 37.16 102.15 37.7 101.62 38.26C101.16 38.76 100.19 39.18 100 39.26C99.79 39.35 99.54 39.4 99.26 39.41C98.36 39.47 97.28 39.18 96.71 38.84ZM101.6 35.49C100.18 35.57 98.19 36.64 97.29 38.31C97.99 38.63 99.15 38.81 99.69 38.58C100.18 38.38 100.79 38.04 101.05 37.76C101.52 37.25 101.82 36.79 102.14 36.03C102.23 35.82 102.31 35.63 102.36 35.49C102.06 35.48 101.7 35.48 101.6 35.49Z" fill="#40DDB6" fill-opacity="1.000000" fill-rule="nonzero"/>
	<path d="M96.26 38.61C95.41 38.46 93.94 37.72 93.48 36.84C93.38 36.66 92.91 35.71 92.88 35.04C92.84 34.26 92.92 33.63 93.18 32.76C93.54 31.58 93.58 31.52 93.81 31.47C93.95 31.43 94.12 31.4 95.16 32.34C96.4 33.47 97.37 35.94 96.86 38.11C96.83 38.22 96.77 38.31 96.68 38.35C96.64 38.5 96.5 38.61 96.34 38.62C96.33 38.61 96.29 38.61 96.26 38.61ZM93.9 32.97C93.67 33.75 93.59 34.3 93.63 34.98C93.64 35.36 93.9 36.01 94.14 36.49C94.41 37 95.42 37.61 96.16 37.82C96.53 35.96 95.68 33.83 94.65 32.89C94.58 32.82 94.3 32.58 94.07 32.41C94.02 32.59 93.96 32.81 93.9 32.97Z" fill="#40DDB6" fill-opacity="1.000000" fill-rule="nonzero"/>
	<path d="M85.02 26.96C84.77 26.83 83.88 26.37 83.46 25.86C82.97 25.27 82.66 24.7 82.36 23.86C81.94 22.68 81.95 22.62 82.1 22.44C82.19 22.33 82.31 22.2 83.71 22.35C85.37 22.52 87.62 23.93 88.5 25.98C88.54 26.08 88.54 26.18 88.5 26.28C88.56 26.46 88.49 26.66 88.31 26.75C87.88 26.97 87.17 27.15 86.48 27.19C85.94 27.2 85.42 27.15 85.02 26.96ZM83.62 23.08C83.53 23.07 83.16 23.05 82.87 23.04C82.92 23.21 82.99 23.41 83.05 23.6C83.33 24.37 83.6 24.85 84.03 25.38C84.28 25.68 84.86 26.05 85.34 26.28C85.87 26.54 87.04 26.42 87.75 26.15C86.97 24.44 85.01 23.22 83.62 23.08Z" fill="#40DDB6" fill-opacity="1.000000" fill-rule="nonzero"/>
	<path d="M88 25.96C87.92 25.9 87.86 25.81 87.85 25.7C87.6 23.48 88.85 21.15 90.2 20.18C91.33 19.36 91.52 19.42 91.64 19.46C91.87 19.54 91.9 19.62 92.12 20.82C92.28 21.7 92.29 22.34 92.16 23.11C92.06 23.76 91.52 24.6 91.35 24.84C90.8 25.66 89.26 26.23 88.39 26.27C88.19 26.28 88.03 26.15 88 25.96ZM90.64 20.77C89.51 21.59 88.41 23.61 88.58 25.5C89.34 25.38 90.41 24.9 90.74 24.41C91.04 23.96 91.37 23.35 91.43 22.98C91.55 22.29 91.54 21.75 91.39 20.93C91.34 20.71 91.31 20.51 91.28 20.35C91.02 20.52 90.72 20.72 90.64 20.77Z" fill="#40DDB6" fill-opacity="1.000000" fill-rule="nonzero"/>
	<path d="M91.58 70.25C91.4 70.11 91.35 69.85 91.48 69.66C91.45 69.54 91.48 69.41 91.55 69.3C93.13 67.1 96.16 66.01 98.16 66.24C99.86 66.43 99.96 66.63 100.04 66.77C100.18 67.02 100.17 67.11 99.37 68.38C98.79 69.31 98.29 69.9 97.55 70.48C96.91 70.98 95.66 71.31 95.42 71.38C95.29 71.41 95.15 71.43 95.01 71.44C93.86 71.49 92.31 70.84 91.58 70.25ZM98.07 67.13C96.38 66.95 93.76 67.87 92.38 69.71C93.15 70.22 94.52 70.66 95.2 70.49C95.84 70.33 96.63 70.04 97 69.75C97.65 69.24 98.09 68.73 98.62 67.89C98.71 67.74 98.86 67.49 98.99 67.28C98.63 67.21 98.19 67.15 98.07 67.13Z" fill="#40DDB6" fill-opacity="1.000000" fill-rule="nonzero"/>
	<path d="M49.45 98.97C62.98 98.97 75.62 93.61 85.03 83.87L83.53 82.41C74.51 91.74 62.42 96.86 49.46 96.86C23.33 96.86 2.07 75.6 2.07 49.48C2.07 23.35 23.31 2.09 49.45 2.09C56.31 2.09 62.93 3.52 69.12 6.35L70 4.45C63.53 1.49 56.62 0 49.45 0C22.15 0 -0.04 22.19 -0.04 49.48C-0.04 76.78 22.15 98.97 49.45 98.97Z" fill="#6B77E5" fill-opacity="1.000000" fill-rule="nonzero"/>
	<path d="M18.91 34.86C18.23 34.48 17.7 33.96 17.31 33.28C16.91 32.6 16.71 31.84 16.71 31.01C16.71 30.17 16.9 29.41 17.31 28.74C17.7 28.07 18.23 27.55 18.91 27.17C19.59 26.8 20.33 26.61 21.13 26.61C21.94 26.61 22.68 26.8 23.35 27.17C24.03 27.55 24.55 28.07 24.94 28.74C25.34 29.41 25.52 30.17 25.52 31.01C25.52 31.84 25.33 32.6 24.94 33.28C24.54 33.96 24.01 34.47 23.34 34.86C22.67 35.23 21.93 35.42 21.12 35.42C20.32 35.42 19.58 35.23 18.91 34.86ZM22.78 32.82C23.19 32.37 23.39 31.76 23.39 31.01C23.39 30.26 23.19 29.65 22.78 29.2C22.37 28.74 21.82 28.52 21.13 28.52C20.43 28.52 19.88 28.74 19.47 29.2C19.06 29.64 18.86 30.26 18.86 31.02C18.86 31.78 19.06 32.39 19.47 32.84C19.88 33.3 20.43 33.52 21.13 33.52C21.82 33.51 22.37 33.28 22.78 32.82Z" fill="#37393F" fill-opacity="1.000000" fill-rule="nonzero"/>
	<path d="M37.2 35.34L35.41 32.09L34.91 32.09L34.91 35.34L32.82 35.34L32.82 26.74L36.33 26.74C37 26.74 37.58 26.85 38.06 27.09C38.54 27.33 38.89 27.65 39.13 28.06C39.36 28.47 39.48 28.94 39.48 29.45C39.48 30.02 39.32 30.52 39 30.98C38.68 31.43 38.2 31.75 37.58 31.93L39.56 35.34L37.2 35.34ZM34.91 30.6L36.21 30.6C36.59 30.6 36.88 30.51 37.08 30.32C37.26 30.13 37.36 29.86 37.36 29.53C37.36 29.2 37.26 28.95 37.08 28.75C36.88 28.56 36.59 28.47 36.21 28.47L34.91 28.47L34.91 30.6Z" fill="#37393F" fill-opacity="1.000000" fill-rule="nonzero"/>
	<path d="M52.63 29.45C52.48 29.17 52.26 28.95 51.96 28.79C51.67 28.64 51.33 28.57 50.94 28.57C50.26 28.57 49.72 28.79 49.31 29.24C48.9 29.69 48.69 30.28 48.69 31.02C48.69 31.82 48.91 32.43 49.33 32.88C49.76 33.32 50.35 33.55 51.11 33.55C51.62 33.55 52.06 33.41 52.41 33.15C52.76 32.9 53.02 32.52 53.18 32.03L50.53 32.03L50.53 30.49L55.08 30.49L55.08 32.44C54.93 32.97 54.66 33.45 54.29 33.9C53.91 34.35 53.44 34.71 52.87 34.99C52.3 35.27 51.65 35.41 50.94 35.41C50.09 35.41 49.33 35.22 48.66 34.85C48 34.47 47.48 33.96 47.1 33.3C46.73 32.64 46.54 31.88 46.54 31.03C46.54 30.19 46.73 29.43 47.1 28.76C47.48 28.09 48 27.57 48.66 27.2C49.32 26.82 50.07 26.64 50.92 26.64C51.94 26.64 52.82 26.89 53.52 27.39C54.23 27.89 54.7 28.57 54.92 29.45L52.63 29.45Z" fill="#37393F" fill-opacity="1.000000" fill-rule="nonzero"/>
	<path d="M22.41 49.83L19.2 49.83L18.69 51.35L16.49 51.35L19.61 42.75L22.03 42.75L25.14 51.35L22.92 51.35L22.41 49.83ZM21.88 48.22L20.81 45.07L19.76 48.22L21.88 48.22Z" fill="#37393F" fill-opacity="1.000000" fill-rule="nonzero"/>
	<path d="M39.91 51.36L37.82 51.36L34.31 46.05L34.31 51.36L32.22 51.36L32.22 42.75L34.31 42.75L37.82 48.08L37.82 42.75L39.91 42.75L39.91 51.36Z" fill="#37393F" fill-opacity="1.000000" fill-rule="nonzero"/>
	<path d="M49.64 42.75L49.64 51.36L47.55 51.36L47.55 42.75L49.64 42.75Z" fill="#37393F" fill-opacity="1.000000" fill-rule="nonzero"/>
	<path d="M17.26 60.79C17.63 60.12 18.14 59.6 18.79 59.23C19.44 58.85 20.19 58.66 21.03 58.66C22.06 58.66 22.93 58.93 23.65 59.48C24.38 60.01 24.86 60.75 25.11 61.68L22.81 61.68C22.64 61.32 22.4 61.04 22.08 60.86C21.77 60.67 21.41 60.57 21.01 60.57C20.37 60.57 19.85 60.8 19.44 61.25C19.04 61.7 18.85 62.3 18.85 63.05C18.85 63.8 19.04 64.41 19.44 64.85C19.85 65.3 20.37 65.53 21.01 65.53C21.41 65.53 21.77 65.44 22.08 65.24C22.39 65.06 22.64 64.78 22.81 64.42L25.11 64.42C24.87 65.35 24.38 66.09 23.65 66.62C22.92 67.16 22.05 67.43 21.03 67.43C20.2 67.43 19.45 67.24 18.79 66.87C18.13 66.49 17.63 65.97 17.26 65.31C16.9 64.65 16.71 63.9 16.71 63.05C16.71 62.21 16.9 61.46 17.26 60.79Z" fill="#37393F" fill-opacity="1.000000" fill-rule="nonzero"/>
	<path d="M37.88 65.85L34.67 65.85L34.15 67.37L31.96 67.37L35.07 58.76L37.5 58.76L40.61 67.37L38.39 67.37L37.88 65.85ZM37.33 64.24L36.27 61.09L35.21 64.24L37.33 64.24Z" fill="#37393F" fill-opacity="1.000000" fill-rule="nonzero"/>
	<path d="M49.77 65.75L52.51 65.75L52.51 67.37L47.67 67.37L47.67 58.76L49.77 58.76L49.77 65.75Z" fill="#37393F" fill-opacity="1.000000" fill-rule="nonzero"/>
	<path d="M18.86 75.3C18.98 75.45 19.04 75.63 19.04 75.83C19.04 75.99 19 76.14 18.91 76.27C18.82 76.4 18.7 76.51 18.54 76.58C18.38 76.66 18.18 76.7 17.97 76.7L16.66 76.7L16.66 73.43L17.9 73.43C18.13 73.43 18.32 73.46 18.48 73.54C18.64 73.62 18.77 73.72 18.85 73.85C18.93 73.97 18.97 74.11 18.97 74.27C18.97 74.46 18.92 74.62 18.82 74.75C18.72 74.87 18.59 74.97 18.42 75.02C18.59 75.05 18.73 75.14 18.86 75.3ZM17.19 74.8L17.86 74.8C18.04 74.8 18.17 74.76 18.27 74.68C18.37 74.6 18.42 74.49 18.42 74.34C18.42 74.19 18.37 74.08 18.27 73.99C18.17 73.91 18.03 73.86 17.86 73.86L17.19 73.86L17.19 74.8ZM18.35 76.13C18.46 76.04 18.5 75.91 18.5 75.76C18.5 75.6 18.45 75.48 18.33 75.38C18.22 75.28 18.07 75.24 17.89 75.24L17.19 75.24L17.19 76.26L17.91 76.26C18.1 76.26 18.24 76.22 18.35 76.13Z" fill="#37393F" fill-opacity="1.000000" fill-rule="nonzero"/>
	<path d="M22.64 76.52C22.38 76.38 22.18 76.18 22.03 75.92C21.88 75.66 21.81 75.38 21.81 75.06C21.81 74.74 21.88 74.45 22.03 74.19C22.18 73.94 22.38 73.74 22.64 73.6C22.89 73.45 23.17 73.38 23.47 73.38C23.79 73.38 24.06 73.45 24.32 73.6C24.58 73.74 24.78 73.94 24.93 74.19C25.08 74.45 25.15 74.74 25.15 75.06C25.15 75.38 25.08 75.66 24.93 75.92C24.78 76.18 24.58 76.38 24.32 76.52C24.06 76.66 23.79 76.73 23.47 76.73C23.17 76.73 22.88 76.66 22.64 76.52ZM24.05 76.12C24.22 76.02 24.36 75.88 24.45 75.69C24.55 75.5 24.6 75.3 24.6 75.05C24.6 74.81 24.55 74.59 24.45 74.42C24.36 74.24 24.22 74.1 24.05 74C23.88 73.9 23.69 73.86 23.47 73.86C23.26 73.86 23.06 73.9 22.89 74C22.72 74.1 22.59 74.24 22.49 74.42C22.39 74.59 22.35 74.81 22.35 75.05C22.35 75.29 22.39 75.5 22.49 75.69C22.59 75.88 22.72 76.01 22.89 76.12C23.06 76.22 23.26 76.27 23.47 76.27C23.69 76.27 23.88 76.22 24.05 76.12Z" fill="#37393F" fill-opacity="1.000000" fill-rule="nonzero"/>
	<path d="M30.14 73.43L30.14 73.86L29.27 73.86L29.27 76.7L28.73 76.7L28.73 73.86L27.86 73.86L27.86 73.43L30.14 73.43Z" fill="#37393F" fill-opacity="1.000000" fill-rule="nonzero"/>
	<path d="M35.02 76.03L33.64 76.03L33.41 76.7L32.85 76.7L34.03 73.42L34.65 73.42L35.83 76.7L35.27 76.7L35.02 76.03ZM34.87 75.59L34.33 74.07L33.8 75.59L34.87 75.59Z" fill="#37393F" fill-opacity="1.000000" fill-rule="nonzero"/>
	<path d="M41.37 76.7L40.84 76.7L39.22 74.26L39.22 76.7L38.69 76.7L38.69 73.42L39.22 73.42L40.84 75.86L40.84 73.42L41.37 73.42L41.37 76.7Z" fill="#37393F" fill-opacity="1.000000" fill-rule="nonzero"/>
	<path d="M44.97 73.43L44.97 76.7L44.44 76.7L44.44 73.43L44.97 73.43Z" fill="#37393F" fill-opacity="1.000000" fill-rule="nonzero"/>
	<path d="M48.08 74.19C48.23 73.94 48.42 73.74 48.68 73.6C48.94 73.45 49.22 73.38 49.52 73.38C49.87 73.38 50.18 73.47 50.45 73.64C50.71 73.81 50.92 74.05 51.04 74.37L50.39 74.37C50.31 74.2 50.19 74.07 50.04 73.99C49.88 73.9 49.72 73.86 49.51 73.86C49.3 73.86 49.1 73.91 48.93 74.01C48.76 74.1 48.63 74.25 48.53 74.43C48.43 74.6 48.39 74.82 48.39 75.06C48.39 75.3 48.43 75.51 48.53 75.69C48.63 75.87 48.76 76.01 48.93 76.11C49.1 76.21 49.3 76.26 49.51 76.26C49.71 76.26 49.88 76.22 50.04 76.14C50.19 76.05 50.3 75.92 50.39 75.75L51.04 75.75C50.91 76.07 50.71 76.31 50.45 76.48C50.17 76.65 49.87 76.73 49.52 76.73C49.21 76.73 48.93 76.66 48.67 76.52C48.41 76.38 48.22 76.18 48.07 75.92C47.91 75.66 47.84 75.38 47.84 75.06C47.84 74.74 47.92 74.44 48.08 74.19Z" fill="#37393F" fill-opacity="1.000000" fill-rule="nonzero"/>
	<path d="M56.01 76.03L54.64 76.03L54.4 76.7L53.84 76.7L55.02 73.42L55.64 73.42L56.82 76.7L56.26 76.7L56.01 76.03ZM55.86 75.59L55.32 74.07L54.79 75.59L55.86 75.59Z" fill="#37393F" fill-opacity="1.000000" fill-rule="nonzero"/>
	<path d="M60.21 76.26L61.31 76.26L61.31 76.7L59.67 76.7L59.67 73.43L60.21 73.43L60.21 76.26Z" fill="#37393F" fill-opacity="1.000000" fill-rule="nonzero"/>
	<path d="M55.04 44.64L55.04 45.61L56.17 45.61L56.17 46.04L55.04 46.04L55.04 47.05L56.31 47.05L56.31 47.49L54.5 47.49L54.5 44.21L56.31 44.21L56.31 44.64L55.04 44.64Z" fill="#37393F" fill-opacity="1.000000" fill-rule="nonzero"/>
	<path d="M58.87 47.41C58.69 47.33 58.56 47.22 58.46 47.08C58.36 46.93 58.31 46.77 58.31 46.59L58.88 46.59C58.89 46.73 58.95 46.85 59.05 46.93C59.15 47.02 59.29 47.07 59.47 47.07C59.65 47.07 59.8 47.02 59.9 46.93C60.01 46.85 60.06 46.73 60.06 46.59C60.06 46.48 60.02 46.39 59.96 46.32C59.9 46.25 59.82 46.2 59.72 46.16C59.62 46.12 59.49 46.08 59.32 46.03C59.1 45.98 58.93 45.92 58.8 45.87C58.66 45.81 58.55 45.71 58.46 45.6C58.36 45.47 58.32 45.31 58.32 45.11C58.32 44.92 58.36 44.75 58.46 44.61C58.56 44.47 58.68 44.36 58.85 44.29C59.02 44.22 59.22 44.17 59.44 44.17C59.76 44.17 60.02 44.25 60.22 44.41C60.43 44.57 60.54 44.79 60.56 45.06L59.97 45.06C59.96 44.95 59.9 44.84 59.8 44.76C59.69 44.68 59.56 44.64 59.39 44.64C59.24 44.64 59.11 44.67 59.01 44.75C58.91 44.83 58.87 44.94 58.87 45.09C58.87 45.19 58.9 45.28 58.96 45.34C59.02 45.4 59.1 45.46 59.19 45.49C59.29 45.53 59.41 45.57 59.57 45.62C59.79 45.68 59.97 45.73 60.1 45.79C60.23 45.86 60.35 45.95 60.45 46.07C60.55 46.2 60.59 46.36 60.59 46.57C60.59 46.74 60.55 46.89 60.46 47.04C60.37 47.19 60.23 47.31 60.06 47.4C59.9 47.49 59.69 47.53 59.46 47.53C59.24 47.52 59.05 47.48 58.87 47.41Z" fill="#37393F" fill-opacity="1.000000" fill-rule="nonzero"/>
	<path d="M64.76 44.22L64.76 44.65L63.89 44.65L63.89 47.49L63.35 47.49L63.35 44.65L62.48 44.65L62.48 44.22L64.76 44.22Z" fill="#37393F" fill-opacity="1.000000" fill-rule="nonzero"/>
	<path d="M54.74 52.41C55.04 52.15 55.27 51.94 55.45 51.77C55.63 51.6 55.77 51.42 55.88 51.24C56 51.06 56.06 50.87 56.06 50.7C56.06 50.51 56.02 50.36 55.93 50.25C55.84 50.14 55.7 50.09 55.51 50.09C55.32 50.09 55.18 50.15 55.08 50.27C54.98 50.38 54.92 50.55 54.92 50.74L54.41 50.74C54.41 50.38 54.52 50.11 54.73 49.92C54.93 49.73 55.19 49.64 55.51 49.64C55.85 49.64 56.12 49.73 56.31 49.92C56.51 50.11 56.61 50.36 56.61 50.68C56.61 50.9 56.55 51.12 56.44 51.33C56.32 51.53 56.19 51.72 56.03 51.89C55.87 52.06 55.67 52.25 55.42 52.46L55.21 52.65L56.7 52.65L56.7 53.09L54.41 53.09L54.41 52.7L54.74 52.41Z" fill="#37393F" fill-opacity="1.000000" fill-rule="nonzero"/>
	<path d="M58.84 50.11C59.03 49.81 59.34 49.64 59.8 49.64C60.25 49.64 60.56 49.8 60.74 50.11C60.93 50.41 61.02 50.84 61.02 51.38C61.02 51.94 60.93 52.36 60.74 52.68C60.55 52.99 60.24 53.14 59.8 53.14C59.35 53.14 59.03 52.99 58.84 52.68C58.66 52.36 58.57 51.94 58.57 51.38C58.57 50.84 58.66 50.41 58.84 50.11ZM60.44 50.73C60.4 50.55 60.34 50.41 60.24 50.3C60.15 50.2 59.99 50.13 59.8 50.13C59.6 50.13 59.45 50.19 59.35 50.3C59.25 50.42 59.18 50.56 59.16 50.73C59.13 50.9 59.1 51.12 59.1 51.37C59.1 51.64 59.12 51.86 59.15 52.04C59.17 52.23 59.25 52.36 59.34 52.48C59.44 52.59 59.59 52.65 59.79 52.65C59.98 52.65 60.14 52.6 60.23 52.48C60.33 52.37 60.4 52.22 60.43 52.04C60.46 51.86 60.47 51.64 60.47 51.37C60.48 51.12 60.47 50.91 60.44 50.73Z" fill="#37393F" fill-opacity="1.000000" fill-rule="nonzero"/>
	<path d="M63.29 52.41C63.59 52.15 63.83 51.94 64 51.77C64.18 51.6 64.33 51.42 64.44 51.24C64.56 51.06 64.62 50.87 64.62 50.7C64.62 50.51 64.58 50.36 64.49 50.25C64.4 50.14 64.25 50.09 64.07 50.09C63.88 50.09 63.74 50.15 63.64 50.27C63.53 50.38 63.48 50.55 63.48 50.74L62.96 50.74C62.97 50.38 63.08 50.11 63.28 49.92C63.49 49.73 63.75 49.64 64.07 49.64C64.41 49.64 64.67 49.73 64.87 49.92C65.07 50.11 65.16 50.36 65.16 50.68C65.16 50.9 65.11 51.12 64.99 51.33C64.88 51.53 64.75 51.72 64.58 51.89C64.42 52.06 64.23 52.25 63.98 52.46L63.76 52.65L65.25 52.65L65.25 53.09L62.96 53.09L62.96 52.7L63.29 52.41Z" fill="#37393F" fill-opacity="1.000000" fill-rule="nonzero"/>
	<path d="M67.41 50.11C67.6 49.81 67.91 49.64 68.36 49.64C68.82 49.64 69.13 49.8 69.31 50.11C69.5 50.41 69.58 50.84 69.58 51.38C69.58 51.94 69.5 52.36 69.31 52.68C69.12 52.99 68.81 53.14 68.36 53.14C67.92 53.14 67.6 52.99 67.41 52.68C67.22 52.36 67.13 51.94 67.13 51.38C67.13 50.84 67.22 50.41 67.41 50.11ZM69.01 50.73C68.97 50.55 68.91 50.41 68.81 50.3C68.71 50.2 68.56 50.13 68.36 50.13C68.17 50.13 68.02 50.19 67.92 50.3C67.82 50.42 67.75 50.56 67.72 50.73C67.7 50.9 67.67 51.12 67.67 51.37C67.67 51.64 67.69 51.86 67.71 52.04C67.74 52.23 67.81 52.36 67.91 52.48C68.01 52.59 68.16 52.65 68.36 52.65C68.55 52.65 68.7 52.6 68.8 52.48C68.9 52.37 68.97 52.22 69 52.04C69.02 51.86 69.04 51.64 69.04 51.37C69.05 51.12 69.03 50.91 69.01 50.73Z" fill="#37393F" fill-opacity="1.000000" fill-rule="nonzero"/>
</svg>
