<svg width="137.000000" height="44.000000" viewBox="0 0 137 44" fill="none" xmlns="http://www.w3.org/2000/svg" xmlns:xlink="http://www.w3.org/1999/xlink">
	<desc>
			Created with Pixso.
	</desc>
	<defs/>
	<path d="M12.13 -0.4L12.13 -0.21L11.33 -0.02L11.33 8.48L12.13 8.67L12.13 8.86L8.32 8.86L8.32 8.67L9.12 8.48L9.12 1.24L5.97 8.99L5.56 8.99L1.47 1.24L1.47 8.27L2.54 8.67L2.54 8.86L0 8.86L0 8.67L1.07 8.27L1.07 -0.02L0.26 -0.21L0.26 -0.4L1.93 -0.4C2.18 -0.4 2.41 -0.37 2.59 -0.31C2.76 -0.25 2.94 -0.18 3.08 -0.07C3.23 0.03 3.35 0.15 3.45 0.28C3.55 0.41 3.64 0.57 3.73 0.74L6.65 6.27L8.89 0.74C8.96 0.54 9.04 0.38 9.14 0.25C9.23 0.12 9.35 0 9.48 -0.1C9.62 -0.21 9.78 -0.28 9.97 -0.33C10.17 -0.37 10.41 -0.4 10.7 -0.4L12.13 -0.4Z" fill="#40DDB6" fill-opacity="1.000000" fill-rule="nonzero"/>
	<path d="M16.9 2.06C17.45 2.06 17.95 2.14 18.39 2.3C18.82 2.46 19.19 2.7 19.5 2.99C19.82 3.3 20.04 3.67 20.2 4.1C20.37 4.53 20.44 5.03 20.44 5.57C20.44 6.12 20.37 6.62 20.2 7.05C20.04 7.47 19.8 7.84 19.5 8.15C19.19 8.46 18.82 8.68 18.39 8.84C17.95 9.01 17.45 9.08 16.9 9.08C16.35 9.08 15.84 9.01 15.41 8.84C14.98 8.68 14.6 8.45 14.29 8.15C13.98 7.84 13.76 7.47 13.59 7.05C13.43 6.62 13.35 6.12 13.35 5.57C13.35 5.03 13.43 4.53 13.59 4.1C13.76 3.67 13.99 3.3 14.29 2.99C14.6 2.68 14.98 2.46 15.41 2.3C15.84 2.14 16.33 2.06 16.9 2.06ZM16.9 8.83C17.05 8.83 17.2 8.79 17.36 8.68C17.51 8.58 17.64 8.42 17.76 8.17C17.88 7.92 17.99 7.59 18.06 7.18C18.13 6.75 18.18 6.22 18.18 5.59C18.18 4.94 18.13 4.41 18.06 3.99C17.99 3.58 17.88 3.24 17.76 3.01C17.64 2.77 17.51 2.59 17.36 2.49C17.21 2.39 17.06 2.34 16.9 2.34C16.75 2.34 16.6 2.39 16.44 2.49C16.29 2.59 16.15 2.76 16.03 3.01C15.91 3.26 15.81 3.58 15.74 3.99C15.66 4.42 15.62 4.95 15.62 5.59C15.62 6.24 15.66 6.77 15.74 7.18C15.81 7.59 15.91 7.93 16.03 8.17C16.15 8.4 16.29 8.58 16.44 8.68C16.58 8.77 16.73 8.83 16.9 8.83Z" fill="#40DDB6" fill-opacity="1.000000" fill-rule="nonzero"/>
	<path d="M26.95 -0.4C27.75 -0.4 28.16 0 28.16 0.8L28.16 8.49L28.96 8.68L28.96 8.87L27.75 8.87C27.43 8.87 27.17 8.83 26.98 8.73C26.79 8.62 26.62 8.51 26.52 8.39C26.38 8.24 26.28 8.06 26.22 7.89C26.1 8.12 25.95 8.31 25.77 8.49C25.62 8.64 25.42 8.77 25.16 8.9C24.91 9.04 24.61 9.1 24.27 9.1C23.88 9.1 23.52 9.02 23.2 8.87C22.85 8.73 22.57 8.51 22.33 8.21C22.09 7.92 21.89 7.55 21.75 7.12C21.6 6.68 21.54 6.18 21.54 5.59C21.54 5 21.62 4.5 21.75 4.05C21.9 3.61 22.09 3.26 22.36 2.96C22.62 2.67 22.93 2.45 23.29 2.3C23.64 2.15 24.05 2.08 24.49 2.08C24.73 2.08 24.94 2.11 25.13 2.15C25.33 2.21 25.49 2.27 25.62 2.34C25.79 2.42 25.92 2.51 26.04 2.61L26.04 0.03L25.24 -0.16L25.24 -0.35L26.95 -0.35L26.95 -0.4ZM26.01 2.99C25.91 2.89 25.82 2.8 25.7 2.73C25.59 2.65 25.49 2.59 25.37 2.53C25.25 2.48 25.13 2.46 25 2.46C24.83 2.46 24.67 2.51 24.52 2.59C24.37 2.68 24.25 2.83 24.13 3.05C24.03 3.27 23.94 3.6 23.88 3.99C23.82 4.41 23.79 4.92 23.79 5.57C23.79 6.21 23.82 6.71 23.88 7.11C23.94 7.5 24.02 7.81 24.12 8.03C24.21 8.26 24.31 8.42 24.45 8.49C24.57 8.56 24.69 8.61 24.81 8.61C25.01 8.61 25.19 8.55 25.34 8.45C25.49 8.34 25.61 8.21 25.71 8.08C25.83 7.92 25.94 7.74 26.03 7.55L26.03 2.99L26.01 2.99Z" fill="#40DDB6" fill-opacity="1.000000" fill-rule="nonzero"/>
	<path d="M33.44 9.1C32.3 9.1 31.4 8.79 30.78 8.17C30.14 7.55 29.82 6.68 29.82 5.59C29.82 5.04 29.9 4.54 30.06 4.11C30.23 3.68 30.45 3.32 30.73 3.01C31.02 2.7 31.36 2.48 31.78 2.31C32.18 2.15 32.62 2.08 33.12 2.08C33.62 2.08 34.07 2.15 34.46 2.28C34.86 2.43 35.19 2.62 35.47 2.86C35.75 3.09 35.96 3.37 36.11 3.7C36.26 4.02 36.33 4.36 36.33 4.73C36.33 4.85 36.33 4.97 36.32 5.06C36.3 5.14 36.29 5.23 36.27 5.31C36.24 5.39 36.23 5.47 36.2 5.53C35.81 5.6 35.39 5.67 34.95 5.72C34.58 5.78 34.14 5.82 33.65 5.85C33.16 5.88 32.65 5.91 32.12 5.91C32.12 6.46 32.16 6.91 32.24 7.28C32.31 7.65 32.43 7.95 32.56 8.15C32.71 8.37 32.88 8.52 33.07 8.61C33.26 8.7 33.49 8.74 33.71 8.74C33.98 8.74 34.23 8.7 34.47 8.59C34.71 8.49 34.92 8.37 35.08 8.21C35.26 8.05 35.39 7.86 35.5 7.65C35.6 7.44 35.65 7.24 35.65 7.02L35.97 7.02C35.97 7.28 35.91 7.53 35.8 7.78C35.68 8.03 35.5 8.26 35.27 8.45C35.05 8.64 34.78 8.79 34.47 8.9C34.17 9.04 33.83 9.1 33.44 9.1ZM32.1 5.57C32.4 5.57 32.67 5.57 32.91 5.56C33.15 5.54 33.34 5.53 33.5 5.51C33.7 5.5 33.84 5.47 33.98 5.45C33.99 5.37 34.02 5.26 34.04 5.16C34.05 5.06 34.07 4.95 34.08 4.83C34.1 4.72 34.1 4.58 34.1 4.45C34.1 4.05 34.07 3.71 34.01 3.45C33.95 3.18 33.87 2.96 33.77 2.79C33.68 2.62 33.58 2.49 33.44 2.43C33.31 2.37 33.21 2.33 33.09 2.33C32.97 2.33 32.85 2.37 32.73 2.46C32.61 2.55 32.5 2.71 32.4 2.93C32.31 3.17 32.22 3.49 32.16 3.92C32.1 4.35 32.1 4.89 32.1 5.57Z" fill="#40DDB6" fill-opacity="1.000000" fill-rule="nonzero"/>
	<path d="M41.96 2.52C41.69 2.52 41.46 2.58 41.25 2.68C41.04 2.79 40.86 2.92 40.71 3.05C40.55 3.21 40.41 3.39 40.28 3.58L40.28 8.49L41.08 8.68L41.08 8.87L37.33 8.87L37.33 8.68L38.13 8.49L38.13 2.65L37.33 2.46L37.33 2.27L38.54 2.27C38.85 2.27 39.1 2.33 39.31 2.43C39.5 2.53 39.67 2.65 39.79 2.77C39.92 2.92 40.03 3.08 40.08 3.26C40.22 3.07 40.38 2.89 40.58 2.73C40.74 2.59 40.95 2.48 41.2 2.36C41.46 2.24 41.74 2.2 42.08 2.2C42.56 2.2 42.91 2.31 43.15 2.52C43.39 2.74 43.5 3.05 43.5 3.45C43.5 3.74 43.41 3.99 43.23 4.17C43.05 4.35 42.8 4.44 42.5 4.44C42.42 4.44 42.36 4.44 42.29 4.44C42.21 4.44 42.17 4.42 42.12 4.42C42.07 4.41 42.01 4.41 41.96 4.38L41.96 2.52Z" fill="#40DDB6" fill-opacity="1.000000" fill-rule="nonzero"/>
	<path d="M49.26 4.25C49.26 3.95 49.23 3.68 49.17 3.46C49.11 3.24 49.04 3.07 48.93 2.93C48.84 2.79 48.74 2.68 48.6 2.62C48.48 2.56 48.37 2.52 48.25 2.52C48.04 2.52 47.86 2.58 47.71 2.68C47.56 2.79 47.43 2.92 47.34 3.05C47.22 3.21 47.13 3.39 47.04 3.58L47.04 8.49L47.84 8.68L47.84 8.87L44.09 8.87L44.09 8.68L44.89 8.49L44.89 2.65L44.09 2.46L44.09 2.27L45.3 2.27C45.61 2.27 45.86 2.33 46.07 2.43C46.26 2.53 46.43 2.65 46.55 2.77C46.68 2.92 46.79 3.08 46.85 3.26C46.96 3.04 47.11 2.83 47.29 2.65C47.44 2.51 47.65 2.37 47.89 2.24C48.13 2.11 48.44 2.05 48.8 2.05C49.18 2.05 49.54 2.11 49.85 2.24C50.18 2.36 50.45 2.53 50.67 2.73C50.9 2.93 51.08 3.15 51.21 3.42C51.34 3.68 51.4 3.95 51.4 4.23L51.4 8.48L52.21 8.67L52.21 8.86L50.46 8.86C49.66 8.86 49.26 8.46 49.26 7.67L49.26 4.25Z" fill="#40DDB6" fill-opacity="1.000000" fill-rule="nonzero"/>
	<path d="M1.41 18.19L1.41 17.65L11.76 17.65L11.76 18.19L9.59 18.74L9.59 29.87L17.39 29.87L17.39 18.74L15.21 18.19L15.21 17.65L25.57 17.65L25.57 18.19L23.39 18.74L23.39 41.74L25.57 42.28L25.57 42.83L15.21 42.83L15.21 42.27L17.39 41.72L17.39 30.77L9.59 30.77L9.59 41.72L11.76 42.27L11.76 42.81L1.41 42.81L1.41 42.27L3.58 41.72L3.58 18.72L1.41 18.19Z" fill="#37393F" fill-opacity="1.000000" fill-rule="nonzero"/>
	<path d="M38.43 24.3C39.94 24.3 41.28 24.52 42.47 24.94C43.66 25.37 44.66 26.01 45.49 26.83C46.33 27.66 46.96 28.66 47.4 29.84C47.83 31.02 48.05 32.35 48.05 33.83C48.05 35.32 47.83 36.65 47.4 37.83C46.96 39.01 46.33 40 45.49 40.82C44.66 41.65 43.64 42.28 42.47 42.71C41.28 43.14 39.94 43.36 38.43 43.36C36.93 43.36 35.59 43.14 34.4 42.71C33.21 42.28 32.21 41.65 31.37 40.82C30.54 40 29.9 39 29.47 37.83C29.04 36.65 28.81 35.32 28.81 33.83C28.81 32.35 29.04 31.02 29.47 29.84C29.9 28.66 30.54 27.67 31.37 26.83C32.21 25.99 33.22 25.37 34.4 24.94C35.59 24.52 36.93 24.3 38.43 24.3ZM38.43 42.62C38.85 42.62 39.25 42.49 39.67 42.22C40.08 41.96 40.44 41.5 40.77 40.84C41.1 40.17 41.37 39.28 41.57 38.14C41.78 37 41.89 35.56 41.89 33.81C41.89 32.05 41.78 30.61 41.57 29.47C41.37 28.34 41.1 27.44 40.77 26.77C40.44 26.11 40.07 25.65 39.67 25.39C39.27 25.12 38.85 24.99 38.43 24.99C38.01 24.99 37.61 25.12 37.2 25.39C36.78 25.65 36.42 26.11 36.09 26.77C35.77 27.44 35.5 28.34 35.29 29.47C35.08 30.61 34.98 32.05 34.98 33.81C34.98 35.56 35.08 37 35.29 38.14C35.5 39.28 35.77 40.17 36.09 40.84C36.42 41.5 36.79 41.96 37.2 42.22C37.61 42.49 38.01 42.62 38.43 42.62Z" fill="#37393F" fill-opacity="1.000000" fill-rule="nonzero"/>
	<path d="M75.26 30.22C75.26 29.37 75.19 28.63 75.04 28.06C74.89 27.48 74.71 26.99 74.47 26.63C74.23 26.26 73.98 25.99 73.71 25.82C73.43 25.65 73.16 25.56 72.89 25.56C72.43 25.56 72.03 25.71 71.67 26.01C71.31 26.3 71.02 26.64 70.75 26.99C70.46 27.42 70.2 27.91 69.99 28.42L69.99 41.72L72.18 42.27L72.18 42.81L62.02 42.81L62.02 42.27L64.2 41.72L64.2 30.22C64.2 29.37 64.12 28.63 63.97 28.06C63.82 27.48 63.64 26.99 63.41 26.63C63.17 26.26 62.91 25.99 62.65 25.82C62.36 25.65 62.1 25.56 61.83 25.56C61.37 25.56 60.96 25.71 60.61 26.01C60.25 26.3 59.95 26.64 59.68 26.99C59.39 27.42 59.13 27.91 58.92 28.42L58.92 41.72L61.1 42.27L61.1 42.81L50.94 42.81L50.94 42.27L53.12 41.72L53.12 25.92L50.94 25.37L50.94 24.83L54.2 24.83C55.05 24.83 55.75 24.97 56.29 25.25C56.84 25.53 57.26 25.86 57.58 26.18C57.94 26.6 58.21 27.04 58.39 27.51C58.7 26.91 59.09 26.38 59.55 25.89C59.97 25.48 60.47 25.11 61.07 24.77C61.68 24.43 62.41 24.27 63.29 24.27C64.73 24.27 66 24.59 67.04 25.23C68.1 25.86 68.9 26.68 69.45 27.69C69.77 27.07 70.15 26.51 70.61 25.99C71.03 25.56 71.54 25.17 72.13 24.81C72.74 24.46 73.47 24.27 74.35 24.27C75.35 24.27 76.24 24.43 77.08 24.74C77.9 25.05 78.61 25.48 79.21 26.02C79.8 26.57 80.26 27.19 80.59 27.91C80.92 28.63 81.08 29.4 81.08 30.21L81.08 41.71L83.26 42.25L83.26 42.8L78.54 42.8C76.36 42.8 75.28 41.72 75.28 39.57L75.28 30.22L75.26 30.22Z" fill="#37393F" fill-opacity="1.000000" fill-rule="nonzero"/>
	<path d="M95.23 43.34C92.13 43.34 89.72 42.5 88.01 40.81C86.29 39.11 85.43 36.8 85.43 33.82C85.43 32.33 85.66 31 86.09 29.83C86.52 28.65 87.13 27.66 87.9 26.82C88.68 25.99 89.62 25.36 90.72 24.93C91.82 24.5 93.03 24.28 94.32 24.28C95.68 24.28 96.9 24.47 97.97 24.86C99.04 25.24 99.97 25.76 100.71 26.4C101.46 27.05 102.04 27.82 102.44 28.69C102.84 29.56 103.03 30.49 103.03 31.48C103.03 31.82 103.02 32.11 102.97 32.36C102.93 32.61 102.9 32.83 102.84 33.02C102.77 33.26 102.71 33.47 102.66 33.63C101.59 33.85 100.47 34.03 99.28 34.17C98.27 34.32 97.09 34.44 95.77 34.56C94.44 34.66 93.04 34.72 91.6 34.72C91.6 36.21 91.7 37.45 91.92 38.44C92.15 39.42 92.45 40.22 92.83 40.81C93.22 41.4 93.68 41.81 94.22 42.06C94.75 42.31 95.33 42.45 95.96 42.45C96.69 42.45 97.37 42.31 98.02 42.05C98.66 41.78 99.21 41.43 99.68 40.99C100.16 40.54 100.53 40.04 100.82 39.48C101.1 38.92 101.23 38.35 101.23 37.77L102.14 37.77C102.14 38.49 101.98 39.19 101.65 39.85C101.32 40.53 100.86 41.12 100.25 41.63C99.64 42.15 98.92 42.56 98.08 42.87C97.21 43.18 96.26 43.34 95.23 43.34ZM91.6 33.82C92.42 33.82 93.15 33.81 93.77 33.76C94.4 33.72 94.93 33.69 95.37 33.64C95.87 33.6 96.3 33.54 96.68 33.47C96.72 33.23 96.78 32.97 96.85 32.67C96.9 32.41 96.94 32.11 96.97 31.79C97 31.46 97.03 31.12 97.03 30.77C97.03 29.69 96.94 28.79 96.78 28.06C96.62 27.32 96.39 26.73 96.14 26.27C95.89 25.81 95.59 25.49 95.28 25.3C94.95 25.11 94.62 25 94.31 25C94 25 93.67 25.12 93.34 25.34C93.01 25.58 92.73 26.01 92.48 26.64C92.22 27.27 92.01 28.17 91.83 29.32C91.69 30.47 91.6 31.98 91.6 33.82Z" fill="#37393F" fill-opacity="1.000000" fill-rule="nonzero"/>
	<path d="M120.86 42.45L120.86 27.86L107.85 17.66L107.85 42.45L120.86 42.45Z" fill="#6B77E5" fill-opacity="1.000000" fill-rule="nonzero"/>
	<path d="M136.96 42.45L136.96 27.86L124.15 17.66L124.15 42.45L136.96 42.45Z" fill="#6B77E5" fill-opacity="1.000000" fill-rule="nonzero"/>
</svg>
