<svg width="151.000000" height="46.000000" viewBox="0 0 151 46" fill="none" xmlns="http://www.w3.org/2000/svg" xmlns:xlink="http://www.w3.org/1999/xlink">
	<desc>
			Created with Pixso.
	</desc>
	<defs/>
	<path d="M20.83 8.84L21.95 8.61C22.23 8.61 22.47 8.67 22.63 8.79C22.8 8.9 22.89 9.02 22.89 9.12C22.89 9.23 22.86 9.39 22.81 9.58C22.77 9.77 22.35 11.75 21.58 15.48C20.8 19.21 20.24 22 19.88 23.82C21.61 21.49 23.63 18.63 25.94 15.23C28.25 11.82 29.6 9.57 29.99 8.45C30.11 8.09 30.27 7.83 30.47 7.63C30.66 7.44 30.84 7.33 30.99 7.3C31.14 7.27 31.38 7.24 31.69 7.24C32 7.24 32.37 7.31 32.81 7.44C33.24 7.58 33.46 7.8 33.46 8.12C33.46 8.71 32.57 10.44 30.8 13.27C29.02 16.1 26.98 19.11 24.69 22.29C22.4 25.47 20.49 28 18.96 29.85C18.69 30.18 18.35 30.35 17.96 30.35C17.57 30.35 17.15 30.28 16.72 30.15C16.29 30.02 16.07 29.78 16.07 29.43C16.07 28.32 17.05 22.98 19.02 13.44C17.33 15.6 15.29 18.6 12.9 22.45C10.39 26.43 8.98 28.91 8.65 29.85C8.47 30.43 8.26 30.77 8.03 30.86C7.86 30.93 7.68 30.96 7.5 30.96L6.3 31.09C6.06 31.09 5.85 31.03 5.64 30.9C5.45 30.77 5.34 30.63 5.34 30.49C5.34 30.09 5.91 28.88 7.03 26.88C8.14 24.87 9.47 22.69 10.97 20.33C12.48 17.97 14.04 15.68 15.68 13.46C17.32 11.23 18.58 9.73 19.48 8.98C19.66 8.81 19.86 8.74 20.1 8.74L20.83 8.84Z" fill="#37393F" fill-opacity="1.000000" fill-rule="nonzero"/>
	<path d="M38.73 18.84C39.51 18.84 39.89 19.11 39.89 19.62C39.89 19.9 39.83 20.11 39.7 20.24C39.57 20.37 39.28 20.8 38.85 21.55C38.42 22.29 37.94 23.23 37.42 24.4C36.9 25.55 36.56 26.54 36.41 27.35C36.38 27.45 36.37 27.58 36.37 27.77C36.37 28.33 36.51 28.6 36.83 28.6C37.14 28.6 37.5 28.45 37.91 28.17C38.33 27.88 38.7 27.58 39.03 27.24C39.36 26.92 39.67 26.58 39.98 26.24C40.3 25.9 40.47 25.7 40.53 25.65C40.59 25.61 40.68 25.58 40.8 25.58C41 25.58 41.12 25.73 41.16 26.02C41.21 26.31 41.22 26.61 41.22 26.93C41.22 27.26 41.19 27.47 41.13 27.58C40.83 28.16 40.19 28.85 39.18 29.66C38.18 30.47 37.26 30.87 36.44 30.87C35.62 30.87 35.01 30.62 34.64 30.13C34.26 29.65 34.06 29.09 34.06 28.5C34.06 27.89 34.16 27.38 34.37 26.92C33.52 28.01 32.55 28.92 31.46 29.69C30.36 30.44 29.48 30.83 28.78 30.83C28.08 30.83 27.53 30.62 27.09 30.21C26.52 29.69 26.25 28.98 26.25 28.07C26.25 27.16 26.46 26.24 26.88 25.31C27.29 24.4 27.83 23.54 28.5 22.79C29.17 22.02 29.92 21.33 30.72 20.71C32.4 19.4 33.97 18.75 35.4 18.75C35.95 18.75 36.39 18.84 36.74 19.02C37.08 19.19 37.3 19.43 37.39 19.7C37.63 19.33 37.84 19.11 38.02 19C38.15 18.88 38.41 18.84 38.73 18.84ZM36.71 20.52C34.96 20.52 33.16 21.48 31.3 23.4C30.65 24.09 30.04 24.9 29.47 25.86C28.9 26.82 28.64 27.47 28.64 27.82C28.64 28.17 28.74 28.35 28.95 28.35C29.23 28.35 30.02 27.79 31.33 26.68C32.64 25.58 33.51 24.75 33.92 24.22C34.4 23.63 35.32 22.39 36.71 20.52Z" fill="#37393F" fill-opacity="1.000000" fill-rule="nonzero"/>
	<path d="M50.32 10.85L50.94 11C51.03 11 51.12 11.04 51.18 11.13C51.26 11.22 51.29 11.31 51.29 11.38C51.29 11.45 51.18 11.67 50.96 12.03C50.74 12.38 50.5 12.78 50.2 13.22C49.9 13.67 49.75 13.92 49.74 13.96C50.53 13.9 51.09 13.87 51.42 13.87C51.75 13.87 51.97 13.9 52.11 13.95C52.22 13.99 52.37 14.12 52.52 14.33C52.69 14.54 52.82 14.7 52.95 14.8C53.09 14.9 53.15 15.07 53.15 15.27C53.15 15.48 53.01 15.67 52.76 15.8C52.51 15.95 52.22 16.04 51.93 16.07C49.56 16.3 48.26 16.42 48.03 16.44C47.21 17.69 46.04 19.64 44.57 22.28C43.1 24.91 42.31 26.58 42.22 27.24C42.17 27.55 42.16 27.79 42.16 27.98C42.16 28.38 42.37 28.57 42.78 28.57C43.2 28.57 43.66 28.41 44.17 28.1C44.67 27.77 45.15 27.44 45.57 27.07C46.71 26.06 47.33 25.55 47.4 25.55C47.67 25.55 47.8 26.01 47.8 26.9C47.8 27.39 47.58 27.83 47.12 28.23C46.09 29.1 45.23 29.77 44.53 30.21C43.83 30.65 43.13 30.87 42.41 30.87C42.26 30.87 42.11 30.86 41.98 30.83C41.16 30.68 40.56 30.38 40.19 29.94C39.8 29.5 39.63 28.91 39.63 28.17C39.63 27.44 39.85 26.52 40.3 25.46C40.74 24.4 41.29 23.26 41.96 22.07C43.07 20.11 44.17 18.28 45.25 16.57L44.67 16.64C43.5 16.78 42.81 16.84 42.62 16.84L42.49 16.84C42.19 16.84 41.9 16.78 41.64 16.66C41.37 16.54 41.22 16.39 41.22 16.23C41.22 16.05 41.29 15.89 41.44 15.73C41.59 15.57 41.68 15.43 41.71 15.35C41.79 15.12 42.05 14.87 42.51 14.61C42.98 14.34 43.32 14.2 43.56 14.18C43.8 14.17 44.02 14.15 44.24 14.14C44.47 14.12 44.7 14.12 44.97 14.11C45.24 14.09 45.45 14.09 45.6 14.08L46.97 14.02C47.82 12.75 48.41 11.93 48.73 11.57C49.05 11.2 49.23 11.01 49.28 10.98C49.32 10.95 49.42 10.92 49.59 10.92L50.32 10.85Z" fill="#37393F" fill-opacity="1.000000" fill-rule="nonzero"/>
	<path d="M59.48 25.58C59.67 25.58 59.79 25.73 59.83 26.02C59.88 26.31 59.89 26.61 59.89 26.93C59.89 27.26 59.86 27.46 59.8 27.58C59.51 28.14 58.87 28.84 57.87 29.65C56.87 30.46 55.92 30.87 55.02 30.87C54.47 30.87 53.97 30.71 53.49 30.38C53.03 30.06 52.79 29.48 52.79 28.67C52.79 27.86 53.01 27.05 53.45 26.27C50.91 29.41 48.95 30.97 47.5 30.97C46.94 30.97 46.48 30.77 46.12 30.37C45.76 29.97 45.6 29.56 45.6 29.12C45.6 28.69 45.66 28.25 45.78 27.79C45.9 27.33 46.03 26.92 46.16 26.55C46.3 26.18 46.51 25.74 46.77 25.21C47.04 24.68 47.25 24.29 47.37 24.04C47.49 23.79 47.71 23.44 48.01 22.95C48.31 22.47 48.68 21.8 49.16 20.98C49.63 20.15 50.02 19.53 50.33 19.13C50.65 18.74 50.94 18.53 51.24 18.53C51.54 18.53 51.79 18.65 52.02 18.88C52.24 19.12 52.36 19.33 52.36 19.47C52.36 19.62 52.02 20.3 51.33 21.51C49.32 25.12 48.31 27.21 48.31 27.82C48.31 27.97 48.37 28.04 48.47 28.04C48.96 28.04 50.18 26.99 52.12 24.9C54.06 22.81 55.19 21.46 55.5 20.87C55.81 20.28 56.1 19.78 56.39 19.39C56.68 18.99 56.9 18.74 57.05 18.65C57.48 18.37 58.05 18.22 58.75 18.19C58.87 18.19 58.94 18.19 59 18.21C59.06 18.22 59.13 18.31 59.21 18.46C59.28 18.6 59.33 18.74 59.33 18.84C59.24 19.12 58.84 19.87 58.11 21.1C57.39 22.32 56.99 23.01 56.92 23.16C55.71 25.62 55.11 27.23 55.11 27.97C55.11 28.39 55.28 28.6 55.61 28.6C56.2 28.53 56.92 28.05 57.75 27.2C58.06 26.89 58.36 26.57 58.66 26.24C58.96 25.92 59.15 25.73 59.21 25.68C59.28 25.61 59.37 25.58 59.48 25.58Z" fill="#37393F" fill-opacity="1.000000" fill-rule="nonzero"/>
	<path d="M63.9 22.08C66.3 19.39 68.35 18.03 70.04 18.03C70.45 18.03 70.8 18.15 71.06 18.4C71.33 18.65 71.47 18.96 71.47 19.36C71.47 19.75 71.18 20.4 70.62 21.33C70.05 22.25 69.53 23.03 69.05 23.66C68.8 23.99 68.52 24.15 68.19 24.15C67.88 24.15 67.62 24.03 67.45 23.79C67.27 23.56 67.18 23.29 67.18 22.98C67.18 22.29 67.55 21.49 68.31 20.62L68.28 20.59C67.94 20.62 67.12 21.29 65.78 22.56C64.45 23.84 63.32 24.99 62.38 25.99C61.46 27.01 60.45 28.23 59.34 29.69C59.03 30.12 58.76 30.34 58.54 30.34C58.32 30.34 58.03 30.27 57.68 30.13C57.32 30 57.09 29.9 57.02 29.84C56.95 29.78 56.9 29.68 56.9 29.53C56.9 29.4 56.95 29.22 57.02 29.04C57.09 28.85 57.26 28.59 57.47 28.25C57.68 27.91 58.02 27.35 58.46 26.58C58.91 25.81 59.6 24.65 60.54 23.1C61.47 21.55 62.02 20.61 62.22 20.29C62.61 19.62 62.92 19.13 63.17 18.84C63.63 18.27 64.41 17.99 65.49 17.99C65.73 17.99 65.87 18.13 65.87 18.44C65.87 18.91 65.42 19.81 64.54 21.11L63.9 22.08Z" fill="#37393F" fill-opacity="1.000000" fill-rule="nonzero"/>
	<path d="M80.33 19.02C80.33 19.68 80.06 20.27 79.51 20.77C78.96 21.27 78.35 21.52 77.65 21.52C77.42 21.52 77.27 21.46 77.2 21.36C77.12 21.26 77.09 21.11 77.09 20.95C77.09 20.79 77.11 20.61 77.15 20.45C76.78 20.57 76.38 20.76 75.93 21.01C75.49 21.26 74.94 21.63 74.28 22.13C73.62 22.63 73.3 22.98 73.3 23.23C73.3 23.31 73.42 23.35 73.65 23.35C73.89 23.35 74.27 23.26 74.76 23.1C75.25 22.94 75.61 22.85 75.8 22.85C75.99 22.85 76.13 22.87 76.19 22.88C76.32 22.95 76.45 23.1 76.62 23.34C76.77 23.57 76.84 23.76 76.84 23.9C76.84 24.03 76.71 24.21 76.44 24.43C76.17 24.65 75.87 24.81 75.55 24.93C75.2 25.05 74.98 25.14 74.88 25.19C72.73 26.39 71.66 27.2 71.66 27.64C71.66 28.42 72.33 28.82 73.68 28.82C74.55 28.82 75.43 28.56 76.29 28.01C77.04 27.55 77.71 27.08 78.3 26.6C78.9 26.12 79.27 25.83 79.43 25.71C79.6 25.59 79.72 25.55 79.79 25.55C80.06 25.55 80.19 25.84 80.19 26.43C80.19 27.02 80.16 27.41 80.09 27.58C80.01 27.77 79.82 28 79.48 28.28C77.3 30.03 75.23 30.92 73.3 30.92C72.25 30.92 71.44 30.77 70.81 30.49C69.66 29.97 69.1 29.19 69.1 28.13C69.1 26.74 70.07 25.68 72.02 24.97C71.63 24.8 71.38 24.59 71.27 24.31C71.15 24.04 71.11 23.62 71.11 23.03C71.11 22.44 71.39 21.82 71.94 21.15C72.49 20.49 73.18 19.95 73.98 19.53C75.77 18.57 77.38 18.1 78.78 18.1C79.12 18.1 79.45 18.18 79.81 18.34C80.16 18.5 80.33 18.72 80.33 19.02Z" fill="#37393F" fill-opacity="1.000000" fill-rule="nonzero"/>
	<path d="M115.09 8.76L115.28 8.76C115.34 8.76 115.38 8.76 115.4 8.77C115.41 8.79 115.43 8.79 115.46 8.8C115.49 8.8 115.5 8.81 115.53 8.84C115.58 8.89 115.65 8.93 115.74 8.98C115.86 9.07 115.92 9.17 115.92 9.29C115.92 9.4 115.8 9.65 115.56 10.04C115.32 10.42 114.71 11.35 113.72 12.85C111.44 16.3 109.4 19.52 107.59 22.47C104.48 27.6 102.9 30.18 102.87 30.21C102.84 30.24 102.83 30.27 102.81 30.3C102.8 30.35 102.77 30.38 102.69 30.38L102.49 30.34L102.07 30.44L101.83 30.4L101.58 30.44L101.49 30.44L100.64 30.56C100.13 30.56 99.88 30.38 99.88 30.04C99.88 29.9 99.92 29.72 100.01 29.51C100.33 28.78 101.92 26.11 104.78 21.48C102.9 21.52 101.04 21.55 99.21 21.55L95.93 21.54C95.4 22.39 94.65 23.6 93.71 25.18C91.69 28.61 90.62 30.34 90.48 30.37C90.35 30.4 90.24 30.43 90.16 30.43C90.07 30.43 89.99 30.38 89.93 30.28C89.86 30.19 89.81 30.13 89.78 30.13C89.75 30.13 89.71 30.15 89.62 30.19C89.54 30.24 89.43 30.25 89.26 30.25L88.9 30.24L88.77 30.15C88.75 30.15 88.74 30.16 88.73 30.19C88.71 30.22 88.67 30.24 88.61 30.24C88.17 30.24 87.95 30.06 87.95 29.69C87.95 29.46 88.04 29.13 88.2 28.73C88.38 28.33 88.61 27.91 88.89 27.45C89.17 26.99 89.89 25.89 91.06 24.16C92.23 22.44 92.81 21.57 92.81 21.55C92.61 21.54 92.39 21.54 92.14 21.52C91.61 21.52 91.26 21.51 91.03 21.46C90.45 21.36 90.05 20.89 89.84 20.05C89.72 19.64 89.68 19.37 89.69 19.24C89.69 18.97 89.81 18.83 90.05 18.83L90.45 18.93C90.66 18.94 91.14 18.96 91.91 19C92.69 19.05 93.24 19.06 93.58 19.06L94.44 19.03C95.77 16.98 97.35 14.65 99.19 12.06C97.85 13.15 96.37 13.69 94.73 13.69C93.95 13.69 93.28 13.52 92.73 13.15C92.17 12.78 91.9 12.31 91.9 11.75C91.9 11.19 92.11 10.75 92.54 10.41C92.97 10.08 93.37 9.92 93.76 9.92C94.15 9.92 94.34 9.98 94.34 10.1C94.34 10.14 94.28 10.19 94.18 10.23C94.07 10.29 94.01 10.33 94.01 10.38C94.01 10.54 94.19 10.69 94.55 10.8C94.91 10.92 95.31 11 95.75 11C96.2 11 96.74 10.86 97.39 10.61C98.05 10.36 98.72 10.02 99.42 9.63C100.4 9.07 101.18 8.59 101.74 8.22C102.07 8.06 102.37 7.99 102.67 7.99C102.96 7.99 103.16 8.02 103.29 8.09C103.42 8.15 103.51 8.22 103.57 8.28C103.63 8.34 103.71 8.43 103.77 8.53C103.84 8.64 103.9 8.73 103.98 8.77C104.04 8.83 104.08 8.89 104.08 8.96C104.08 9.04 104.04 9.14 103.96 9.3C103.89 9.45 103.5 10.07 102.8 11.14C102.1 12.22 101.19 13.59 100.09 15.26C98.99 16.92 98.18 18.15 97.68 18.94C100.4 18.94 103.34 18.9 106.49 18.8C110.33 12.8 112.36 9.65 112.57 9.36C112.78 9.07 112.97 8.87 113.15 8.79C113.33 8.7 113.54 8.65 113.79 8.65L115.09 8.76Z" fill="#37393F" fill-opacity="1.000000" fill-rule="nonzero"/>
	<path d="M120.06 18.81C120.37 18.81 120.68 18.94 121 19.22C121.33 19.5 121.47 19.92 121.47 20.48C121.47 21.04 121.28 21.76 120.88 22.66C120.48 23.54 119.94 24.46 119.24 25.39C118.56 26.3 117.78 27.17 116.96 27.98C116.13 28.79 115.23 29.46 114.28 29.97C113.31 30.49 112.45 30.75 111.66 30.75C110.87 30.75 110.25 30.5 109.77 30.02C109.29 29.53 109.05 28.85 109.05 27.98C109.05 27.11 109.28 26.14 109.71 25.09C110.14 24.03 110.69 23.1 111.38 22.29C112.06 21.48 112.79 20.76 113.6 20.11C115.25 18.78 116.71 18.13 117.96 18.13C118.53 18.13 118.94 18.27 119.23 18.55C119.33 18.63 119.37 18.72 119.37 18.78L119.37 18.87C119.54 18.81 119.76 18.81 120.06 18.81ZM118.53 20.82L118.42 20.82C118.06 20.82 117.89 20.57 117.89 20.05C117.14 20.29 116.37 20.71 115.55 21.32C114.73 21.92 114 22.64 113.36 23.47C112.05 25.12 111.39 26.52 111.38 27.66C111.38 28.22 111.59 28.5 112 28.5C112.42 28.5 113.05 28.22 113.86 27.69C114.68 27.16 115.5 26.37 116.32 25.36C117.13 24.35 117.74 23.47 118.14 22.73C118.54 22 118.75 21.49 118.75 21.21C118.73 20.95 118.66 20.82 118.53 20.82Z" fill="#37393F" fill-opacity="1.000000" fill-rule="nonzero"/>
	<path d="M121.15 30.41L120.4 30.38L120.13 30.38C120.03 30.35 119.93 30.3 119.81 30.21C119.69 30.12 119.6 30.05 119.54 30.02C119.48 29.99 119.45 29.9 119.45 29.79C119.45 29.69 119.49 29.5 119.57 29.25C121.55 24.93 123.47 21.46 125.33 18.88C125.54 18.6 125.87 18.38 126.31 18.24C126.76 18.09 127.21 18.01 127.64 18.01C127.89 18.01 128.03 18.21 128.03 18.6C128.03 18.72 127.98 18.87 127.91 19.05C127.83 19.24 127.62 19.53 127.3 19.96C126.97 20.39 126.58 20.87 126.14 21.41C125.69 21.94 125.43 22.26 125.38 22.35C126.78 20.92 128.03 19.86 129.16 19.15C130.29 18.46 131.09 18.1 131.6 18.1C132.11 18.1 132.49 18.25 132.76 18.53C133.03 18.81 133.16 19.12 133.16 19.44C133.16 19.77 133.13 20.05 133.09 20.26C133.05 20.48 132.96 20.7 132.84 20.93C132.72 21.17 132.61 21.38 132.52 21.54C132.43 21.7 132.28 21.92 132.09 22.19C131.88 22.45 131.75 22.64 131.67 22.75C131.6 22.85 131.44 23.04 131.2 23.32C130.96 23.6 130.83 23.76 130.81 23.79C131.09 23.51 131.5 23.1 132 22.54C132.51 21.98 132.94 21.52 133.3 21.15C133.66 20.79 134.09 20.36 134.62 19.89C135.16 19.42 135.65 19.03 136.1 18.75C137.2 18.07 138.32 17.72 139.45 17.72C139.84 17.72 140.16 17.84 140.43 18.09C140.7 18.34 140.83 18.62 140.83 18.96C140.83 19.3 140.42 20.11 139.6 21.38C138.78 22.64 137.94 23.93 137.13 25.21C136.31 26.49 135.89 27.3 135.89 27.64C135.89 28.1 135.98 28.38 136.14 28.47C136.32 28.56 136.53 28.59 136.77 28.57C137.01 28.56 137.36 28.39 137.8 28.1C138.24 27.8 138.63 27.51 138.97 27.18C139.54 26.68 140.04 26.2 140.54 25.73C140.64 25.64 140.74 25.59 140.88 25.59C141.07 25.59 141.19 25.74 141.24 26.03C141.28 26.33 141.3 26.62 141.3 26.95C141.3 27.27 141.27 27.48 141.21 27.6C140.91 28.16 140.25 28.85 139.25 29.68C138.24 30.49 137.27 30.9 136.35 30.9C136.23 30.9 136.16 30.9 136.11 30.89C135.07 30.78 134.34 30.5 133.94 30.03C133.54 29.56 133.34 29 133.34 28.36C133.34 27.73 133.57 26.93 134.01 26.02C134.46 25.11 134.94 24.27 135.47 23.53C136.01 22.79 136.49 22.11 136.93 21.51C137.38 20.9 137.6 20.58 137.6 20.54C137.6 20.49 137.56 20.46 137.48 20.46C137.17 20.46 136.47 20.96 135.37 21.98C133.51 23.71 131.9 25.37 130.54 26.96C130.19 27.39 129.34 28.45 128.01 30.18C127.86 30.38 127.61 30.49 127.28 30.49C126.95 30.49 126.61 30.43 126.25 30.3C125.9 30.16 125.72 30 125.72 29.81C125.72 29.71 126.52 28.29 128.14 25.56C129.77 22.84 130.57 21.35 130.57 21.11C130.57 20.86 130.42 20.74 130.13 20.74C129.83 20.74 129.2 21.18 128.27 22.07C125.69 24.5 123.69 26.93 122.28 29.34C122.19 29.48 122.01 29.71 121.74 30C121.47 30.3 121.24 30.41 121.15 30.41Z" fill="#37393F" fill-opacity="1.000000" fill-rule="nonzero"/>
	<path d="M150.68 19.02C150.68 19.68 150.41 20.27 149.86 20.77C149.31 21.27 148.7 21.52 148 21.52C147.77 21.52 147.63 21.46 147.55 21.36C147.48 21.26 147.45 21.11 147.45 20.95C147.45 20.79 147.46 20.61 147.51 20.45C147.13 20.57 146.73 20.76 146.28 21.01C145.84 21.26 145.29 21.63 144.63 22.13C143.98 22.63 143.65 22.98 143.65 23.23C143.65 23.31 143.77 23.35 144.01 23.35C144.24 23.35 144.62 23.26 145.11 23.1C145.6 22.94 145.96 22.85 146.15 22.85C146.35 22.85 146.48 22.87 146.54 22.88C146.67 22.95 146.81 23.1 146.97 23.34C147.12 23.57 147.19 23.76 147.19 23.9C147.19 24.03 147.06 24.21 146.79 24.43C146.52 24.65 146.23 24.81 145.9 24.93C145.56 25.05 145.33 25.14 145.23 25.19C143.08 26.39 142.01 27.2 142.01 27.64C142.01 28.42 142.68 28.82 144.04 28.82C144.9 28.82 145.78 28.56 146.64 28.01C147.39 27.55 148.06 27.08 148.65 26.6C149.25 26.12 149.62 25.83 149.78 25.71C149.95 25.59 150.07 25.55 150.14 25.55C150.41 25.55 150.54 25.84 150.54 26.43C150.54 27.02 150.51 27.41 150.44 27.58C150.37 27.77 150.17 28 149.83 28.28C147.66 30.03 145.59 30.92 143.65 30.92C142.61 30.92 141.79 30.77 141.16 30.49C140.02 29.97 139.45 29.19 139.45 28.13C139.45 26.74 140.42 25.68 142.37 24.97C141.98 24.8 141.73 24.59 141.62 24.31C141.5 24.04 141.46 23.62 141.46 23.03C141.46 22.44 141.74 21.82 142.29 21.15C142.85 20.49 143.53 19.95 144.33 19.53C146.12 18.57 147.73 18.1 149.13 18.1C149.47 18.1 149.8 18.18 150.16 18.34C150.51 18.5 150.68 18.72 150.68 19.02Z" fill="#37393F" fill-opacity="1.000000" fill-rule="nonzero"/>
	<path d="M-0.29 34.5C3.63 36.12 7.62 37.37 11.69 38.33C15.72 39.33 19.83 40.04 23.94 40.48C26 40.76 28.07 40.79 30.11 40.98C32.18 41 34.24 41.16 36.29 41.04L39.37 40.97C40.4 40.95 41.43 40.82 42.46 40.76C43.48 40.67 44.51 40.63 45.52 40.5L48.58 40.07C52.67 39.63 56.65 38.68 60.61 37.55C64.62 36.46 68.4 35.01 72.4 33.51C76.5 32.02 80.94 31.05 85.43 31.52C87.65 31.8 89.89 32.51 91.7 33.8C93.54 35.09 94.85 36.91 95.68 38.83C94.43 37.12 92.87 35.72 91.06 34.85C89.26 33.98 87.28 33.63 85.32 33.69C81.34 33.75 77.42 35.06 73.74 36.71C70.01 38.54 65.96 40.19 61.87 41.56C57.76 42.87 53.52 43.92 49.22 44.45C40.65 45.57 31.88 45.58 23.42 43.89C19.18 43.12 15.04 41.93 11.03 40.41C7.06 38.83 3.17 36.99 -0.29 34.5Z" fill="#40DDB6" fill-opacity="1.000000" fill-rule="nonzero"/>
	<path d="M142.13 9.95C138.81 8.55 135.43 7.46 132 6.6C128.59 5.7 125.14 5.07 121.67 4.63C119.94 4.36 118.18 4.3 116.46 4.1C114.71 4.05 112.99 3.88 111.24 3.95C110.38 3.96 109.5 3.96 108.64 3.95C107.77 3.95 106.89 4.04 106.03 4.07C105.17 4.13 104.29 4.14 103.43 4.23L100.83 4.54C97.36 4.82 94 5.53 90.63 6.4C87.22 7.21 83.99 8.36 80.55 9.51C77.02 10.67 73.19 11.38 69.35 10.85C67.46 10.54 65.55 9.88 64.05 8.7C62.52 7.53 61.47 5.94 60.83 4.27C61.89 5.73 63.2 6.93 64.71 7.66C66.21 8.4 67.86 8.71 69.52 8.7C72.85 8.7 76.16 7.64 79.28 6.31C82.47 4.8 85.97 3.48 89.46 2.39C92.97 1.34 96.63 0.54 100.3 0.16C107.61 -0.61 115.09 -0.43 122.25 1.25C125.84 2 129.34 3.15 132.69 4.57C136.05 6.01 139.3 7.69 142.13 9.95Z" fill="#6B77E5" fill-opacity="1.000000" fill-rule="nonzero"/>
</svg>
