<svg width="170.000000" height="44.000000" viewBox="0 0 170 44" fill="none" xmlns="http://www.w3.org/2000/svg" xmlns:xlink="http://www.w3.org/1999/xlink">
	<desc>
			Created with Pixso.
	</desc>
	<defs/>
	<path d="M35.57 43.57L7.59 43.57C2.99 43.57 -0.73 39.88 -0.73 35.33L-0.73 7.63C-0.73 3.08 2.99 -0.61 7.59 -0.61L35.57 -0.61C40.17 -0.61 43.89 3.08 43.89 7.63L43.89 35.33C43.89 39.88 40.17 43.57 35.57 43.57Z" fill="#40DDB6" fill-opacity="1.000000" fill-rule="nonzero"/>
	<path d="M29.62 21.89C30.41 22.87 30.82 24.02 30.82 25.33C30.82 27.24 30.17 28.74 28.89 29.8C27.6 30.87 25.75 31.42 23.35 31.42L12.87 31.42L12.87 9.09L23.1 9.09C25.4 9.09 27.17 9.59 28.42 10.58C29.67 11.57 30.3 12.98 30.3 14.81C30.3 16.16 29.93 17.27 29.21 18.17C28.49 19.07 27.55 19.65 26.37 19.92C27.75 20.25 28.82 20.9 29.62 21.89ZM18.31 18.22L21.89 18.22C23.78 18.22 24.73 17.42 24.73 15.82C24.73 14.22 23.76 13.42 21.83 13.42L18.31 13.42L18.31 18.22ZM25.24 24.58C25.24 23.77 24.97 23.15 24.44 22.7C23.91 22.25 23.15 22.02 22.18 22.02L18.33 22.02L18.33 27.04L22.22 27.04C24.22 27.03 25.24 26.21 25.24 24.58Z" fill="#FFFFFF" fill-opacity="1.000000" fill-rule="nonzero"/>
	<path d="M69.75 31.42L64.87 22.99L63.64 22.99L63.64 31.42L58.18 31.42L58.18 9.09L67.49 9.09C69.27 9.09 70.79 9.39 72.01 10.01C73.25 10.62 74.17 11.46 74.79 12.52C75.41 13.58 75.71 14.8 75.71 16.17C75.71 17.8 75.26 19.17 74.36 20.31C73.45 21.45 72.15 22.22 70.42 22.65L75.77 31.43L69.75 31.43L69.75 31.42ZM63.64 19.3L67.01 19.3C68.09 19.3 68.89 19.06 69.4 18.59C69.9 18.11 70.17 17.41 70.17 16.48C70.17 15.6 69.9 14.91 69.38 14.4C68.87 13.9 68.07 13.63 67.01 13.63L63.64 13.63L63.64 19.3Z" fill="#37393F" fill-opacity="1.000000" fill-rule="nonzero"/>
	<path d="M100.39 27.35L91.94 27.35L90.54 31.43L84.81 31.43L93.07 9.27L99.35 9.27L107.61 31.43L101.81 31.43L100.39 27.35ZM98.99 23.24L96.19 15.03L93.35 23.24L98.99 23.24Z" fill="#37393F" fill-opacity="1.000000" fill-rule="nonzero"/>
	<path d="M137.71 31.42L132.25 31.42L123.13 17.71L123.13 31.42L117.67 31.42L117.67 9.09L123.13 9.09L132.25 22.92L132.25 9.09L137.71 9.09L137.71 31.42Z" fill="#37393F" fill-opacity="1.000000" fill-rule="nonzero"/>
	<path d="M168.3 26.04C167.35 27.73 165.99 29.05 164.22 30C162.44 30.95 160.36 31.43 157.96 31.43L149.44 31.43L149.44 9.11L157.96 9.11C160.38 9.11 162.48 9.57 164.23 10.49C166 11.42 167.35 12.72 168.3 14.41C169.25 16.1 169.72 18.02 169.72 20.22C169.72 22.4 169.24 24.34 168.3 26.04ZM162.43 24.91C163.6 23.8 164.2 22.22 164.2 20.21C164.2 18.18 163.6 16.62 162.43 15.51C161.25 14.4 159.6 13.83 157.46 13.83L154.89 13.83L154.89 26.59L157.46 26.59C159.6 26.59 161.25 26.04 162.43 24.91Z" fill="#37393F" fill-opacity="1.000000" fill-rule="nonzero"/>
</svg>
