<svg width="120.000000" height="72.000000" viewBox="0 0 120 72" fill="none" xmlns="http://www.w3.org/2000/svg" xmlns:xlink="http://www.w3.org/1999/xlink">
	<desc>
			Created with Pixso.
	</desc>
	<defs/>
	<path d="M61.16 60.6C47.45 74.58 24.92 74.79 10.94 61.07C10.33 60.47 9.74 59.85 9.18 59.21L10.52 58.03C11.06 58.63 11.61 59.23 12.2 59.8C25.46 72.82 46.86 72.63 59.89 59.35L61.16 60.6Z" fill="#40DDB6" fill-opacity="1.000000" fill-rule="nonzero"/>
	<path d="M63.15 13.05L61.77 14.2C61.04 13.32 60.25 12.46 59.43 11.65C46.16 -1.37 24.77 -1.17 11.74 12.1C10.85 13.01 10 13.97 9.22 14.97L7.82 13.86C8.63 12.82 9.53 11.81 10.47 10.85C24.18 -3.13 46.71 -3.34 60.69 10.37C61.56 11.22 62.38 12.13 63.15 13.05Z" fill="#40DDB6" fill-opacity="1.000000" fill-rule="nonzero"/>
	<path d="M110.57 11.78L109.22 12.96C108.69 12.36 108.13 11.76 107.55 11.2C95.33 -0.79 76.07 -1.74 62.76 9L61.64 7.61C75.65 -3.71 95.92 -2.72 108.79 9.92C109.41 10.53 110 11.14 110.57 11.78Z" fill="#40DDB6" fill-opacity="1.000000" fill-rule="nonzero"/>
	<path d="M109.27 60.15C97.39 72.26 78.51 74.27 64.38 64.94L65.37 63.45C78.78 72.3 96.71 70.39 107.99 58.9C108.87 58 109.72 57.03 110.5 56.04L111.91 57.14C111.1 58.18 110.21 59.2 109.27 60.15Z" fill="#40DDB6" fill-opacity="1.000000" fill-rule="nonzero"/>
	<path d="M4.48 54.16L4.9 53.9L5.73 55.24L6.66 54.66L6.01 53.61L6.43 53.35L7.08 54.4L8.47 53.54L8.79 54.06L5.62 56.03L4.48 54.16Z" fill="#37393F" fill-opacity="1.000000" fill-rule="nonzero"/>
	<path d="M5.58 49.04L5.1 47.88L5.55 47.69L6.28 49.42L2.83 50.85L2.6 50.29L5.58 49.04Z" fill="#37393F" fill-opacity="1.000000" fill-rule="nonzero"/>
	<path d="M4.22 44.13C4.12 44.45 3.95 44.73 3.7 44.95C3.45 45.18 3.15 45.34 2.79 45.42C2.44 45.5 2.1 45.49 1.78 45.38C1.47 45.27 1.19 45.1 0.97 44.85C0.74 44.6 0.59 44.31 0.52 43.97C0.44 43.63 0.45 43.29 0.55 42.97C0.65 42.65 0.82 42.38 1.06 42.15C1.31 41.92 1.6 41.77 1.96 41.69C2.32 41.61 2.66 41.62 2.98 41.73C3.3 41.83 3.57 42 3.8 42.25C4.02 42.5 4.17 42.79 4.25 43.13C4.33 43.47 4.31 43.81 4.22 44.13ZM3.42 42.64C3.27 42.48 3.08 42.36 2.85 42.3C2.62 42.24 2.37 42.24 2.1 42.3C1.84 42.36 1.61 42.47 1.43 42.62C1.25 42.78 1.13 42.95 1.07 43.17C1 43.38 1 43.61 1.05 43.85C1.1 44.09 1.2 44.3 1.35 44.46C1.5 44.62 1.69 44.74 1.92 44.8C2.14 44.86 2.39 44.86 2.66 44.8C2.93 44.74 3.15 44.63 3.33 44.48C3.51 44.32 3.64 44.15 3.71 43.93C3.78 43.72 3.78 43.49 3.73 43.25C3.67 43.01 3.57 42.81 3.42 42.64Z" fill="#37393F" fill-opacity="1.000000" fill-rule="nonzero"/>
	<path d="M3.39 36.22L1.93 37.13L1.94 37.6L3.44 37.55L3.46 38.16L-0.28 38.28L-0.32 37C-0.33 36.71 -0.29 36.47 -0.2 36.27C-0.11 36.06 0.03 35.91 0.19 35.81C0.35 35.7 0.54 35.65 0.74 35.64C0.99 35.63 1.21 35.69 1.42 35.83C1.62 35.96 1.76 36.18 1.85 36.46L3.36 35.49L3.39 36.22ZM1.45 37.62L1.42 36.94C1.42 36.71 1.35 36.54 1.24 36.43C1.12 36.31 0.96 36.27 0.77 36.27C0.58 36.28 0.43 36.34 0.32 36.45C0.22 36.57 0.17 36.75 0.18 36.98L0.21 37.65L1.45 37.62Z" fill="#37393F" fill-opacity="1.000000" fill-rule="nonzero"/>
	<path d="M3.08 29.9L2.87 31.45L3.58 31.83L3.49 32.46L-0.03 30.62L0.07 29.92L3.96 29.11L3.87 29.75L3.08 29.9ZM2.56 30L0.76 30.36L2.4 31.2L2.56 30Z" fill="#37393F" fill-opacity="1.000000" fill-rule="nonzero"/>
	<path d="M4.41 25.33L4.77 24.13L5.25 24.27L4.7 26.06L1.13 24.98L1.31 24.39L4.41 25.33Z" fill="#37393F" fill-opacity="1.000000" fill-rule="nonzero"/>
	<path d="M6.49 20.88C6.32 21.02 6.14 21.11 5.95 21.14C5.76 21.18 5.57 21.15 5.37 21.05L5.66 20.46C5.81 20.52 5.95 20.52 6.1 20.46C6.24 20.41 6.36 20.28 6.45 20.11C6.54 19.92 6.56 19.75 6.52 19.6C6.48 19.44 6.38 19.34 6.24 19.26C6.12 19.21 6.02 19.2 5.92 19.23C5.82 19.26 5.72 19.32 5.63 19.4C5.55 19.48 5.45 19.6 5.31 19.75C5.15 19.94 5.01 20.09 4.88 20.2C4.76 20.3 4.6 20.37 4.43 20.41C4.26 20.45 4.07 20.41 3.86 20.31C3.66 20.22 3.52 20.09 3.42 19.93C3.32 19.76 3.28 19.57 3.28 19.36C3.29 19.15 3.34 18.93 3.45 18.7C3.6 18.38 3.82 18.14 4.08 18.01C4.33 17.88 4.61 17.88 4.91 17.98L4.61 18.59C4.49 18.55 4.36 18.56 4.22 18.62C4.08 18.68 3.97 18.81 3.89 18.98C3.82 19.14 3.79 19.28 3.82 19.43C3.86 19.57 3.95 19.67 4.1 19.74C4.21 19.79 4.31 19.8 4.4 19.77C4.5 19.74 4.59 19.68 4.67 19.6C4.75 19.52 4.85 19.42 4.98 19.26C5.15 19.07 5.29 18.91 5.43 18.81C5.55 18.7 5.7 18.62 5.88 18.58C6.06 18.55 6.25 18.57 6.47 18.68C6.64 18.76 6.78 18.89 6.89 19.05C6.99 19.21 7.05 19.41 7.06 19.62C7.07 19.85 7.01 20.07 6.9 20.31C6.8 20.54 6.66 20.73 6.49 20.88Z" fill="#37393F" fill-opacity="1.000000" fill-rule="nonzero"/>
	<path d="M115.15 17.48L114.72 17.73L113.92 16.36L112.97 16.92L113.59 17.98L113.16 18.23L112.54 17.17L111.13 17.99L110.83 17.46L114.06 15.59L115.15 17.48Z" fill="#37393F" fill-opacity="1.000000" fill-rule="nonzero"/>
	<path d="M113.91 22.56L114.35 23.74L113.9 23.92L113.22 22.16L116.71 20.83L116.92 21.4L113.91 22.56Z" fill="#37393F" fill-opacity="1.000000" fill-rule="nonzero"/>
	<path d="M115.12 27.52C115.23 27.2 115.41 26.93 115.66 26.71C115.91 26.5 116.22 26.34 116.58 26.27C116.94 26.2 117.28 26.23 117.59 26.34C117.91 26.45 118.18 26.63 118.39 26.89C118.61 27.15 118.75 27.45 118.81 27.79C118.87 28.13 118.86 28.46 118.75 28.78C118.64 29.09 118.46 29.36 118.21 29.59C117.96 29.81 117.66 29.95 117.3 30.02C116.94 30.09 116.6 30.06 116.29 29.95C115.97 29.85 115.71 29.66 115.49 29.41C115.28 29.15 115.13 28.85 115.07 28.5C115 28.16 115.02 27.83 115.12 27.52ZM115.88 29.02C116.03 29.19 116.21 29.31 116.44 29.38C116.67 29.45 116.91 29.45 117.18 29.41C117.45 29.35 117.68 29.25 117.86 29.11C118.04 28.97 118.18 28.79 118.25 28.57C118.32 28.36 118.33 28.14 118.28 27.89C118.24 27.65 118.14 27.45 118 27.28C117.85 27.11 117.67 26.99 117.44 26.92C117.22 26.85 116.97 26.85 116.7 26.89C116.43 26.94 116.2 27.04 116.02 27.19C115.84 27.33 115.71 27.51 115.63 27.72C115.56 27.94 115.54 28.16 115.59 28.4C115.63 28.65 115.73 28.85 115.88 29.02Z" fill="#37393F" fill-opacity="1.000000" fill-rule="nonzero"/>
	<path d="M115.72 35.44L117.21 34.57L117.21 34.11L115.71 34.12L115.71 33.51L119.45 33.49L119.46 34.78C119.46 35.07 119.41 35.31 119.31 35.5C119.22 35.7 119.08 35.85 118.91 35.95C118.74 36.05 118.55 36.1 118.35 36.1C118.1 36.1 117.88 36.03 117.68 35.9C117.49 35.76 117.34 35.54 117.27 35.25L115.73 36.18L115.72 35.44ZM117.69 34.1L117.69 34.78C117.69 35.01 117.76 35.18 117.87 35.3C117.99 35.42 118.14 35.47 118.34 35.47C118.53 35.47 118.68 35.41 118.79 35.3C118.9 35.18 118.96 35.01 118.96 34.78L118.96 34.1L117.69 34.1Z" fill="#37393F" fill-opacity="1.000000" fill-rule="nonzero"/>
	<path d="M115.84 41.76L116.1 40.22L115.39 39.83L115.5 39.19L118.96 41.14L118.85 41.83L114.93 42.53L115.04 41.9L115.84 41.76ZM116.37 41.68L118.18 41.37L116.56 40.47L116.37 41.68Z" fill="#37393F" fill-opacity="1.000000" fill-rule="nonzero"/>
	<path d="M114.39 46.29L113.99 47.49L113.52 47.33L114.11 45.55L117.66 46.73L117.46 47.31L114.39 46.29Z" fill="#37393F" fill-opacity="1.000000" fill-rule="nonzero"/>
	<path d="M112.18 50.69C112.35 50.56 112.53 50.47 112.72 50.44C112.92 50.41 113.11 50.45 113.31 50.55L113.01 51.13C112.86 51.07 112.72 51.07 112.57 51.12C112.43 51.17 112.31 51.29 112.21 51.47C112.12 51.66 112.09 51.83 112.12 51.98C112.16 52.13 112.25 52.25 112.39 52.32C112.5 52.37 112.61 52.39 112.72 52.36C112.82 52.34 112.91 52.28 113 52.2C113.09 52.12 113.2 52.01 113.33 51.86C113.5 51.67 113.65 51.53 113.78 51.42C113.91 51.32 114.06 51.25 114.23 51.22C114.4 51.18 114.6 51.23 114.8 51.33C114.99 51.43 115.13 51.57 115.23 51.74C115.33 51.91 115.37 52.1 115.36 52.31C115.35 52.53 115.28 52.74 115.16 52.96C115 53.29 114.77 53.51 114.52 53.64C114.25 53.76 113.97 53.76 113.67 53.64L113.99 53.04C114.11 53.09 114.25 53.08 114.39 53.03C114.53 52.96 114.64 52.85 114.73 52.68C114.81 52.53 114.84 52.37 114.81 52.23C114.78 52.09 114.69 51.98 114.54 51.91C114.44 51.85 114.35 51.84 114.25 51.87C114.15 51.9 114.06 51.95 113.97 52.02C113.88 52.1 113.77 52.21 113.65 52.35C113.48 52.54 113.32 52.7 113.19 52.8C113.06 52.91 112.9 52.98 112.73 53.02C112.55 53.05 112.37 53.01 112.15 52.9C111.98 52.81 111.85 52.69 111.75 52.52C111.64 52.35 111.6 52.16 111.59 51.93C111.59 51.71 111.65 51.49 111.77 51.25C111.86 51.01 112.01 50.83 112.18 50.69Z" fill="#37393F" fill-opacity="1.000000" fill-rule="nonzero"/>
	<path d="M33.22 27.7C34.29 27.7 35.11 27.57 35.67 27.33C36.23 27.08 36.59 26.89 36.76 26.77C36.76 27.03 36.71 27.34 36.6 27.7C36.5 28.06 36.3 28.41 36.02 28.76C35.74 29.1 35.38 29.4 34.93 29.63C34.48 29.86 33.91 29.99 33.22 29.99C32.34 29.99 31.49 29.82 30.68 29.49C29.86 29.16 29.05 28.8 28.26 28.4C27.46 28.02 26.68 27.66 25.9 27.32C25.12 26.98 24.34 26.82 23.52 26.82C22.64 26.82 21.87 26.96 21.2 27.24C20.54 27.52 19.98 27.89 19.51 28.35C19.04 28.82 18.67 29.34 18.37 29.93C18.06 30.52 17.82 31.12 17.64 31.74C17.46 32.34 17.33 32.94 17.27 33.53C17.21 34.11 17.17 34.62 17.17 35.08C17.17 35.7 17.23 36.19 17.33 36.54C17.44 36.9 17.51 37.13 17.56 37.23L17.56 37.27C17.11 37.14 16.7 36.96 16.33 36.72C16.03 36.51 15.76 36.22 15.51 35.85C15.26 35.49 15.14 35.01 15.14 34.44C15.14 33.54 15.34 32.6 15.74 31.64C16.14 30.67 16.69 29.79 17.4 29C18.11 28.2 18.96 27.55 19.98 27.03C20.99 26.51 22.11 26.26 23.33 26.26C24.03 26.26 24.82 26.33 25.68 26.48C26.54 26.63 27.42 26.79 28.3 26.98C29.2 27.16 30.07 27.33 30.92 27.48C31.76 27.63 32.53 27.7 33.22 27.7ZM21.1 44.21C21.1 43.99 21.16 43.63 21.27 43.13C21.39 42.63 21.55 42.03 21.76 41.33C21.96 40.64 22.2 39.86 22.47 39C22.73 38.14 23.01 37.25 23.29 36.33C22.71 36.45 22.22 36.52 21.84 36.52C21.58 36.52 21.36 36.47 21.19 36.39C21.02 36.31 20.88 36.21 20.77 36.1C20.67 35.98 20.59 35.87 20.55 35.76C20.5 35.66 20.49 35.58 20.49 35.5C20.55 35.57 20.67 35.64 20.85 35.71C21.03 35.78 21.24 35.83 21.45 35.83C21.69 35.83 21.99 35.79 22.36 35.71C22.72 35.64 23.12 35.54 23.55 35.43C23.76 34.65 23.98 33.88 24.19 33.12C24.41 32.35 24.6 31.65 24.76 31C24.92 30.36 25.04 29.8 25.14 29.34C25.24 28.87 25.29 28.54 25.29 28.35C25.29 28.26 25.29 28.19 25.29 28.13C25.29 28.06 25.28 27.96 25.25 27.8C25.4 27.85 25.62 27.92 25.89 28.03C26.17 28.14 26.44 28.26 26.7 28.4C26.96 28.54 27.18 28.67 27.38 28.8C27.58 28.92 27.67 29.02 27.67 29.09C27.67 29.43 27.52 30.11 27.23 31.12C26.94 32.13 26.58 33.32 26.15 34.7C26.77 34.53 27.27 34.37 27.66 34.23C28.04 34.09 28.4 33.99 28.72 33.93C28.72 33.76 28.71 33.62 28.66 33.54C28.94 33.59 29.23 33.63 29.51 33.67C29.8 33.71 30.07 33.77 30.32 33.83C30.57 33.89 30.77 33.97 30.92 34.07C31.07 34.17 31.14 34.28 31.14 34.41C31.14 34.61 31.1 34.83 31.02 35.09C30.93 35.35 30.84 35.62 30.73 35.9C30.62 36.18 30.53 36.45 30.45 36.74C30.37 37.03 30.35 37.29 30.37 37.55C30.22 37.55 30 37.55 29.73 37.55C29.45 37.55 29.17 37.54 28.9 37.51C28.63 37.49 28.4 37.44 28.2 37.37C27.99 37.3 27.89 37.17 27.89 37C27.89 36.87 27.93 36.7 28.01 36.5C28.08 36.29 28.17 36.08 28.27 35.84C28.37 35.6 28.46 35.36 28.54 35.13C28.63 34.9 28.7 34.69 28.74 34.52C28.37 34.63 27.98 34.78 27.55 34.97C27.12 35.16 26.58 35.36 25.94 35.58C25.66 36.53 25.37 37.48 25.09 38.46C24.8 39.44 24.53 40.37 24.3 41.24C24.07 42.12 23.86 42.92 23.7 43.62C23.54 44.31 23.45 44.87 23.42 45.27C23.33 45.26 23.16 45.2 22.9 45.11C22.64 45.02 22.38 44.93 22.12 44.83C21.85 44.74 21.62 44.64 21.41 44.53C21.2 44.42 21.1 44.31 21.1 44.21Z" fill="#6B77E5" fill-opacity="1.000000" fill-rule="nonzero"/>
	<path d="M91.78 41.45C91.93 40.9 92.18 40.02 92.51 38.84C92.84 37.65 93.25 36.34 93.73 34.89C94.22 33.44 94.77 31.94 95.41 30.41C96.04 28.87 96.72 27.47 97.44 26.2C98.16 24.93 98.93 23.89 99.73 23.08C100.54 22.26 101.37 21.85 102.23 21.85C102.55 21.85 102.86 21.96 103.15 22.17C103.44 22.39 103.71 22.62 103.94 22.88C104.2 23.19 104.44 23.53 104.68 23.91C104.62 23.89 104.54 23.87 104.46 23.85C104.4 23.83 104.32 23.8 104.24 23.79C104.15 23.77 104.07 23.75 103.98 23.75C102.89 23.75 101.85 24.13 100.88 24.91C99.91 25.68 99.01 26.67 98.17 27.86C97.33 29.05 96.58 30.38 95.9 31.83C95.22 33.28 94.63 34.68 94.11 36.03C93.59 37.39 93.16 38.61 92.8 39.7C92.44 40.8 92.19 41.59 92.04 42.09C92.17 42.35 92.3 42.51 92.43 42.57C91.95 42.63 91.51 42.64 91.1 42.59C90.69 42.53 90.33 42.38 90.01 42.14C89.69 41.89 89.43 41.54 89.24 41.07C89.04 40.61 88.94 40.03 88.92 39.32C88.9 38.66 88.87 37.81 88.85 36.79C88.84 35.77 88.81 34.74 88.79 33.72C88.77 32.7 88.76 31.79 88.75 30.98C88.74 30.18 88.73 29.67 88.73 29.45L88.73 28.93C88.56 29.45 88.26 30.28 87.86 31.41C87.45 32.55 86.95 33.83 86.35 35.25C85.75 36.66 85.08 38.12 84.33 39.61C83.59 41.11 82.81 42.48 82 43.72C81.18 44.97 80.34 45.99 79.48 46.79C78.62 47.58 77.77 47.98 76.94 47.98C76.62 47.98 76.35 47.86 76.13 47.62C75.92 47.39 75.75 47.12 75.61 46.81C75.46 46.47 75.33 46.07 75.23 45.62C75.32 45.67 75.4 45.69 75.49 45.72C75.66 45.77 75.81 45.78 75.93 45.78C76.99 45.78 78.01 45.42 79 44.69C79.98 43.97 80.91 43.02 81.78 41.87C82.65 40.73 83.46 39.45 84.22 38.07C84.97 36.68 85.64 35.33 86.23 34C86.82 32.68 87.32 31.47 87.74 30.38C88.16 29.28 88.48 28.46 88.69 27.92C88.6 27.66 88.57 27.48 88.57 27.38C88.83 27.38 89.11 27.38 89.42 27.41C89.73 27.43 90.03 27.52 90.3 27.67C90.58 27.82 90.82 28.04 91.01 28.33C91.21 28.62 91.3 29.04 91.3 29.58C91.3 29.86 91.31 30.27 91.33 30.8C91.35 31.34 91.37 31.94 91.38 32.6C91.39 33.25 91.41 33.93 91.42 34.65C91.44 35.35 91.46 36.03 91.47 36.68C91.48 37.32 91.49 37.9 91.5 38.39C91.51 38.88 91.52 39.25 91.52 39.48C91.55 40.23 91.63 40.89 91.78 41.45Z" fill="#6B77E5" fill-opacity="1.000000" fill-rule="nonzero"/>
	<path d="M61.64 29.27C61.49 33.12 59.92 35.71 58.1 35.64C56.28 35.57 54.92 32.86 55.07 29.01C55.23 25.16 58.66 21.71 58.66 21.71C58.66 21.71 61.8 25.42 61.64 29.27Z" fill="#37393F" fill-opacity="1.000000" fill-rule="nonzero"/>
	<path d="M65.97 28C65.95 28.15 65.5 31.75 63.27 33.87C62.2 34.88 61.05 35.62 60.02 35.95C58.93 36.31 58.04 36.19 57.5 35.62C56.45 34.52 57.35 32.07 59.57 29.95C61.81 27.84 65.41 27.59 65.58 27.58L66.02 27.55L65.97 28ZM58.05 35.1C58.37 35.45 59 35.5 59.79 35.24C60.71 34.94 61.76 34.26 62.75 33.32C64.33 31.83 64.94 29.41 65.14 28.39C64.12 28.53 61.66 29 60.09 30.5C58.67 31.84 57.8 33.32 57.8 34.36C57.8 34.67 57.88 34.92 58.05 35.1Z" fill="#37393F" fill-opacity="1.000000" fill-rule="nonzero"/>
	<path d="M58.66 35.67C58.32 35.97 57.86 36.12 57.32 36.1C56.08 36.03 54.47 35.05 53.05 33.46C50.99 31.17 50.83 27.55 50.82 27.4L50.8 26.95L51.25 27.01C51.4 27.03 54.98 27.57 57.04 29.86C58.43 31.39 59.22 32.99 59.22 34.23C59.24 34.83 59.04 35.33 58.66 35.67ZM53.61 32.95C54.89 34.37 56.33 35.29 57.37 35.34C57.71 35.36 57.97 35.28 58.16 35.11C58.37 34.92 58.48 34.63 58.48 34.24C58.48 33.19 57.73 31.75 56.5 30.37C55.04 28.74 52.64 28.07 51.63 27.85C51.74 28.87 52.15 31.32 53.61 32.95Z" fill="#37393F" fill-opacity="1.000000" fill-rule="nonzero"/>
	<path d="M58.71 27.9C58.71 27.74 58.58 27.61 58.41 27.6C58.24 27.59 58.11 27.72 58.1 27.89L57.29 47.9C57.29 47.91 57.29 47.91 57.29 47.91C57.29 48.07 57.42 48.2 57.59 48.21C57.76 48.22 57.89 48.08 57.9 47.91L58.71 27.9Z" fill="#37393F" fill-opacity="1.000000" fill-rule="nonzero"/>
	<path d="M70.55 33.2C70.55 33.17 70.55 33.15 70.54 33.12C70.51 32.96 70.34 32.86 70.18 32.9C70.05 32.93 57.77 36.02 57.35 46.71C57.35 46.72 57.35 46.72 57.35 46.72C57.35 46.88 57.47 47.02 57.63 47.03C57.8 47.04 57.94 46.9 57.95 46.73C58.36 36.49 70.2 33.51 70.31 33.48C70.46 33.46 70.55 33.33 70.55 33.2Z" fill="#37393F" fill-opacity="1.000000" fill-rule="nonzero"/>
	<path d="M66.87 39.69C66.87 39.68 66.87 39.66 66.87 39.64C66.85 39.47 66.69 39.35 66.53 39.38C66.44 39.39 57.6 40.67 57.32 47.51L57.32 47.52C57.32 47.68 57.45 47.82 57.62 47.82C57.79 47.83 57.92 47.7 57.93 47.53C58.18 41.2 66.53 39.99 66.61 39.98C66.77 39.96 66.87 39.84 66.87 39.69Z" fill="#37393F" fill-opacity="1.000000" fill-rule="nonzero"/>
	<path d="M57.96 46.19C57.96 35.91 46.39 31.99 46.27 31.94C46.11 31.89 45.94 31.98 45.89 32.14C45.84 32.3 45.92 32.47 46.08 32.52C46.2 32.56 57.78 36.48 57.36 46.72C57.36 46.73 57.36 46.73 57.36 46.73C57.36 46.89 57.48 47.03 57.64 47.04C57.81 47.05 57.95 46.91 57.96 46.74C57.96 46.55 57.96 46.37 57.96 46.19Z" fill="#37393F" fill-opacity="1.000000" fill-rule="nonzero"/>
	<path d="M57.93 47.22C57.93 40.64 49.48 38.72 49.39 38.7C49.23 38.67 49.07 38.77 49.03 38.93C48.99 39.1 49.1 39.26 49.26 39.29C49.34 39.31 57.54 41.16 57.32 47.51L57.32 47.52C57.32 47.68 57.45 47.82 57.62 47.82C57.79 47.83 57.92 47.7 57.93 47.53C57.93 47.43 57.93 47.32 57.93 47.22Z" fill="#37393F" fill-opacity="1.000000" fill-rule="nonzero"/>
	<path d="M72.41 33.28C72.37 34.48 71.36 35.41 70.17 35.36C69 35.32 68.09 34.37 68.09 33.11C68.14 31.92 69.15 30.99 70.34 31.04C71.5 31.08 72.41 32.03 72.41 33.2L72.41 33.28ZM70.2 34.53C70.93 34.56 71.55 33.98 71.58 33.25L72 33.2L71.58 33.2C71.58 32.48 71.02 31.9 70.3 31.86C69.57 31.83 68.95 32.41 68.91 33.2C68.91 33.91 69.48 34.5 70.2 34.53Z" fill="#37393F" fill-opacity="1.000000" fill-rule="nonzero"/>
	<path d="M48.34 32.32C48.31 32.9 48.07 33.43 47.64 33.82C47.22 34.22 46.67 34.41 46.08 34.39C44.92 34.35 44.01 33.4 44.01 32.15C44.03 31.57 44.28 31.04 44.71 30.64C45.13 30.25 45.68 30.05 46.26 30.07C47.43 30.12 48.34 31.06 48.34 32.24L48.34 32.32ZM46.12 33.56C46.48 33.58 46.82 33.45 47.08 33.21C47.34 32.97 47.49 32.64 47.51 32.28L47.93 32.23L47.52 32.23C47.52 31.51 46.95 30.93 46.24 30.89C45.88 30.88 45.54 31 45.28 31.24C45.02 31.49 44.87 31.82 44.85 32.23C44.84 32.94 45.4 33.54 46.12 33.56Z" fill="#37393F" fill-opacity="1.000000" fill-rule="nonzero"/>
	<path d="M68.32 39.76C68.28 40.72 67.46 41.48 66.5 41.43C65.53 41.4 64.78 40.58 64.82 39.61C64.86 38.65 65.67 37.9 66.64 37.94C67.61 37.98 68.35 38.79 68.32 39.76Z" fill="#37393F" fill-opacity="1.000000" fill-rule="nonzero"/>
	<path d="M51.07 39.07C51.04 40.04 50.22 40.79 49.25 40.74C48.29 40.71 47.53 39.89 47.58 38.93C47.62 37.96 48.43 37.21 49.4 37.25C50.36 37.29 51.11 38.1 51.07 39.07Z" fill="#37393F" fill-opacity="1.000000" fill-rule="nonzero"/>
</svg>
