<svg width="128.000000" height="129.000000" viewBox="0 0 128 129" fill="none" xmlns="http://www.w3.org/2000/svg" xmlns:xlink="http://www.w3.org/1999/xlink">
	<desc>
			Created with Pixso.
	</desc>
	<defs/>
	<path id="Ellipse" d="M104.15 14.98C93.02 5.63 78.67 0 63.01 0C48.47 0 33.86 4.91 21.87 14.98C10.73 24.32 2.69 37.48 -0.02 52.9C-2.55 67.22 -0.26 82.46 7.59 96.02C14.85 108.61 26.41 118.82 41.12 124.16C54.78 129.14 70.2 129.53 84.91 124.16C98.57 119.19 110.63 109.58 118.44 96.01C125.72 83.43 128.78 68.32 126.05 52.9C123.53 38.58 116.16 25.04 104.15 14.98ZM24.09 17.62C34.62 8.77 48.2 3.44 63.01 3.44C76.77 3.44 90.6 8.09 101.94 17.62C112.49 26.46 120.1 38.91 122.65 53.5C125.05 67.04 122.88 81.47 115.46 94.3C108.59 106.21 97.65 115.87 83.73 120.92C70.8 125.64 56.22 126 42.3 120.92C29.37 116.23 17.96 107.13 10.57 94.29C3.68 82.38 0.79 68.08 3.37 53.5C5.75 39.95 12.73 27.13 24.09 17.62Z" fill="#6B77E5" fill-opacity="1.000000" fill-rule="evenodd"/>
</svg>
