<svg width="127.000000" height="127.000000" viewBox="0 0 127 127" fill="none" xmlns="http://www.w3.org/2000/svg" xmlns:xlink="http://www.w3.org/1999/xlink">
	<desc>
			Created with Pixso.
	</desc>
	<defs/>
	<path id="Ellipse" d="M14.08 103.79C23.66 115.29 36.52 122.59 50.22 125.39C65.53 128.54 80.7 125.89 93.44 118.95C107.18 111.49 117.07 99.68 122.34 86.15C128.03 71.59 127.97 56.19 123.28 42.46C118.24 27.65 108.27 15.92 95.83 8.45C82.44 0.38 67.25 -2.17 52.92 0.15C37.48 2.61 24.23 10.46 14.76 21.46C4.95 32.84 -0.11 46.7 -0.63 60.65C-0.67 61.59 0.1 62.38 1.04 62.38C1.99 62.38 2.76 61.63 2.8 60.68C3.34 46.56 8.74 33.7 17.36 23.7C27 12.48 39.9 5.7 53.46 3.53C68.06 1.17 82.3 4.3 94.06 11.38C106.75 18.99 115.61 30.56 120.04 43.56C124.82 57.56 124.14 72.11 119.14 84.91C113.78 98.69 103.88 109.38 91.81 115.94C78.82 123.02 64.36 124.8 50.91 122.03C37.01 119.2 25.22 111.77 16.78 101.66C16.17 100.94 15.09 100.81 14.35 101.39C13.61 101.98 13.48 103.06 14.08 103.79Z" fill="#FFFFFF" fill-opacity="1.000000" fill-rule="evenodd"/>
</svg>
