<svg width="72.000000" height="72.000000" viewBox="0 0 72 72" fill="none" xmlns="http://www.w3.org/2000/svg" xmlns:xlink="http://www.w3.org/1999/xlink">
	<desc>
			Created with Pixso.
	</desc>
	<defs/>
	<circle id="Ellipse 120" cx="35.500000" cy="36.000000" r="36.000000" fill="#6B77E5" fill-opacity="1.000000"/>
	<path id="Vector" d="M52 52.5L19 52.5" stroke="#FFFFFF" stroke-opacity="1.000000" stroke-width="2.000000" stroke-linejoin="round" stroke-linecap="round"/>
	<path id="Vector" d="M38.5 27C38.5 26.17 39.17 25.5 40 25.5L47.5 25.5C48.32 25.5 49 26.17 49 27L49 45C49 45.82 48.32 46.5 47.5 46.5L40 46.5C39.17 46.5 38.5 45.82 38.5 45L38.5 27Z" stroke="#FFFFFF" stroke-opacity="1.000000" stroke-width="2.000000" stroke-linejoin="round"/>
	<path id="Vector" d="M31 18C31.82 18 32.5 18.67 32.5 19.5L32.5 45C32.5 45.82 31.82 46.5 31 46.5L23.5 46.5C22.67 46.5 22 45.82 22 45L22 19.5C22 18.67 22.67 18 23.5 18L31 18Z" stroke="#FFFFFF" stroke-opacity="1.000000" stroke-width="2.000000" stroke-linejoin="round"/>
</svg>
