<svg width="41.000000" height="41.000000" viewBox="0 0 41 41" fill="none" xmlns="http://www.w3.org/2000/svg" xmlns:xlink="http://www.w3.org/1999/xlink">
	<desc>
			Created with Pixso.
	</desc>
	<defs/>
	<path d="M37.26 13.8L36.77 17.63L32.94 18.12L29.88 20.48L26.82 18.12L22.99 17.63L22.5 13.8L20.14 10.74L22.5 7.68L22.99 3.85L26.82 3.36L29.88 1L32.94 3.36L36.77 3.85L37.26 7.68L39.62 10.74L37.26 13.8Z" stroke="#40DDB6" stroke-opacity="1.000000" stroke-width="2.000000"/>
	<path d="M35.18 17.32L35.18 28.83L29.88 25.28L24.58 28.83L24.58 17.32" stroke="#40DDB6" stroke-opacity="1.000000" stroke-width="2.000000"/>
	<path d="M22 20.56C20.4 22.82 17.76 24.28 14.81 24.28C10.21 24.28 6.39 20.75 6.03 16.16L4.99 2.96L20.9 2.96" stroke="#40DDB6" stroke-opacity="1.000000" stroke-width="2.000000"/>
	<path d="M5.79 16.18L3.58 16.18C2.5 16.18 1.59 15.38 1.46 14.3L0.13 7.99C-0.02 6.72 0.97 5.61 2.24 5.61L5.19 5.61" stroke="#40DDB6" stroke-opacity="1.000000" stroke-width="2.000000"/>
	<path d="M16.98 23.85C16.98 23.85 17.44 29.2 20.22 31.58" stroke="#40DDB6" stroke-opacity="1.000000" stroke-width="2.000000"/>
	<path d="M12.79 23.85C12.79 23.85 12.33 29.2 9.55 31.58" stroke="#40DDB6" stroke-opacity="1.000000" stroke-width="2.000000"/>
	<path d="M6.69 35.87L6.69 33.46C6.69 32.27 7.58 31.31 8.67 31.31L21.1 31.31C22.19 31.31 23.08 32.27 23.08 33.46L23.08 35.87L23.08 35.87L6.69 35.87Z" stroke="#40DDB6" stroke-opacity="1.000000" stroke-width="2.000000"/>
	<path d="M4.81 39.16L4.81 38.02C4.81 36.83 5.7 35.87 6.8 35.87L22.97 35.87C24.07 35.87 24.96 36.83 24.96 38.02L24.96 39.16L4.81 39.16Z" stroke="#40DDB6" stroke-opacity="1.000000" stroke-width="2.000000"/>
	<path d="M24.96 39.16L24.96 38.02C24.96 36.83 24.07 35.87 22.97 35.87L6.8 35.87C5.7 35.87 4.82 36.83 4.82 38.02L4.82 39.16L24.96 39.16Z" stroke="#40DDB6" stroke-opacity="1.000000" stroke-width="2.000000"/>
	<path d="M25.75 12.81L28.26 14.66L34.28 7" stroke="#40DDB6" stroke-opacity="1.000000" stroke-width="2.000000"/>
</svg>
