<svg width="17.000000" height="17.000000" viewBox="0 0 17 17" fill="none" xmlns="http://www.w3.org/2000/svg" xmlns:xlink="http://www.w3.org/1999/xlink">
	<desc>
			Created with Pixso.
	</desc>
	<defs/>
	<path id="Vector" d="M13.69 1L1.38 1C0.36 1 -0.47 1.83 -0.47 2.87L-0.47 14.12C-0.47 15.16 0.36 16 1.38 16L13.69 16C14.71 16 15.53 15.16 15.53 14.12L15.53 2.87C15.53 1.83 14.71 1 13.69 1Z" fill="#F8F8F8" fill-opacity="1.000000" fill-rule="nonzero"/>
	<path id="Vector" d="M13.69 1C14.71 1 15.53 1.83 15.53 2.87L15.53 14.12C15.53 15.16 14.71 16 13.69 16L1.38 16C0.36 16 -0.47 15.16 -0.47 14.12L-0.47 2.87C-0.47 1.83 0.36 1 1.38 1L13.69 1Z" stroke="#000000" stroke-opacity="1.000000" stroke-width="1.000000" stroke-linejoin="round"/>
	<path id="Vector" d="M10.53 7C10.53 7.55 10.09 8 9.53 8C8.98 8 8.53 7.55 8.53 7C8.53 6.44 8.98 6 9.53 6C10.09 6 10.53 6.44 10.53 7Z" fill="#37393F" fill-opacity="1.000000" fill-rule="evenodd"/>
	<path id="Vector" d="M13.53 7C13.53 7.55 13.09 8 12.53 8C11.98 8 11.53 7.55 11.53 7C11.53 6.44 11.98 6 12.53 6C13.09 6 13.53 6.44 13.53 7Z" fill="#37393F" fill-opacity="1.000000" fill-rule="evenodd"/>
	<path id="Vector" d="M10.53 10C10.53 10.55 10.09 11 9.53 11C8.98 11 8.53 10.55 8.53 10C8.53 9.44 8.98 9 9.53 9C10.09 9 10.53 9.44 10.53 10Z" fill="#37393F" fill-opacity="1.000000" fill-rule="evenodd"/>
	<path id="Vector" d="M13.53 10C13.53 10.55 13.09 11 12.53 11C11.98 11 11.53 10.55 11.53 10C11.53 9.44 11.98 9 12.53 9C13.09 9 13.53 9.44 13.53 10Z" fill="#37393F" fill-opacity="1.000000" fill-rule="evenodd"/>
	<path id="Vector" d="M3.53 10C3.53 10.55 3.09 11 2.53 11C1.98 11 1.53 10.55 1.53 10C1.53 9.44 1.98 9 2.53 9C3.09 9 3.53 9.44 3.53 10Z" fill="#37393F" fill-opacity="1.000000" fill-rule="evenodd"/>
	<path id="Vector" d="M7.53 10C7.53 10.55 7.09 11 6.53 11C5.98 11 5.53 10.55 5.53 10C5.53 9.44 5.98 9 6.53 9C7.09 9 7.53 9.44 7.53 10Z" fill="#37393F" fill-opacity="1.000000" fill-rule="evenodd"/>
	<path id="Vector" d="M3.53 13C3.53 13.55 3.09 14 2.53 14C1.98 14 1.53 13.55 1.53 13C1.53 12.44 1.98 12 2.53 12C3.09 12 3.53 12.44 3.53 13Z" fill="#37393F" fill-opacity="1.000000" fill-rule="evenodd"/>
	<path id="Vector" d="M7.53 13C7.53 13.55 7.09 14 6.53 14C5.98 14 5.53 13.55 5.53 13C5.53 12.44 5.98 12 6.53 12C7.09 12 7.53 12.44 7.53 13Z" fill="#37393F" fill-opacity="1.000000" fill-rule="evenodd"/>
	<path id="Vector" d="M10.53 13C10.53 13.55 10.09 14 9.53 14C8.98 14 8.53 13.55 8.53 13C8.53 12.44 8.98 12 9.53 12C10.09 12 10.53 12.44 10.53 13Z" fill="#37393F" fill-opacity="1.000000" fill-rule="evenodd"/>
	<path id="Vector" d="M2.53 0L2.53 1L2.53 0ZM12.53 0L12.53 1M12.05 0.02L12.03 0C12.03 -0.29 12.25 -0.5 12.53 -0.5C12.81 -0.5 13.03 -0.29 13.03 0L13.01 0.02L12.05 0.02ZM13.01 0.97L13.03 1C13.03 1.28 12.81 1.5 12.53 1.5C12.25 1.5 12.03 1.28 12.03 1L12.05 0.97L13.01 0.97Z" fill="#F8F8F8" fill-opacity="1.000000" fill-rule="nonzero"/>
	<path id="Vector" d="M2.53 1L2.53 0L2.53 1ZM12.53 0L12.53 1" stroke="#000000" stroke-opacity="1.000000" stroke-width="1.000000" stroke-linejoin="round" stroke-linecap="round"/>
	<path id="Vector" d="M15.53 4L-0.47 4" fill="#F8F8F8" fill-opacity="1.000000" fill-rule="nonzero"/>
	<path id="Vector" d="M15.53 4L-0.47 4" stroke="#000000" stroke-opacity="1.000000" stroke-width="1.000000" stroke-linejoin="round"/>
</svg>
