<svg width="72.000000" height="72.000000" viewBox="0 0 72 72" fill="none" xmlns="http://www.w3.org/2000/svg" xmlns:xlink="http://www.w3.org/1999/xlink">
	<desc>
			Created with Pixso.
	</desc>
	<defs/>
	<circle id="Ellipse 120" cx="36.000000" cy="36.000000" r="36.000000" fill="#40DDB6" fill-opacity="1.000000"/>
	<path id="Vector" d="M41.5 52.12L28.66 52.12C26.31 52.12 24.42 50.23 24.42 47.88L24.42 27" stroke="#FFFFFF" stroke-opacity="1.000000" stroke-width="2.000000"/>
	<path id="Vector" d="M21.58 19L43.28 19C45.54 19 47.4 20.84 47.4 23.12L47.4 32.38" stroke="#FFFFFF" stroke-opacity="1.000000" stroke-width="2.000000"/>
	<path id="Vector" d="M19 26.28L19 21.71C19 20.2 20.2 19 21.71 19C23.21 19 24.41 20.2 24.41 21.71L24.41 26.28L19 26.28Z" stroke="#FFFFFF" stroke-opacity="1.000000" stroke-width="2.000000"/>
	<path id="Vector" d="M51.09 41.81L50.66 43.97L48.52 44.39L46.7 45.61L44.87 44.39L42.73 43.97L42.29 41.81L41.08 40L42.29 38.17L42.73 36.02L44.87 35.59L46.7 34.37L48.52 35.59L50.66 36.02L51.09 38.17L52.32 40L51.09 41.81Z" stroke="#FFFFFF" stroke-opacity="1.000000" stroke-width="2.000000"/>
	<path id="Vector" d="M49.81 43.85L49.81 51.33L46.71 49.25L43.61 51.33L43.61 43.85" stroke="#FFFFFF" stroke-opacity="1.000000" stroke-width="2.000000"/>
	<path id="Vector" d="M30.07 25.25L40.28 25.25" stroke="#FFFFFF" stroke-opacity="1.000000" stroke-width="2.000000"/>
	<path id="Vector" d="M30.07 30.5L40.28 30.5" stroke="#FFFFFF" stroke-opacity="1.000000" stroke-width="2.000000"/>
	<path id="Vector" d="M30.07 35.68L40.28 35.68" stroke="#FFFFFF" stroke-opacity="1.000000" stroke-width="2.000000"/>
	<path id="Vector" d="M30.07 40.77L36.83 40.77" stroke="#FFFFFF" stroke-opacity="1.000000" stroke-width="2.000000"/>
	<path id="Vector" d="M30.07 45.96L36.83 45.96" stroke="#FFFFFF" stroke-opacity="1.000000" stroke-width="2.000000"/>
</svg>
