<svg width="72.000000" height="72.000000" viewBox="0 0 72 72" fill="none" xmlns="http://www.w3.org/2000/svg" xmlns:xlink="http://www.w3.org/1999/xlink">
	<desc>
			Created with Pixso.
	</desc>
	<defs/>
	<circle id="Ellipse 120" cx="35.500000" cy="36.000000" r="36.000000" fill="#40DDB6" fill-opacity="1.000000"/>
	<path id="Vector" d="M39.43 20.25L39.43 29.43L48.62 29.43" stroke="#FFFFFF" stroke-opacity="1.000000" stroke-width="2.000000" stroke-linejoin="round" stroke-linecap="round"/>
	<path id="Vector" d="M38.78 36L42.71 39.93L38.78 43.87" stroke="#FFFFFF" stroke-opacity="1.000000" stroke-width="2.000000" stroke-linejoin="round" stroke-linecap="round"/>
	<path id="Vector" d="M32.21 36L28.28 39.93L32.21 43.87" stroke="#FFFFFF" stroke-opacity="1.000000" stroke-width="2.000000" stroke-linejoin="round" stroke-linecap="round"/>
	<path id="Vector" d="M48.24 51.36C48.48 51.11 48.62 50.78 48.62 50.43L48.62 29.43L39.43 20.25L23.68 20.25C23.33 20.25 23 20.38 22.75 20.63C22.51 20.88 22.37 21.21 22.37 21.56L22.37 50.43C22.37 50.78 22.51 51.11 22.75 51.36C23 51.61 23.33 51.75 23.68 51.75L47.31 51.75C47.66 51.75 47.99 51.61 48.24 51.36Z" stroke="#FFFFFF" stroke-opacity="1.000000" stroke-width="2.000000" stroke-linejoin="round"/>
</svg>
