<svg width="42.000000" height="41.000000" viewBox="0 0 42 41" fill="none" xmlns="http://www.w3.org/2000/svg" xmlns:xlink="http://www.w3.org/1999/xlink">
	<desc>
			Created with Pixso.
	</desc>
	<defs/>
	<path d="M27.41 39.87L12.34 39.87C9.59 39.87 7.37 37.65 7.37 34.91L7.37 10.38" stroke="#40DDB6" stroke-opacity="1.000000" stroke-width="2.000000"/>
	<path d="M4.02 1L29.49 1C32.16 1 34.33 3.16 34.33 5.83L34.33 16.71" stroke="#40DDB6" stroke-opacity="1.000000" stroke-width="2.000000"/>
	<path d="M1 9.54L1 4.17C1 2.42 2.42 1 4.17 1C5.93 1 7.35 2.42 7.35 4.17L7.35 9.54L7.35 9.54L1 9.54Z" stroke="#40DDB6" stroke-opacity="1.000000" stroke-width="2.000000"/>
	<path d="M38.68 27.79L38.18 30.31L35.66 30.82L33.52 32.24L31.38 30.82L28.85 30.31L28.35 27.79L26.92 25.65L28.35 23.51L28.85 20.98L31.38 20.48L33.52 19.05L35.66 20.48L38.18 20.98L38.68 23.51L40.11 25.65L38.68 27.79Z" stroke="#40DDB6" stroke-opacity="1.000000" stroke-width="2.000000"/>
	<path d="M37.16 30.17L37.16 38.95L33.52 36.5L29.87 38.95L29.87 30.17" stroke="#40DDB6" stroke-opacity="1.000000" stroke-width="2.000000"/>
	<path d="M13.99 8.33L25.98 8.33" stroke="#40DDB6" stroke-opacity="1.000000" stroke-width="2.000000"/>
	<path d="M13.99 14.49L25.98 14.49" stroke="#40DDB6" stroke-opacity="1.000000" stroke-width="2.000000"/>
	<path d="M13.99 20.58L25.98 20.58" stroke="#40DDB6" stroke-opacity="1.000000" stroke-width="2.000000"/>
	<path d="M13.99 26.55L21.94 26.55" stroke="#40DDB6" stroke-opacity="1.000000" stroke-width="2.000000"/>
	<path d="M13.99 32.64L21.94 32.64" stroke="#40DDB6" stroke-opacity="1.000000" stroke-width="2.000000"/>
</svg>
