<svg width="72.000000" height="72.000000" viewBox="0 0 72 72" fill="none" xmlns="http://www.w3.org/2000/svg" xmlns:xlink="http://www.w3.org/1999/xlink">
	<desc>
			Created with Pixso.
	</desc>
	<defs/>
	<circle id="Ellipse 120" cx="36.000000" cy="36.000000" r="36.000000" fill="#40DDB6" fill-opacity="1.000000"/>
	<path id="Vector" d="M17.62 50.43L54.37 50.43" stroke="#FFFFFF" stroke-opacity="1.000000" stroke-width="2.000000" stroke-linejoin="round" stroke-linecap="round"/>
	<path id="Vector" d="M38.62 50.43L38.62 21.56C38.62 21.21 38.48 20.88 38.24 20.63C37.99 20.38 37.66 20.25 37.31 20.25L21.56 20.25C21.21 20.25 20.88 20.38 20.63 20.63C20.38 20.88 20.25 21.21 20.25 21.56L20.25 50.43" stroke="#FFFFFF" stroke-opacity="1.000000" stroke-width="2.000000" stroke-linejoin="round" stroke-linecap="round"/>
	<path id="Vector" d="M51.75 50.43L51.75 32.06C51.75 31.71 51.61 31.38 51.36 31.13C51.11 30.88 50.78 30.75 50.43 30.75L38.62 30.75" stroke="#FFFFFF" stroke-opacity="1.000000" stroke-width="2.000000" stroke-linejoin="round" stroke-linecap="round"/>
	<path id="Vector" d="M25.5 26.81L30.75 26.81" stroke="#FFFFFF" stroke-opacity="1.000000" stroke-width="2.000000" stroke-linejoin="round" stroke-linecap="round"/>
	<path id="Vector" d="M28.12 37.31L33.37 37.31" stroke="#FFFFFF" stroke-opacity="1.000000" stroke-width="2.000000" stroke-linejoin="round" stroke-linecap="round"/>
	<path id="Vector" d="M25.5 43.87L30.75 43.87" stroke="#FFFFFF" stroke-opacity="1.000000" stroke-width="2.000000" stroke-linejoin="round" stroke-linecap="round"/>
	<path id="Vector" d="M43.87 43.87L46.5 43.87" stroke="#FFFFFF" stroke-opacity="1.000000" stroke-width="2.000000" stroke-linejoin="round" stroke-linecap="round"/>
	<path id="Vector" d="M43.87 37.31L46.5 37.31" stroke="#FFFFFF" stroke-opacity="1.000000" stroke-width="2.000000" stroke-linejoin="round" stroke-linecap="round"/>
</svg>
