<svg width="20.000000" height="19.000000" viewBox="0 0 20 19" fill="none" xmlns="http://www.w3.org/2000/svg" xmlns:xlink="http://www.w3.org/1999/xlink">
	<desc>
			Created with Pixso.
	</desc>
	<defs/>
	<path id="Star 6" d="M8.37 -0.08C8.64 -0.9 9.8 -0.9 10.07 -0.08L11.83 5.34C11.95 5.7 12.29 5.95 12.68 5.95L18.37 5.95C19.23 5.95 19.59 7.06 18.89 7.57L14.29 10.91C13.98 11.14 13.85 11.55 13.97 11.91L15.72 17.33C15.99 18.15 15.05 18.83 14.35 18.33L9.75 14.98C9.43 14.75 9.01 14.75 8.69 14.98L4.09 18.33C3.39 18.83 2.45 18.15 2.71 17.33L4.47 11.91C4.59 11.55 4.46 11.14 4.15 10.91L-0.46 7.57C-1.16 7.06 -0.8 5.95 0.07 5.95L5.76 5.95C6.15 5.95 6.49 5.7 6.61 5.34L8.37 -0.08Z" fill="#FFA722" fill-opacity="1.000000" fill-rule="nonzero"/>
</svg>
