<svg width="20.000000" height="19.000000" viewBox="0 0 20 19" fill="none" xmlns="http://www.w3.org/2000/svg" xmlns:xlink="http://www.w3.org/1999/xlink">
	<desc>
			Created with Pixso.
	</desc>
	<defs/>
	<path id="Star 7" d="M8.39 -0.08C8.66 -0.9 9.83 -0.9 10.09 -0.08L10.29 0.54L11.85 5.34C11.97 5.7 12.32 5.95 12.7 5.95L18.39 5.95C19.26 5.95 19.62 7.06 18.92 7.57L18.39 7.95L14.31 10.91C14 11.14 13.87 11.55 13.99 11.91L15.55 16.71L15.75 17.33C16.02 18.15 15.07 18.83 14.37 18.33L13.85 17.94L9.77 14.98C9.46 14.75 9.03 14.75 8.72 14.98L4.11 18.33C3.41 18.83 2.47 18.15 2.74 17.33L2.94 16.71L4.5 11.91C4.62 11.55 4.49 11.14 4.17 10.91L0.1 7.95L-0.43 7.57C-1.13 7.06 -0.77 5.95 0.09 5.95L5.79 5.95C6.17 5.95 6.52 5.7 6.64 5.34L8.19 0.54L8.39 -0.08ZM9.24 3.78L8.54 5.95Q8.46 6.18 8.36 6.39Q8.25 6.59 8.12 6.77Q7.99 6.95 7.83 7.11Q7.67 7.27 7.49 7.4Q7.3 7.53 7.1 7.64Q6.9 7.74 6.69 7.81Q6.47 7.88 6.25 7.91Q6.02 7.95 5.79 7.95L3.5 7.95L5.35 9.3Q5.54 9.44 5.7 9.6Q5.86 9.76 6 9.95Q6.13 10.13 6.23 10.32Q6.33 10.53 6.4 10.74Q6.47 10.96 6.51 11.18Q6.54 11.4 6.54 11.63Q6.54 11.85 6.51 12.08Q6.47 12.31 6.4 12.53L5.69 14.71L7.54 13.36Q7.73 13.22 7.94 13.12Q8.14 13.02 8.36 12.95Q8.57 12.88 8.79 12.84Q9.01 12.81 9.24 12.81Q9.47 12.81 9.7 12.84Q9.91 12.88 10.13 12.95Q10.34 13.02 10.54 13.12Q10.75 13.22 10.94 13.36L12.79 14.71L12.09 12.53Q12.01 12.31 11.98 12.07Q11.95 11.85 11.95 11.63Q11.95 11.4 11.98 11.18Q12.02 10.96 12.09 10.74Q12.16 10.53 12.26 10.32Q12.36 10.13 12.49 9.95Q12.62 9.76 12.78 9.6Q12.95 9.44 13.14 9.3L14.99 7.95L12.7 7.95Q12.46 7.95 12.23 7.92Q12.01 7.88 11.8 7.81Q11.58 7.74 11.39 7.64Q11.19 7.53 11 7.4Q10.82 7.27 10.66 7.11Q10.5 6.95 10.37 6.77Q10.23 6.59 10.13 6.39Q10.02 6.18 9.95 5.95L9.24 3.78Z" fill="#FFA722" fill-opacity="1.000000" fill-rule="evenodd"/>
</svg>
