<svg width="17.000000" height="17.000000" viewBox="0 0 17 17" fill="none" xmlns="http://www.w3.org/2000/svg" xmlns:xlink="http://www.w3.org/1999/xlink">
	<desc>
			Created with Pixso.
	</desc>
	<defs/>
	<path id="Vector" d="M8.16 -0.64C3.37 -0.64 -0.52 3.24 -0.52 8.03C-0.52 11.59 1.62 14.64 4.68 15.98C4.65 15.38 4.67 14.65 4.83 13.99C4.99 13.29 5.94 9.26 5.94 9.26C5.94 9.26 5.66 8.71 5.66 7.89C5.66 6.6 6.41 5.64 7.34 5.64C8.13 5.64 8.51 6.24 8.51 6.94C8.51 7.74 8 8.92 7.74 10.02C7.53 10.95 8.2 11.69 9.11 11.69C10.76 11.69 11.87 9.58 11.87 7.08C11.87 5.18 10.58 3.76 8.25 3.76C5.62 3.76 3.98 5.72 3.98 7.91C3.98 8.67 4.2 9.2 4.55 9.61C4.71 9.8 4.74 9.88 4.68 10.1C4.63 10.26 4.54 10.64 4.5 10.8C4.44 11.02 4.26 11.09 4.06 11.01C2.85 10.52 2.29 9.19 2.29 7.7C2.29 5.23 4.37 2.28 8.49 2.28C11.8 2.28 13.99 4.67 13.99 7.25C13.99 10.65 12.09 13.19 9.3 13.19C8.36 13.19 7.48 12.69 7.18 12.11C7.18 12.11 6.68 14.11 6.57 14.5C6.39 15.17 6.03 15.84 5.7 16.36C6.5 16.59 7.32 16.71 8.16 16.72C12.95 16.72 16.84 12.83 16.84 8.04C16.84 3.25 12.96 -0.64 8.16 -0.64Z" fill="#FFFFFF" fill-opacity="1.000000" fill-rule="nonzero"/>
</svg>
