<svg width="18.000000" height="15.000000" viewBox="0 0 18 15" fill="none" xmlns="http://www.w3.org/2000/svg" xmlns:xlink="http://www.w3.org/1999/xlink">
	<desc>
			Created with Pixso.
	</desc>
	<defs/>
	<path id="Vector" d="M17.48 1.45C16.79 1.75 16.07 1.94 15.32 2.03C16.1 1.57 16.69 0.85 16.98 -0.01C16.24 0.42 15.43 0.72 14.59 0.88C14.24 0.51 13.81 0.22 13.34 0.02C12.87 -0.19 12.36 -0.29 11.85 -0.29C9.77 -0.29 8.09 1.37 8.09 3.41C8.09 3.69 8.12 3.97 8.19 4.25C6.7 4.18 5.24 3.8 3.91 3.14C2.58 2.47 1.4 1.53 0.45 0.39C0.11 0.95 -0.06 1.59 -0.07 2.24C-0.07 3.53 0.6 4.66 1.61 5.32C1.01 5.31 0.43 5.15 -0.09 4.86L-0.09 4.91C-0.09 6.7 1.2 8.19 2.92 8.53C2.6 8.62 2.26 8.66 1.93 8.66C1.69 8.66 1.45 8.64 1.22 8.59C1.7 10.06 3.09 11.13 4.73 11.16C3.4 12.19 1.76 12.75 0.07 12.74C-0.23 12.74 -0.53 12.72 -0.83 12.69C0.89 13.78 2.88 14.36 4.92 14.36C11.84 14.36 15.62 8.72 15.62 3.84C15.62 3.68 15.61 3.52 15.61 3.36C16.34 2.84 16.97 2.19 17.48 1.45Z" fill="#FFFFFF" fill-opacity="1.000000" fill-rule="nonzero"/>
</svg>
