<svg width="13.000000" height="13.000000" viewBox="0 0 13 13" fill="none" xmlns="http://www.w3.org/2000/svg" xmlns:xlink="http://www.w3.org/1999/xlink">
	<desc>
			Created with Pixso.
	</desc>
	<defs/>
	<path id="Vector" d="M12.62 -0.12C12.5 -0.24 12.35 -0.34 12.2 -0.41C12.04 -0.47 11.87 -0.51 11.7 -0.5L8.13 -0.5C7.9 -0.5 7.67 -0.41 7.51 -0.25L0.37 6.88C0.13 7.13 0 7.46 0 7.8C0 8.15 0.13 8.48 0.37 8.72L3.77 12.11C4.01 12.36 4.34 12.5 4.69 12.5C5.03 12.5 5.36 12.36 5.61 12.11L12.74 4.99C12.9 4.82 12.99 4.6 13 4.36L13 0.8C13 0.62 12.96 0.46 12.9 0.3C12.83 0.14 12.74 0 12.62 -0.12ZM10.21 3.21C10.03 3.21 9.85 3.15 9.69 3.05C9.54 2.95 9.42 2.81 9.35 2.64C9.28 2.47 9.26 2.28 9.3 2.1C9.33 1.92 9.42 1.75 9.55 1.62C9.68 1.49 9.85 1.41 10.03 1.37C10.21 1.33 10.4 1.35 10.56 1.42C10.73 1.49 10.88 1.61 10.98 1.76C11.08 1.92 11.14 2.1 11.14 2.28C11.14 2.53 11.04 2.76 10.87 2.94C10.69 3.11 10.46 3.21 10.21 3.21Z" fill="#207F68" fill-opacity="1.000000" fill-rule="nonzero"/>
</svg>
