<svg width="14.000000" height="14.000000" viewBox="0 0 14 14" fill="none" xmlns="http://www.w3.org/2000/svg" xmlns:xlink="http://www.w3.org/1999/xlink">
	<desc>
			Created with Pixso.
	</desc>
	<defs/>
	<path id="Vector" d="M9.57 0.51C8.92 -0.14 8 -0.5 7 -0.5C5.98 -0.5 5.06 -0.15 4.41 0.51C3.75 1.17 3.43 2.06 3.51 3.03C3.66 4.94 5.22 6.5 7 6.5C8.77 6.5 10.33 4.94 10.48 3.03C10.56 2.07 10.24 1.18 9.57 0.51ZM12.92 13.5L1.07 13.5C0.92 13.5 0.76 13.47 0.62 13.41C0.48 13.35 0.36 13.26 0.26 13.15C0.04 12.9 -0.05 12.57 0.02 12.24C0.3 10.77 1.19 9.55 2.58 8.68C3.82 7.92 5.39 7.5 7 7.5C8.6 7.5 10.17 7.92 11.41 8.68C12.8 9.55 13.69 10.77 13.97 12.24C14.04 12.57 13.95 12.9 13.73 13.15C13.63 13.26 13.51 13.35 13.37 13.41C13.23 13.47 13.07 13.5 12.92 13.5Z" fill="#207F68" fill-opacity="1.000000" fill-rule="nonzero"/>
</svg>
