<svg width="17.000000" height="16.000000" viewBox="0 0 17 16" fill="none" xmlns="http://www.w3.org/2000/svg" xmlns:xlink="http://www.w3.org/1999/xlink">
	<desc>
			Created with Pixso.
	</desc>
	<defs/>
	<path id="Vector" d="M16.25 7.72C16.25 3.18 12.43 -0.5 7.71 -0.5C2.99 -0.5 -0.83 3.18 -0.83 7.72C-0.83 11.83 2.29 15.23 6.38 15.85L6.38 10.1L4.21 10.1L4.21 7.72L6.38 7.72L6.38 5.91C6.38 3.85 7.65 2.71 9.6 2.71C10.54 2.71 11.52 2.87 11.52 2.87L11.52 4.9L10.44 4.9C9.38 4.9 9.05 5.53 9.05 6.18L9.05 7.72L11.41 7.72L11.04 10.1L9.05 10.1L9.05 15.85C13.13 15.24 16.25 11.83 16.25 7.72Z" fill="#FFFFFF" fill-opacity="1.000000" fill-rule="evenodd"/>
</svg>
