<svg width="22.000000" height="32.000000" viewBox="0 0 22 32" fill="none" xmlns="http://www.w3.org/2000/svg" xmlns:xlink="http://www.w3.org/1999/xlink">
	<desc>
			Created with Pixso.
	</desc>
	<defs/>
	<path d="M0 10.88C0 17.15 6.67 27.09 9.12 30.53C9.22 30.67 9.35 30.79 9.5 30.87C9.66 30.95 9.83 31 10 31C10.17 31 10.34 30.95 10.5 30.87C10.65 30.79 10.79 30.67 10.89 30.53C13.33 27.09 20 17.15 20 10.88C20 5.42 15.52 1 10 1C4.48 1 0 5.42 0 10.88Z" stroke="#40DDB6" stroke-opacity="1.000000" stroke-width="2.000000" stroke-linejoin="round"/>
	<path d="M10 16C7.79 16 6 14.2 6 12C6 9.79 7.79 8 10 8C12.21 8 14 9.79 14 12C14 14.2 12.21 16 10 16Z" stroke="#40DDB6" stroke-opacity="1.000000" stroke-width="2.000000" stroke-linejoin="round"/>
</svg>
