<svg width="17.000000" height="16.000000" viewBox="0 0 17 16" fill="none" xmlns="http://www.w3.org/2000/svg" xmlns:xlink="http://www.w3.org/1999/xlink">
	<desc>
			Created with Pixso.
	</desc>
	<defs/>
	<path id="Vector" d="M11.18 0.82C12.13 0.82 13.03 1.18 13.7 1.83C14.36 2.47 14.74 3.34 14.74 4.25L14.74 11.1C14.74 12.01 14.36 12.88 13.7 13.52C13.03 14.17 12.13 14.53 11.18 14.53L4.06 14.53C3.12 14.53 2.22 14.17 1.55 13.52C0.88 12.88 0.51 12.01 0.5 11.1L0.5 4.25C0.51 3.34 0.88 2.47 1.55 1.83C2.22 1.18 3.12 0.82 4.06 0.82L11.18 0.82ZM11.18 -0.55L4.06 -0.55C1.32 -0.55 -0.92 1.61 -0.92 4.25L-0.92 11.1C-0.92 13.74 1.32 15.9 4.06 15.9L11.18 15.9C13.92 15.9 16.17 13.74 16.17 11.1L16.17 4.25C16.17 1.61 13.92 -0.55 11.18 -0.55Z" fill="#FFFFFF" fill-opacity="1.000000" fill-rule="nonzero"/>
	<path id="Vector" d="M12.25 4.25C12.04 4.25 11.83 4.19 11.66 4.07C11.48 3.96 11.34 3.8 11.26 3.61C11.18 3.42 11.16 3.22 11.2 3.02C11.24 2.82 11.35 2.64 11.5 2.49C11.64 2.35 11.83 2.25 12.04 2.21C12.25 2.17 12.46 2.19 12.66 2.27C12.85 2.35 13.02 2.48 13.14 2.65C13.26 2.82 13.32 3.02 13.32 3.22C13.32 3.35 13.29 3.49 13.24 3.61C13.18 3.74 13.11 3.85 13.01 3.95C12.91 4.04 12.79 4.12 12.66 4.17C12.53 4.22 12.39 4.25 12.25 4.25ZM7.62 4.93C8.19 4.93 8.74 5.09 9.2 5.39C9.67 5.7 10.04 6.12 10.25 6.63C10.47 7.13 10.53 7.68 10.42 8.21C10.31 8.74 10.04 9.23 9.64 9.61C9.24 10 8.73 10.26 8.18 10.37C7.63 10.47 7.05 10.42 6.53 10.21C6.01 10 5.57 9.65 5.25 9.2C4.94 8.75 4.77 8.22 4.77 7.68C4.78 6.95 5.08 6.25 5.61 5.74C6.14 5.22 6.87 4.93 7.62 4.93ZM7.62 3.56C6.78 3.56 5.95 3.8 5.25 4.25C4.55 4.71 4 5.35 3.68 6.1C3.35 6.85 3.27 7.68 3.43 8.48C3.6 9.28 4 10.01 4.6 10.58C5.2 11.16 5.96 11.55 6.79 11.71C7.62 11.87 8.48 11.79 9.26 11.48C10.04 11.16 10.71 10.64 11.17 9.96C11.64 9.28 11.89 8.49 11.89 7.68C11.89 6.58 11.44 5.54 10.64 4.77C9.84 4 8.76 3.56 7.62 3.56Z" fill="#FFFFFF" fill-opacity="1.000000" fill-rule="nonzero"/>
</svg>
