<svg width="17.000000" height="18.000000" viewBox="0 0 17 18" fill="none" xmlns="http://www.w3.org/2000/svg" xmlns:xlink="http://www.w3.org/1999/xlink">
	<desc>
			Created with Pixso.
	</desc>
	<defs/>
	<path id="Vector" d="M8.25 0C3.45 0 -0.44 3.88 -0.44 8.67C-0.44 12.23 1.7 15.28 4.76 16.62C4.74 16.02 4.76 15.29 4.91 14.63C5.08 13.93 6.03 9.9 6.03 9.9C6.03 9.9 5.75 9.35 5.75 8.53C5.75 7.24 6.49 6.28 7.42 6.28C8.21 6.28 8.59 6.88 8.59 7.58C8.59 8.38 8.09 9.56 7.83 10.66C7.61 11.59 8.29 12.33 9.2 12.33C10.84 12.33 11.95 10.22 11.95 7.72C11.95 5.82 10.67 4.4 8.34 4.4C5.71 4.4 4.06 6.36 4.06 8.55C4.06 9.31 4.29 9.84 4.64 10.25C4.8 10.44 4.82 10.52 4.76 10.74C4.72 10.9 4.62 11.28 4.58 11.43C4.52 11.66 4.35 11.73 4.15 11.65C2.94 11.16 2.37 9.83 2.37 8.34C2.37 5.87 4.45 2.92 8.57 2.92C11.89 2.92 14.07 5.31 14.07 7.89C14.07 11.29 12.17 13.83 9.38 13.83C8.45 13.83 7.57 13.33 7.26 12.75C7.26 12.75 6.76 14.75 6.65 15.14C6.47 15.81 6.11 16.48 5.78 17C6.58 17.23 7.41 17.35 8.24 17.35C13.04 17.35 16.92 13.47 16.92 8.68C16.92 3.88 13.04 0 8.25 0Z" fill="#FFFFFF" fill-opacity="1.000000" fill-rule="nonzero"/>
</svg>
