<svg width="18.000000" height="15.000000" viewBox="0 0 18 15" fill="none" xmlns="http://www.w3.org/2000/svg" xmlns:xlink="http://www.w3.org/1999/xlink">
	<desc>
			Created with Pixso.
	</desc>
	<defs/>
	<path id="Vector" d="M17.56 1.09C16.88 1.39 16.15 1.58 15.41 1.67C16.19 1.21 16.78 0.49 17.06 -0.37C16.32 0.06 15.51 0.36 14.67 0.52C14.32 0.15 13.89 -0.14 13.42 -0.34C12.95 -0.55 12.44 -0.65 11.93 -0.65C9.85 -0.65 8.17 1.01 8.17 3.05C8.17 3.33 8.21 3.61 8.27 3.89C6.78 3.82 5.33 3.44 3.99 2.78C2.66 2.11 1.48 1.17 0.53 0.03C0.2 0.59 0.02 1.23 0.02 1.88C0.02 3.17 0.69 4.3 1.7 4.96C1.1 4.95 0.51 4.79 -0.01 4.5L-0.01 4.55C-0.01 6.34 1.29 7.83 3 8.17C2.68 8.26 2.35 8.3 2.01 8.3C1.77 8.3 1.54 8.28 1.31 8.23C1.78 9.7 3.17 10.77 4.82 10.8C3.48 11.83 1.84 12.39 0.15 12.38C-0.15 12.38 -0.45 12.36 -0.75 12.33C0.97 13.42 2.97 14 5 14C11.92 14 15.7 8.36 15.7 3.48C15.7 3.32 15.7 3.16 15.69 3C16.42 2.48 17.06 1.83 17.56 1.09Z" fill="#FFFFFF" fill-opacity="1.000000" fill-rule="nonzero"/>
</svg>
