<svg width="28.000000" height="27.000000" viewBox="0 0 28 27" fill="none" xmlns="http://www.w3.org/2000/svg" xmlns:xlink="http://www.w3.org/1999/xlink">
	<desc>
			Created with Pixso.
	</desc>
	<defs/>
	<path d="M21.63 17.32C20.11 16.56 19.98 16.49 18.79 17.38C17.99 17.97 17.46 18.5 16.53 18.3C15.6 18.1 13.58 16.98 11.8 15.22C10.03 13.45 8.84 11.36 8.64 10.44C8.44 9.51 8.98 8.98 9.57 8.19C10.39 7.06 10.33 6.87 9.62 5.35C9.07 4.17 7.57 1.79 6.57 0.81C5.5 -0.26 5.5 -0.07 4.8 0.22C4.24 0.46 3.7 0.74 3.19 1.08C2.19 1.74 1.63 2.3 1.25 3.13C0.86 3.95 0.68 5.9 2.69 9.54C4.69 13.18 6.1 15.04 9.01 17.95C11.92 20.85 14.16 22.41 17.43 24.24C21.48 26.51 23.03 26.07 23.86 25.68C24.69 25.29 25.25 24.74 25.91 23.74C26.25 23.23 26.54 22.69 26.78 22.13C27.06 21.44 27.25 21.44 26.19 20.37C25.2 19.37 22.79 17.91 21.63 17.32Z" stroke="#40DDB6" stroke-opacity="1.000000" stroke-width="2.000000"/>
</svg>
